<svg version="1.2" xmlns="http://www.w3.org/2000/svg" viewBox="0 0 185 254" width="185" height="254">
	<style>
		.s0 { fill: #bfcad6 } 
		.s1 { fill: #231b36 } 
		.s2 { opacity: .5;fill: #231b36 } 
		.s3 { fill: #632b52 } 
		.s4 { fill: #413857 } 
		.s5 { fill: #955c7f } 
		.s6 { fill: none;stroke: #0f0c1c;stroke-linecap: round;stroke-miterlimit:10;stroke-width: 1.3 } 
		.s7 { fill: none;stroke: #0f0c1c;stroke-linecap: round;stroke-miterlimit:10;stroke-width: .7 } 
	</style>
	<path fill-rule="evenodd" class="s0" d="m105.93 224.47c-36.18 0-65.42-5.14-65.42-11.49 0-6.35 29.24-11.48 65.42-11.48 36.18 0 65.43 5.13 65.43 11.48 0 6.35-29.25 11.49-65.43 11.49z"/>
	<path class="s1" d="m157.84 182.7c0.32-31.77 8.9-73.42-34.63-88.67-6.99-2.54-0.96-8.9-10.17-14.62-1.91-1.59 1.9-22.56-3.5-26.37-5.4-3.81-36.54-12.08-43.53 20.33-6.99 32.41-9.21 37.81-3.17 34.96-0.64 11.43 0.31 14.61 4.44 12.39 1.59 7.31 6.99 11.75 12.08 15.25-1.27 12.39-7.95 59.42-3.5 65.77 4.45 6.36 81.66 12.74 81.98-19.04z"/>
	<path class="s2" d="m74.09 94.03c-6.81-2.48-1.26-8.57-9.49-14.17-5.85 26.63-7.37 31.12-1.76 28.47-0.64 11.43 0.31 14.61 4.44 12.39 0.88 4.03 2.92 7.19 5.43 9.8-0.08-2.97 0.91-5.89 2.89-8.11 3.49-3.91 9.58-6.75 15.93 8.97 9.77 24.18 4.05 38.42 2.19 35.68-0.1 1.26 13.23 24.48 10.86 36.29 11.97-3.49 4.04-9.87 4.14-20.65 0.32-31.77 8.9-73.42-34.63-88.67z"/>
	<path class="s2" d="m123.21 94.03c-6.99-2.54-0.96-8.9-10.17-14.62-1.91-1.59 1.9-22.56-3.5-26.37-2.54-1.8-10.82-4.58-19.59-3.62 5.7 0.58 10.39 2.34 12.19 3.62 5.41 3.81 1.59 24.78 3.5 26.37 9.21 5.72 3.18 12.08 10.17 14.62 43.53 15.25 34.95 56.9 34.63 88.67-0.18 17.8-24.48 23.63-46.61 24.19 23.71 0.6 53.81-4.37 54.01-24.19 0.32-31.77 8.9-73.42-34.63-88.67z"/>
	<path class="s2" d="m112.61 78.29c-0.77-4.73 1.76-21.84-3.07-25.25-5.4-3.81-36.54-12.08-43.53 20.33q-0.9 4.22-1.7 7.83c4.75 4.03 11.02 6.69 18.02 7.18q1.22 0.08 2.42 0.07 1.19 0.18 2.41 0.26c10.38 0.73 19.83-3.49 25.45-10.42z"/>
	<path class="s1" d="m71.42 16.5c1.58 3.18 9.53 20.02 10.8 23.51 1.27 3.5-13.35 6.04-14.94 6.36-1.58 0.32 0.64-30.51 0.64-32.09 0-1.59 3.5 2.22 3.5 2.22z"/>
	<path class="s2" d="m71.42 16.5c1.58 3.18 9.53 20.02 10.8 23.51 1.27 3.5-13.35 6.04-14.94 6.36-1.58 0.32 0.64-30.51 0.64-32.09 0-1.59 3.5 2.22 3.5 2.22z"/>
	<path class="s3" d="m71.54 26.26c0.97 1.94 5.82 12.21 6.59 14.34 0.78 2.14-8.14 3.69-9.11 3.88-0.96 0.19 0.39-18.6 0.39-19.57 0-0.97 2.13 1.35 2.13 1.35z"/>
	<path class="s1" d="m85.87 40.41c0 0 11.68-23.12 14.54-26.21 2.86-3.1 7.63 11.2 11.2 23.11 3.57 11.92-0.48 17.16-0.48 17.16z"/>
	<path class="s3" d="m87.52 42.24c0 0 10.02-19.85 12.48-22.52q0.07-0.07 0.14-0.12c4.3 3.87 6.99 29.75 7.38 33.78z"/>
	<path fill-rule="evenodd" class="s1" d="m86.67 88.36c-15.82 0-28.6-11.53-28.6-25.79 0-14.26 12.78-25.79 28.6-25.79 15.81 0 28.59 11.53 28.59 25.79 0 14.26-12.78 25.79-28.59 25.79z"/>
	<path class="s2" d="m83.1 36.99c-14.11 1.59-25.03 12.43-25.03 25.58 0 13.15 10.92 24 25.03 25.58 14.11-1.58 25.03-12.43 25.03-25.58 0-13.15-10.92-23.99-25.03-25.58z"/>
	<path class="s1" d="m53.3 62.57c0 14.24 12.81 25.79 28.6 25.79 15.8 0 28.6-11.55 28.6-25.79 0-14.24-57.2-14.24-57.2 0z"/>
	<path class="s2" d="m80.12 88.3c14.96-0.83 26.81-12.03 26.81-25.73 0-6.82-13.13-10.38-26.81-10.66-13.68 0.29-26.82 3.84-26.82 10.66 0 13.7 11.85 24.9 26.82 25.73z"/>
	<path class="s4" d="m74.5 61.3c0 0-0.85 3.16 1.21 4.67 2.06 1.51 4.47 0.67 5.34-0.35 0.88-1.03-1.59-3.98-3.46-4.54-1.87-0.55-3.09 0.22-3.09 0.22z"/>
	<path class="s4" d="m74.6 61.27c0 0 0.48 2.98-1.42 4.21-1.9 1.23-3.4-0.2-4.08-1.21-0.67-1.02 1.2-3.09 2.86-3.45 1.65-0.36 2.64 0.45 2.64 0.45z"/>
	<path class="s5" d="m76.49 60.36c-0.14-0.65-1.7-1.08-2.35-0.67-0.9-0.51-2.27-0.24-2.12 0.44 0.14 0.69 2.47 1.25 2.47 1.25 0 0 2.14-0.37 2-1.02z"/>
	<path class="s6" d="m94.21 56.68c0 0-3.95-2.37-8.66 0.04"/>
	<path class="s6" d="m60.96 55.17c0 0 1.57-2.12 6.04 0.71"/>
	<path class="s7" d="m91.4 61.7c0 0 10.56 0.37 14.51 2.68"/>
	<path class="s7" d="m90.01 64.7c0 0 10.66 1.75 14.33 5.2"/>
	<path class="s7" d="m63.3 60.43c0 0-10.55-0.59-14.69 1.36"/>
	<path class="s7" d="m64.42 63.55c0 0-10.78 0.77-14.75 3.88"/>
	<path class="s1" d="m76.07 121.41c-2.14 2.09-3.33 4.97-3.44 7.95-0.54 13.72-2.56 61.94-4.39 70.71-2.15 10.25 10.72 10.01 12.15 9.54 1.43-0.48 10.49-40.75 10.73-42.42 1.67 2.86 8.34-10.96 0.23-35.75-5.26-16.11-11.54-13.69-15.28-10.03z"/>
	<path class="s2" d="m76.07 121.41c-2.14 2.09-3.33 4.97-3.44 7.95-0.54 13.72-2.56 61.94-4.39 70.71-2.15 10.25 10.72 10.01 12.15 9.54 1.43-0.48 10.49-40.75 10.73-42.42 1.67 2.86 8.34-10.96 0.23-35.75-5.26-16.11-11.54-13.69-15.28-10.03z"/>
	<path class="s1" d="m121.86 136.21c0 0-17.4 0.95-21.93 10.24-4.52 9.3-8.81 22.41-4.52 21.69-3.1 11.92-2.39 33.13 1.19 38.85 3.57 5.71 40.75 4.52 50.52-1.44 9.77-5.95 20.01-66.24-25.26-69.34z"/>
	<path class="s2" d="m109.32 143.28c-3.47-1.54-7.67-0.28-9.36 3.11q-0.01 0.04-0.03 0.06c-4.52 9.3-8.82 22.41-4.52 21.69-3.1 11.92-2.39 33.13 1.19 38.85 0.83 1.33 3.52 2.29 7.25 2.9 7.09-0.81 13.41-2.19 16.66-4.07 8.59-4.97 17.55-49.79-11.19-62.54z"/>
	<path class="s2" d="m121.86 136.21c0 0-0.76 0.04-1.98 0.19 42.84 4.8 32.76 63.29 23.15 69.16-5.12 3.12-17.75 4.93-29.14 5.12 12.29 0.23 27.49-1.62 33.23-5.12 9.77-5.96 20.01-66.25-25.26-69.35z"/>
	<path class="s1" d="m113.61 219.91c-14.6 0-28.51-2.24-39.29-6.42-5.79-2.25-11.13-4.48-15.84-6.46-16.13-6.76-25.62-10.48-30.69-7.53-4.45 2.61-10.23 2.02-13.26-2.17-3.2-4.42-2.05-10.57 2.46-13.55 13.72-9.05 29.22-2.56 48.85 5.67 4.83 2.02 9.82 4.11 15.38 6.26 20.18 7.83 48.02 5.2 59.48 1.91 3.07-0.88 4.69-4.28 3.34-7.18q-0.02-0.04-0.02-0.04c-2.55-4.61-0.89-10.41 3.72-12.96 4.6-2.55 10.4-0.89 12.96 3.71 2.79 5.05 5.88 16.19-0.29 25.93-2.94 4.65-11.57 10.58-35.96 12.42q-5.46 0.41-10.84 0.41z"/>
	<path class="s2" d="m55.97 201.47c4.75 1.41 10.13 3 15.95 4.56 9.51 2.54 21.43-3.14 11.22-9.61q-0.97-0.34-1.92-0.71c-5.56-2.15-10.55-4.24-15.38-6.27-19.63-8.22-35.13-14.71-48.85-5.66-3.15 2.08-4.66 5.72-4.19 9.24q0.42 1.15 1.17 2.21c2.34 3.22 6.4 4.2 10.11 3.14q0.79-0.4 1.51-0.94c4.57-3.38 14.12-0.78 30.38 4.04z"/>
	<path class="s2" d="m160.7 181.15c-2.24-4.03-6.96-5.8-11.19-4.47 2.27 0.7 4.28 2.23 5.52 4.47 2.8 5.05 5.89 16.19-0.28 25.93-2.95 4.65-11.58 10.58-35.97 12.42q-4.27 0.31-8.51 0.36 1.66 0.05 3.34 0.05 5.38 0 10.84-0.41c24.39-1.84 33.02-7.77 35.96-12.42 6.17-9.74 3.09-20.88 0.29-25.93z"/>
	<path class="s1" d="m89.96 115.95q-0.29-0.45-0.5-0.88c0.89 1.06 1.84 1.65 2.32 1.34 0.48-0.31 0.32-1.42-0.3-2.67q0.32 0.38 0.61 0.82c1.03 1.57 1.39 3.16 0.8 3.54-0.59 0.39-1.9-0.58-2.93-2.15z"/>
	<path class="s2" d="m103.82 111.12q-0.29-0.45-0.51-0.88c0.9 1.07 1.85 1.65 2.32 1.34 0.48-0.31 0.33-1.42-0.3-2.66q0.32 0.37 0.61 0.81c1.03 1.57 1.39 3.16 0.8 3.55-0.58 0.38-1.89-0.58-2.92-2.16z"/>
	<path class="s1" d="m99.62 126.65q-0.29-0.44-0.5-0.88c0.89 1.07 1.84 1.65 2.31 1.34 0.48-0.31 0.33-1.42-0.29-2.66q0.31 0.37 0.61 0.81c1.02 1.58 1.38 3.16 0.79 3.55-0.58 0.38-1.89-0.58-2.92-2.16z"/>
</svg>