<svg version="1.2" xmlns="http://www.w3.org/2000/svg" viewBox="0 0 265 302" width="265" height="302">
	<style>
		.s0 { fill: #bfcad6 } 
		.s1 { fill: #231b36 } 
		.s2 { opacity: .39;fill: #231b36 } 
		.s3 { opacity: .5;fill: #231b36 } 
		.s4 { fill: #632b52 } 
		.s5 { fill: #ffeaff } 
		.s6 { fill: #955c7f } 
		.s7 { fill: #413857 } 
		.s8 { fill: none;stroke: #0f0c1c;stroke-linecap: round;stroke-miterlimit:10;stroke-width: 1.7 } 
		.s9 { fill: none;stroke: #0f0c1c;stroke-linecap: round;stroke-miterlimit:10;stroke-width: .8 } 
	</style>
	<path fill-rule="evenodd" class="s0" d="m96.61 238.56c-36.18 0-65.42-3.89-65.42-8.7 0-4.82 29.24-8.7 65.42-8.7 36.18 0 65.42 3.88 65.42 8.7 0 4.81-29.24 8.7-65.42 8.7z"/>
	<path class="s1" d="m167.67 203.99c-2.76 0-5.54-0.49-8.26-1.48-17.67-6.5-23.5-29.44-24.1-32.03-1.5-6.4 2.48-12.81 8.88-14.3 6.39-1.5 12.78 2.46 14.29 8.84 1.29 5.29 5.28 13.72 9.14 15.14q0.01 0 0.02 0.01c0.28-0.13 1.11-0.7 1.96-2.22 2.31-4.15 2.45-10.75 0.37-17.66-5.5-18.29-3.71-40.03 4.56-55.38 5.98-11.08 14.97-18.68 26.02-21.97 29.79-8.87 41.42 4.31 43.45 7.04 3.93 5.27 2.83 12.73-2.44 16.65-4.98 3.71-11.9 2.94-15.96-1.59-0.78-0.49-5.62-3.04-18.26 0.72-4.91 1.47-8.9 4.98-11.85 10.45-5.34 9.91-6.43 24.86-2.72 37.21 5.2 17.26 2.08 33.96-8.14 43.59-4.86 4.58-10.85 6.98-16.96 6.98zm57.26-99.76q0 0 0 0.01 0-0.01 0-0.01zm-0.02-0.02q0.01 0 0.01 0.01 0-0.01-0.01-0.01zm-0.01-0.02q0 0.01 0.01 0.01-0.01 0-0.01-0.01z"/>
	<path class="s1" d="m167.67 203.99c-2.76 0-5.54-0.49-8.26-1.48-17.67-6.5-23.5-29.44-24.1-32.03-1.5-6.4 2.48-12.81 8.88-14.3 6.39-1.5 12.78 2.46 14.29 8.84 1.29 5.29 5.28 13.72 9.14 15.14q0.01 0 0.02 0.01c0.28-0.13 1.11-0.7 1.96-2.22 2.31-4.15 2.45-10.75 0.37-17.66-5.5-18.29-3.71-40.03 4.56-55.38 5.98-11.08 14.97-18.68 26.02-21.97 29.79-8.87 41.42 4.31 43.45 7.04 3.93 5.27 2.83 12.73-2.44 16.65-4.98 3.71-11.9 2.94-15.96-1.59-0.78-0.49-5.62-3.04-18.26 0.72-4.91 1.47-8.9 4.98-11.85 10.45-5.34 9.91-6.43 24.86-2.72 37.21 5.2 17.26 2.08 33.96-8.14 43.59-4.86 4.58-10.85 6.98-16.96 6.98zm57.26-99.76q0 0 0 0.01 0-0.01 0-0.01zm-0.02-0.02q0.01 0 0.01 0.01 0-0.01-0.01-0.01zm-0.01-0.02q0 0.01 0.01 0.01-0.01 0-0.01-0.01z"/>
	<path class="s1" d="m53.93 220.05c0 0-6.68 1.53-7.52 5.57-0.84 4.05 4.39 5.13 8.74 3.46 4.34-1.68 5.48-8.98 5.35-10.31-0.12-1.41-6.57 1.28-6.57 1.28z"/>
	<path class="s2" d="m53.93 220.05c0 0-6.68 1.53-7.52 5.57-0.84 4.05 4.39 5.13 8.74 3.46 4.34-1.68 5.48-8.98 5.35-10.31-0.12-1.41-6.57 1.28-6.57 1.28z"/>
	<path class="s1" d="m62.82 165.95c2.24 5.59 1.49 17.36-1.82 14.06 1.16 6.61 2.31 41.17-3.31 47.29-5.62 6.11-7.11-19.51-15.05-33.24-7.93-13.72-7.44-43.32-4.46-50.43 2.98-7.11 17.2 3.8 24.64 22.32z"/>
	<path class="s2" d="m62.82 165.95c2.24 5.59 1.49 17.36-1.82 14.06 1.16 6.61 2.31 41.17-3.31 47.29-5.62 6.11-7.11-19.51-15.05-33.24-7.93-13.72-7.44-43.32-4.46-50.43 2.98-7.11 17.2 3.8 24.64 22.32z"/>
	<path class="s1" d="m93.4 164.81c-5.65 6.48-12.63 15.53-7.76 15.76-1 16.15 12.6 35.6 20.96 40.04 8.36 4.44 24.32-0.76 31.67-15.17 7.34-14.41 1.34-38.5-5.76-44.55q-1.6-1.37-3.67-2.56c-11.7-6.68-26.58-3.67-35.44 6.48z"/>
	<path class="s1" d="m114.01 215.33q-2.09 0.31-4.2 0.5c-5.5 0.5-19.25 1.86-21.58 3.08-2.93 1.52-2.36 7.14 9.66 7.12 12.03-0.03 26.17-2.1 30.43-6.66 4.13-4.41 5.05-6.97-14.31-4.04z"/>
	<path class="s3" d="m128.32 219.37c2.76-2.95 4.08-5.07-1.13-5.28-2.59 0.09-6.25 0.47-11.29 1.24q-2.09 0.31-4.2 0.5c-5.5 0.5-19.24 1.86-21.58 3.08-2.88 1.5-2.35 6.94 9.07 7.1 11.72-0.16 25.02-2.24 29.13-6.64z"/>
	<path class="s1" d="m80.68 100.47c0 0-2.65 27.45 8.59 30.43 11.25 2.97 22.49-8.27 27.12-7.61 4.63 0.66-0.33 3.97-0.33 3.97 0 0 23.48 0.66 33.07 10.91 9.59 10.25-3.64 2.65-3.64 2.65 0 0 19.51 22.49 10.91 49.27-8.59 26.79-29.76 36.05-66.8 24.8-37.03-11.24-32.07-22.48-32.07-22.48 0 0-5.96 1.98-7.28-6.95-1.98 3.31-20.5-16.53-7.94-63.82 12.57-47.29 38.37-21.17 38.37-21.17z"/>
	<path class="s3" d="m145.49 140.82c0 0 13.23 7.6 3.64-2.65-4.71-5.03-12.76-7.75-19.73-9.21 6.67 6.96 19.31 23.28 16.42 44.93-3.88 29.12-23.92 42.56-64.07 37.86q-1.12-0.14-2.19-0.28c2.95 1.13 6.27 2.28 10.04 3.42 37.04 11.25 58.21 1.99 66.8-24.8 8.6-26.78-10.91-49.27-10.91-49.27z"/>
	<path class="s2" d="m41.37 125.43q-0.25 1.04-0.47 2.06c0.66-0.67 1.17-1.5 0.47-2.06z"/>
	<path class="s2" d="m76.99 186.87c7.98-24.84-10.12-45.7-10.12-45.7 0 0 12.27 7.05 3.38-2.46-7.72-8.25-25.13-9.8-29.6-10.07-9.04 42.23 7.72 59.96 9.6 56.82 1.32 8.93 7.28 6.94 7.28 6.94 0 0-2.41 5.49 8.76 12.63 4.72-4.47 8.26-10.55 10.7-18.16z"/>
	<path class="s3" d="m80.68 100.47c0 0-25.8-26.12-38.37 21.17q-0.64 2.42-1.17 4.75c5.07 3.28 11.12 5.39 17.72 5.85 9.23 0.65 17.86-2.07 24.49-7.01-4.2-8.92-2.67-24.76-2.67-24.76z"/>
	<path class="s1" d="m67.46 62.66c1.92-1.72 14.43 18.83 13.14 34.55-1.29 15.71-28.38-4.31-28.38-4.31 0 0 2.32-18.63 15.24-30.24z"/>
	<path class="s3" d="m67.46 62.66c1.92-1.72 14.43 18.83 13.14 34.55-1.29 15.71-28.38-4.31-28.38-4.31 0 0 2.32-18.63 15.24-30.24z"/>
	<path class="s4" d="m67.62 69.22c1.62-1.45 12.17 15.87 11.08 29.12-1.09 13.24-23.92-3.64-23.92-3.64 0 0 1.95-15.7 12.84-25.48z"/>
	<path class="s1" d="m48.07 81.37c0 0-11.98-15.53-14.05-17-2.07-1.47-6.67 21.19-4.73 28.61 1.94 7.42 18.78-11.61 18.78-11.61z"/>
	<path class="s4" d="m47.19 83.43c0 0-9.8-12.71-11.5-13.92-1.69-1.21-5.46 17.35-3.87 23.42 1.59 6.08 15.37-9.5 15.37-9.5z"/>
	<path fill-rule="evenodd" class="s1" d="m53.39 128.91c-16.36 0-29.59-11.75-29.59-26.29 0-14.54 13.23-26.29 29.59-26.29 16.37 0 29.6 11.75 29.6 26.29 0 14.54-13.23 26.29-29.6 26.29z"/>
	<path class="s2" d="m38.81 79.75c-8.97 4.52-15.01 13.06-15.01 22.87 0 9.81 6.04 18.36 15.01 22.87 8.96-4.51 15.01-13.06 15.01-22.87-0.01-9.81-6.05-18.35-15.01-22.87z"/>
	<path class="s1" d="m20.37 99.11c0 17.85 15.72 32.33 35.11 32.33 19.4 0 35.12-14.48 35.12-32.33 0-17.86-70.23-17.86-70.23 0z"/>
	<path class="s3" d="m72.58 87.24c7.81 2.38 13.14 6.11 13.14 11.2 0 15.09-10.5 27.92-25.14 32.65 16.98-2.27 30.02-15.72 30.02-31.98 0-5.92-7.71-9.87-18.02-11.87z"/>
	<path class="s2" d="m46.06 86.15c-13.91 1.33-25.69 5.64-25.69 12.96 0 13.17 8.56 24.49 20.83 29.53 10.69-6.73 17.7-18.02 17.7-30.84 0-5.19-5.15-9.07-12.84-11.65z"/>
	<path class="s3" d="m85.94 168.38c-0.15-6.27-7.39-10.03-12.37-6.21-3.74 2.86-7.15 8.56-8.04 19.63-0.72 9.02-0.78 16.39-0.46 22.42 3.53 2.44 8.64 5.1 15.99 7.81 0.48-8.94 1.2-18.91 1.88-26.09 2.3 3.23 3.21-8.41 3-17.56z"/>
	<path class="s1" d="m124.38 222.03q-2.19 0.32-4.39 0.52c-5.73 0.52-20.07 1.94-22.5 3.21-3.06 1.59-2.47 7.46 10.07 7.43 12.54-0.03 27.3-2.19 31.74-6.94 4.31-4.61 5.26-7.28-14.92-4.22z"/>
	<path class="s3" d="m131.69 221.07c2.47 0.75 1.13 2.68-1.2 5.18-3.8 4.06-15.11 6.22-26.14 6.78 0.98 0.1 2.03 0.16 3.22 0.16 12.54-0.03 27.29-2.19 31.73-6.94 3.7-3.96 4.91-6.49-7.61-5.18z"/>
	<path class="s4" d="m43.22 98.64c0 9.98 4.39 19.48 9.81 19.48 5.41 0 9.8-9.5 9.8-19.48 0-8.26-19.61-8.19-19.61 0z"/>
	<path class="s5" d="m58.14 98.29c-0.17 1.5-0.3 2.7 0.28 2.77 0.57 0.06 1.63-2.03 1.79-3.52 0.17-1.49-0.62-1.82-1.2-1.89-0.57-0.06-0.71 1.15-0.87 2.64z"/>
	<path class="s5" d="m47.92 98.29c0.16 1.5 0.29 2.7-0.29 2.77-0.57 0.06-1.62-2.03-1.79-3.52-0.16-1.49 0.62-1.82 1.2-1.89 0.57-0.06 0.71 1.15 0.88 2.64z"/>
	<path class="s6" d="m58.94 110.67c0.79 0.35 1.09 1.32 0.68 2.08-1.74 3.26-4.05 5.36-6.6 5.36-2.54 0-4.84-2.09-6.58-5.34-0.41-0.77-0.12-1.74 0.68-2.09 3.43-1.51 8.39-1.52 11.82-0.01z"/>
	<path class="s7" d="m66.07 94.24c0 0-0.35 0.55-0.97 1.25-0.62 0.71-1.52 1.57-2.63 2.19-1.11 0.62-2.43 1-3.89 0.74-1.46-0.26-3.07-1.15-4.76-3.08-1.69-1.93-1.76-2.96-0.93-3.42 0.83-0.47 2.57-0.36 4.52-0.02 1.96 0.34 4.12 0.93 5.8 1.43 1.67 0.49 2.86 0.91 2.86 0.91z"/>
	<path class="s7" d="m39.99 94.24c0 0 0.34 0.55 0.96 1.25 0.62 0.71 1.52 1.57 2.63 2.19 1.11 0.62 2.43 1 3.9 0.74 1.46-0.26 3.07-1.15 4.75-3.08 1.69-1.93 1.77-2.96 0.94-3.42-0.84-0.47-2.58-0.36-4.53-0.02-1.95 0.34-4.12 0.93-5.79 1.43-1.68 0.49-2.86 0.91-2.86 0.91z"/>
	<path class="s6" d="m55.52 91.52c0-1.22-1.66-1.29-2.49-0.45-0.89-0.89-2.5-0.87-2.5 0.41 0 1.27 2.5 2.14 2.5 2.14 0 0 2.49-0.88 2.49-2.1z"/>
	<path class="s8" d="m58.43 89.48c0 0 5.23-4.82 9.49-1.17"/>
	<path class="s8" d="m47.63 89.48c-0.01 0-5.23-4.82-9.5-1.17"/>
	<path fill-rule="evenodd" class="s9" d="m37.96 96.3l-23.95 11.49"/>
	<path fill-rule="evenodd" class="s9" d="m35.69 100.22l-17.96 10.33"/>
	<path fill-rule="evenodd" class="s9" d="m68.1 96.3l23.94 11.49"/>
	<path fill-rule="evenodd" class="s9" d="m70.37 100.22l17.96 10.33"/>
	<path class="s1" d="m86.31 168.39c-0.21 9.15-1.67 20.74-3.81 17.4-1.99 13.89-4.63 38.36-4.47 45.31 0.17 6.94-9.59 0.82-11.24-4.96-1.66-5.79-4.96-18.19-1.49-45.31 1.41-11.01 5.08-16.55 8.95-19.23 5.16-3.58 12.21 0.52 12.06 6.79z"/>
	<path class="s2" d="m74.49 161.46q-0.12 0.07-0.24 0.14c-3.87 2.68-7.54 8.21-8.95 19.23-3.47 27.12-0.17 39.52 1.49 45.31 0.5 1.74 1.73 3.52 3.21 4.96-0.16-6.95 2.48-31.42 4.47-45.31 2.14 3.34 3.6-8.25 3.81-17.4 0.07-3.03-1.54-5.53-3.79-6.93z"/>
	<path class="s1" d="m73.9 224.81c0 0 6.77 1 7.93 4.96 1.16 3.97-3.97 5.46-8.43 4.14-4.46-1.32-6.45-8.02-6.94-9.34-0.5-1.33 7.44 0.24 7.44 0.24z"/>
	<path class="s1" d="m73.9 224.81c0 0 6.77 1 7.93 4.96 1.16 3.97-3.97 5.46-8.43 4.14-4.46-1.32-6.45-8.02-6.94-9.34-0.5-1.33 7.44 0.24 7.44 0.24z"/>
	<path class="s2" d="m69.56 224.15c-1.76-0.19-3.33-0.2-3.1 0.42 0.49 1.32 2.48 8.02 6.94 9.34q0.5 0.14 1.01 0.24c0.83-0.98 1.21-2.39 0.82-4.22-0.71-3.33-3.7-5.01-5.67-5.78z"/>
	<path class="s1" d="m102.88 169.34c-5.89 6.75-13.18 16.2-8.1 16.44-1.04 16.83 13.15 37.12 21.87 41.75 8.72 4.64 25.36-0.78 33.03-15.82 7.66-15.03 1.4-40.15-6-46.46q-1.68-1.43-3.84-2.67c-12.2-6.97-27.72-3.83-36.96 6.76z"/>
	<path class="s3" d="m143.68 165.25q-1.68-1.43-3.84-2.67-2.41-1.36-4.96-2.21 2.16 1.26 3.85 2.69c7.94 6.77 14.65 33.72 6.44 49.84-3.62 7.09-9.09 12.18-14.89 15.24 7.28-2.1 14.89-7.59 19.39-16.42 7.67-15.04 1.4-40.16-5.99-46.47z"/>
	<path class="s2" d="m102.88 169.34c-5.89 6.75-13.18 16.2-8.1 16.44-0.33 5.39 0.9 11.13 3 16.6 2.04 5.27 8.69 6.75 12.73 2.8 2.47-2.41 4.68-5.32 6.42-8.74 4.65-9.11 4.17-21.94 1.42-32.03-0.64-2.39-3.31-3.65-5.54-2.59-3.71 1.77-7.12 4.29-9.93 7.52z"/>
	<path class="s2" d="m97.71 145.42q-0.65-0.22-1.27-0.35c1.63 0.78 2.68 1.78 2.44 2.48-0.24 0.7-1.68 0.87-3.44 0.49q0.57 0.28 1.22 0.5c2.31 0.79 4.42 0.72 4.71-0.14 0.29-0.87-1.34-2.2-3.66-2.98z"/>
	<path class="s3" d="m122.27 138.7q-0.65-0.22-1.27-0.34c1.63 0.77 2.67 1.78 2.44 2.47-0.24 0.7-1.68 0.87-3.45 0.5q0.57 0.27 1.23 0.5c2.31 0.78 4.42 0.71 4.71-0.15 0.29-0.86-1.34-2.2-3.66-2.98z"/>
	<path class="s3" d="m132.88 150.42q-0.56-0.39-1.12-0.69c1.34 1.21 2.05 2.47 1.62 3.07-0.43 0.61-1.86 0.35-3.44-0.52q0.47 0.43 1.03 0.83c1.98 1.42 4.02 1.97 4.55 1.22 0.53-0.74-0.65-2.49-2.64-3.91z"/>
	<path class="s2" d="m91.15 159.55q-0.42-0.55-0.85-1.01c0.9 1.57 1.18 2.99 0.59 3.43-0.6 0.44-1.87-0.25-3.11-1.56q0.31 0.55 0.72 1.11c1.45 1.96 3.23 3.1 3.96 2.56 0.73-0.54 0.14-2.57-1.31-4.53z"/>
</svg>