<svg version="1.2" xmlns="http://www.w3.org/2000/svg" viewBox="0 0 185 254" width="185" height="254">
	<style>
		.s0 { fill: #bfcad6 } 
		.s1 { fill: #231b36 } 
		.s2 { opacity: .5;fill: #231b36 } 
		.s3 { fill: #632b52 } 
		.s4 { fill: #f29a0c } 
		.s5 { opacity: .5;fill: #f29a0c } 
		.s6 { fill: #413857 } 
		.s7 { opacity: .5;fill: #413857 } 
		.s8 { fill: #955c7f } 
		.s9 { opacity: .5;fill: #955c7f } 
		.s10 { fill: none;stroke: #0f0c1c;stroke-linecap: round;stroke-miterlimit:10;stroke-width: .9 } 
		.s11 { fill: #ffeaff } 
	</style>
	<path fill-rule="evenodd" class="s0" d="m92.25 182.56c-44.65 0-80.73-3.89-80.73-8.7 0-4.82 36.08-8.7 80.73-8.7 44.65 0 80.74 3.88 80.74 8.7 0 4.81-36.09 8.7-80.74 8.7z"/>
	<path class="s1" d="m66.96 98.61c0 0 22.34-25.87 18.22-13.82 14.99-10.58 28.22-14.7 22.34-6.76 17.64-5.88 37.63-6.17 28.52-0.59 14.99 0.29 25.86 11.17 17.63 8.82 7.06 9.7 16.76 49.38 1.77 67.02-14.99 17.64-116.7 14.7-125.52-0.29-8.82-14.99-10.88-44.68-1.47-52.33 9.41-7.64 38.51-2.05 38.51-2.05z"/>
	<path class="s2" d="m85.29 84.72l-0.11 0.07c4.12-12.05-18.22 13.82-18.22 13.82 0 0-29.1-5.59-38.51 2.05-9.41 7.65-7.35 37.34 1.47 52.33 1.68 2.86 6.75 5.28 13.95 7.2 21.56-0.58 41.94-5.2 51.75-16.35 11.31-12.87 8.77-38.07 3.83-54.24-1.83-6-9.03-8.5-14.16-4.88z"/>
	<path class="s1" d="m22.43 102.57c0 0 10.43-27.63 13.52-30.71 3.08-3.09 12.05 11.75 15.13 19.1 3.09 7.35-28.65 11.61-28.65 11.61z"/>
	<path class="s2" d="m22.43 102.57c0 0 10.43-27.63 13.52-30.71 3.08-3.09 12.05 11.75 15.13 19.1 3.09 7.35-28.65 11.61-28.65 11.61z"/>
	<path class="s3" d="m27.04 101.11c0 0 7.78-20.62 10.09-22.92 2.3-2.31 9 8.77 11.3 14.26 2.3 5.48-21.39 8.66-21.39 8.66z"/>
	<path class="s1" d="m46.2 96.66c0 0 17.97-21.61 21.71-23.43 3.73-1.82 7.18 14.32 7.68 21.89 0.49 7.57-29.39 1.54-29.39 1.54z"/>
	<path class="s2" d="m47.77 96.66c0 0 17.42-20.95 21.52-23.32q-0.68-0.44-1.38-0.11c-3.74 1.82-21.71 23.43-21.71 23.43 0 0 11.89 2.4 20.55 2.27-8.46-0.15-18.98-2.27-18.98-2.27z"/>
	<path class="s3" d="m50.8 96.78c0 0 13.42-16.13 16.2-17.49 2.79-1.36 5.37 10.69 5.74 16.34 0.37 5.65-21.94 1.15-21.94 1.15z"/>
	<path class="s2" d="m153.67 86.26c8.23 2.35-2.64-8.52-17.63-8.82 7.11-4.36-3.51-5.13-16.9-2.47q-0.15 0.1-0.32 0.21c15.8 0.31 27.27 11.77 18.59 9.29 7.44 10.23 17.66 52.05 1.86 70.64-3.59 4.22-11.89 7.32-22.69 9.41 18.33-1.55 33.71-5.18 38.86-11.24 14.99-17.64 5.29-57.32-1.77-67.02z"/>
	<path class="s2" d="m152.61 143.11l-3.25-0.41 0.02-0.16c-0.05 0.32-1.39 7.82-10.1 12.93-9.49 5.57-80.36 9.59-106.72-6.12q-0.03-0.02-0.05-0.03c-1.9-1.11-4.03 1.12-2.95 3.03q0.18 0.32 0.36 0.64c8.82 14.99 110.53 17.93 125.52 0.29 1.65-1.95 2.99-4.18 4.08-6.6-1.7-1.87-4.06-3.2-6.91-3.57z"/>
	<path class="s1" d="m90.11 179.77c-24.76 0-51-3.28-66.29-11.69-4.18-2.3-6.22-7.31-4.38-11.71 2.16-5.18 8.25-7.17 12.99-4.5 26.73 15.07 97.48 9.35 106.84 3.56 8.58-5.32 9.74-12.86 9.78-13.18l-0.02 0.17 3.26 0.33c8.84 0.91 13.25 11.13 7.86 18.2-2.65 3.47-6.27 7.01-11.23 10.07-8.24 5.11-32.71 8.75-58.81 8.75z"/>
	<path class="s2" d="m126.06 158.9c-24.15 3.81-72.56 4.85-93.63-7.03-4.74-2.66-10.83-0.67-12.99 4.5q-0.01 0.02-0.02 0.05c-0.93 2.26 0.52 4.82 2.9 5.39 13.98 3.33 30.81 4.74 47.01 4.74 24.18 0 46.95-3.13 56.73-7.65z"/>
	<path class="s2" d="m152.29 142.75l-3.26-0.33 0.02-0.16c-0.03 0.24-0.76 4.85-5.1 9.39 0.67 3.07 0.12 6.44-2.06 9.3-2.65 3.47-6.27 7.01-11.23 10.07-7.27 4.51-27.15 7.87-49.64 8.6q4.56 0.15 9.09 0.15c26.1 0 50.57-3.64 58.81-8.75 4.96-3.06 8.58-6.6 11.23-10.07 5.39-7.06 0.98-17.29-7.86-18.2z"/>
	<path fill-rule="evenodd" class="s1" d="m51.36 135.04c-17.22 0-31.14-10.7-31.14-23.94 0-13.24 13.92-23.94 31.14-23.94 17.22 0 31.14 10.7 31.14 23.94 0 13.24-13.92 23.94-31.14 23.94z"/>
	<path class="s2" d="m47.69 87.33c-15.47 1.4-27.47 11.5-27.47 23.77 0 12.27 12 22.37 27.47 23.77 15.46-1.4 27.47-11.5 27.47-23.77-0.01-12.27-12.01-22.37-27.47-23.77z"/>
	<path class="s1" d="m21.5 108.46c0 15.59 15.04 28.23 33.6 28.23 18.56 0 33.61-12.64 33.61-28.23 0-15.59-67.22-15.59-67.22 0z"/>
	<path class="s2" d="m51.53 136.53c16.89-1.5 30.04-13.49 30.04-28.07 0-7.24-14.5-11.12-30.04-11.63-15.53 0.51-30.03 4.39-30.03 11.63 0 14.58 13.15 26.57 30.03 28.07z"/>
	<path class="s1" d="m62.45 113.93c-0.8-1.16-2.77-1.45-4.56-1.36q0 0 0 0 0 0 0 0c-0.93 0.05-1.8 0.2-2.43 0.38q0 0 0 0-0.21 0.07-0.38 0.13-0.03 0.01-0.06 0.02-0.13 0.06-0.23 0.11-0.04 0.02-0.09 0.04-0.02 0.02-0.04 0.04c-1.12-0.72-6.48-1.46-7.74 0.63-1.43 2.36 2.73 8.6 5.43 5.35 1.55-1.87 2.14-3.46 2.37-4.49q0.08 0.28 0.22 0.62c0.4 1.01 1.13 2.34 2.52 3.87q0.3 0.32 0.6 0.52 0.02 0.01 0.03 0.01c2.82 1.86 5.86-3.68 4.36-5.87z"/>
	<path fill-rule="evenodd" class="s4" d="m66.07 113.55c-3.92 0-7.08-3.17-7.08-7.09 0-3.91 3.16-7.08 7.08-7.08 3.92 0 7.09 3.17 7.09 7.08 0 3.92-3.17 7.09-7.09 7.09z"/>
	<path class="s5" d="m64.81 99.5c-3.31 0.59-5.82 3.48-5.82 6.97 0 3.48 2.51 6.37 5.82 6.96 3.31-0.6 5.83-3.48 5.83-6.96 0-3.49-2.52-6.38-5.83-6.97z"/>
	<path class="s1" d="m65.14 106.46c0 2.85 0.93 5.15 0.93 5.15 0 0 0.93-2.31 0.93-5.15 0-2.84-0.93-5.14-0.93-5.14 0 0-0.93 2.3-0.93 5.14z"/>
	<path fill-rule="evenodd" class="s4" d="m42.13 113.55c-3.92 0-7.09-3.17-7.09-7.09 0-3.91 3.17-7.08 7.09-7.08 3.92 0 7.08 3.17 7.08 7.08 0 3.92-3.16 7.09-7.08 7.09z"/>
	<path class="s5" d="m40.87 99.5c-3.31 0.59-5.82 3.48-5.82 6.97 0 3.48 2.51 6.37 5.82 6.96 3.31-0.6 5.82-3.48 5.82-6.96 0-3.49-2.51-6.38-5.82-6.97z"/>
	<path class="s1" d="m41.2 106.46c0 2.85 0.93 5.15 0.93 5.15 0 0 0.92-2.31 0.92-5.15 0-2.84-0.92-5.14-0.92-5.14 0 0-0.93 2.3-0.93 5.14z"/>
	<path class="s6" d="m53.89 113.5c0 0-0.07 2.34 2.77 5.42 2.83 3.08 6.73-2.84 5.2-5.07-1.52-2.23-8.07-1.06-7.97-0.35z"/>
	<path class="s7" d="m57.84 119.69c2.16-0.59 3.96-4.2 2.84-5.84-0.58-0.85-1.91-1.21-3.31-1.28-1.86 0.09-3.53 0.57-3.48 0.93 0 0-0.07 2.34 2.77 5.42q0.57 0.61 1.18 0.77z"/>
	<path class="s6" d="m54.31 113.5c0 0 0.07 2.34-2.77 5.42-2.83 3.08-6.73-2.84-5.2-5.07 1.52-2.23 8.07-1.06 7.97-0.35z"/>
	<path class="s6" d="m54.31 113.5c0 0 0.07 2.34-2.77 5.42-2.83 3.08-6.73-2.84-5.2-5.07 1.52-2.23 8.07-1.06 7.97-0.35z"/>
	<path class="s8" d="m56.81 112.44c0-1.56-1.81-2.42-2.71-1.35-0.96-1.14-2.71-0.34-2.71 1.3 0 1.63 2.71 2.74 2.71 2.74 0 0 2.71-1.13 2.71-2.69z"/>
	<path class="s9" d="m56.07 111.89q-0.01-0.66-0.34-1.13c-0.55-0.24-1.2-0.18-1.63 0.33-0.96-1.14-2.71-0.34-2.71 1.3 0 1.04 1.1 1.87 1.9 2.33 0.56-0.26 2.78-1.36 2.78-2.83z"/>
	<path fill-rule="evenodd" class="s10" d="m35.43 114.6l-23.59-13.98"/>
	<path fill-rule="evenodd" class="s10" d="m30.17 114.65l-18.97-8.77"/>
	<path fill-rule="evenodd" class="s10" d="m72.77 114.6l23.59-13.98"/>
	<path fill-rule="evenodd" class="s10" d="m78.03 114.65l18.97-8.77"/>
	<path class="s11" d="m40.75 103.71c0 0.62-0.5 1.12-1.12 1.12-0.62 0-1.12-0.5-1.12-1.12 0-0.61 0.5-1.11 1.12-1.11 0.62 0 1.12 0.5 1.12 1.11z"/>
	<path fill-rule="evenodd" class="s11" d="m63.64 104.83c-0.62 0-1.12-0.5-1.12-1.12 0-0.61 0.5-1.11 1.12-1.11 0.61 0 1.11 0.5 1.11 1.11 0 0.62-0.5 1.12-1.11 1.12z"/>
	<path class="s9" d="m52.92 111.93c0.08 0.33-0.05 0.65-0.31 0.71-0.25 0.06-0.52-0.16-0.6-0.49-0.09-0.33 0.05-0.65 0.31-0.71 0.25-0.06 0.52 0.16 0.6 0.49z"/>
	<path class="s1" d="m147.91 95.95q-0.45-0.28-0.84-0.58c1.27 0.57 2.38 0.69 2.68 0.2 0.29-0.48-0.32-1.41-1.42-2.27q0.44 0.2 0.9 0.47c1.61 0.98 2.62 2.26 2.25 2.86-0.37 0.6-1.97 0.29-3.57-0.68z"/>
	<path class="s1" d="m61.01 145.06q-0.45-0.28-0.83-0.58c1.26 0.58 2.37 0.7 2.67 0.21 0.29-0.49-0.32-1.42-1.42-2.27q0.44 0.2 0.9 0.47c1.61 0.98 2.62 2.25 2.25 2.85-0.36 0.6-1.96 0.3-3.57-0.68z"/>
	<path class="s1" d="m70.67 148.21q-0.46-0.28-0.84-0.58c1.27 0.58 2.38 0.7 2.67 0.21 0.3-0.49-0.32-1.42-1.41-2.27q0.44 0.19 0.9 0.47c1.61 0.97 2.61 2.25 2.25 2.85-0.37 0.6-1.97 0.3-3.57-0.68z"/>
	<path class="s1" d="m69.04 139.4q-0.45-0.28-0.83-0.58c1.26 0.58 2.37 0.69 2.67 0.21 0.29-0.49-0.32-1.42-1.42-2.28q0.45 0.2 0.9 0.48c1.61 0.97 2.62 2.25 2.25 2.85-0.36 0.6-1.96 0.29-3.57-0.68z"/>
	<path class="s1" d="m51.29 144.88q-0.29-0.45-0.5-0.88c0.89 1.06 1.84 1.65 2.32 1.34 0.47-0.31 0.32-1.42-0.3-2.67q0.31 0.37 0.61 0.82c1.02 1.57 1.38 3.16 0.79 3.54-0.58 0.39-1.89-0.58-2.92-2.15z"/>
	<path class="s1" d="m59.13 151.98q-0.28-0.44-0.5-0.88c0.89 1.07 1.85 1.65 2.32 1.34 0.48-0.31 0.32-1.42-0.3-2.66q0.32 0.37 0.61 0.81c1.03 1.58 1.39 3.16 0.8 3.55-0.58 0.38-1.9-0.58-2.93-2.16z"/>
	<path class="s2" d="m137.36 101.57q-0.4-0.35-0.74-0.7c1.17 0.76 2.25 1.04 2.61 0.6 0.37-0.43-0.1-1.44-1.06-2.46q0.41 0.27 0.82 0.61c1.44 1.2 2.25 2.62 1.8 3.16-0.45 0.53-1.99-0.01-3.43-1.21z"/>
	<path class="s2" d="m130.31 90.31q-0.48-0.24-0.88-0.51c1.31 0.47 2.42 0.5 2.67-0.01 0.26-0.51-0.43-1.39-1.6-2.15q0.46 0.16 0.94 0.4c1.68 0.84 2.79 2.03 2.48 2.65-0.31 0.63-1.93 0.46-3.61-0.38z"/>
	<path class="s1" d="m149.5 105.72q-0.37-0.38-0.66-0.77c1.08 0.88 2.13 1.26 2.54 0.87 0.4-0.4 0.04-1.46-0.81-2.56q0.38 0.31 0.75 0.68c1.32 1.35 1.98 2.84 1.47 3.33-0.5 0.49-1.97-0.2-3.29-1.55z"/>
</svg>