<svg version="1.2" xmlns="http://www.w3.org/2000/svg" viewBox="0 0 252 291" width="252" height="291">
	<style>
		.s0 { fill: #bfcad6 } 
		.s1 { fill: #231b36 } 
		.s2 { opacity: .5;fill: #231b36 } 
		.s3 { fill: #632b52 } 
		.s4 { opacity: .5;fill: #632b52 } 
		.s5 { opacity: .39;fill: #231b36 } 
		.s6 { fill: #413857 } 
		.s7 { opacity: .5;fill: #413857 } 
		.s8 { fill: #955c7f } 
		.s9 { opacity: .5;fill: #955c7f } 
		.s10 { fill: none;stroke: #0f0c1c;stroke-linecap: round;stroke-miterlimit:10;stroke-width: .7 } 
		.s11 { fill: #f29a0c } 
		.s12 { opacity: .5;fill: #f29a0c } 
	</style>
	<path fill-rule="evenodd" class="s0" d="m133.56 274.47c-36.18 0-65.43-3.89-65.43-8.7 0-4.81 29.25-8.7 65.43-8.7 36.18 0 65.42 3.89 65.42 8.7 0 4.81-29.24 8.7-65.42 8.7z"/>
	<path class="s1" d="m195.3 96.42c2.19-1.38 11.15 21.1 7.23 36.47-3.92 15.37-27.43-9.04-27.43-9.04 0 0 5.43-18.08 20.2-27.43z"/>
	<path class="s2" d="m195.3 96.42c2.19-1.38 11.15 21.1 7.23 36.47-3.92 15.37-27.43-9.04-27.43-9.04 0 0 5.43-18.08 20.2-27.43z"/>
	<path class="s3" d="m194.35 102.95c1.85-1.16 9.4 17.79 6.1 30.74-3.3 12.95-23.12-7.62-23.12-7.62 0 0 4.58-15.24 17.02-23.12z"/>
	<path class="s4" d="m194.35 102.95c1.85-1.16 9.4 17.79 6.1 30.74-3.3 12.95-23.12-7.62-23.12-7.62 0 0 4.58-15.24 17.02-23.12z"/>
	<path class="s1" d="m172.92 111.72c0 0-9.27-17.41-11.08-19.21-1.81-1.81-10.17 19.89-9.49 27.57 0.68 7.69 20.57-8.36 20.57-8.36z"/>
	<path class="s3" d="m171.71 113.61c0 0-7.59-14.25-9.07-15.73-1.48-1.48-8.33 16.29-7.77 22.58 0.55 6.29 16.84-6.85 16.84-6.85z"/>
	<path class="s1" d="m126.92 139.97c17.49 11.87 17.63 38.66 15.37 46.34-2.26 7.69-4.07-0.22-4.07-0.22 0 0-2.71 26.22-18.53 42.94-2.94 3.62 1.8 28.48 3.61 32.78 1.81 4.29-7.68 10.85-15.37-2.94-7.68-13.79-10.85-33.23-10.85-33.23 0 0-18.08-30.96-19.44-54.25-1.35-23.28 29.61-44.75 49.28-31.42z"/>
	<path class="s1" d="m121.04 268.7c-3.49 0.05-8.31-1.21-13.11-9.83 0 0 16.16-3.39 21.48 2.03 2.24 2.3 2.47 7.65-8.37 7.8z"/>
	<path class="s2" d="m126.92 139.97c-19.67-13.33-50.63 8.14-49.28 31.42 1.36 23.29 19.44 54.25 19.44 54.25 0 0 3.17 19.44 10.85 33.23q0.36 0.65 0.73 1.24c4.56 7.49 9.07 8.64 12.38 8.59 10.84-0.15 10.61-5.5 8.37-7.8-1.64-1.67-4.32-2.5-7.23-2.86-2.07-8.36-4.93-26-2.49-29.01 15.82-16.72 18.53-42.94 18.53-42.94 0 0 1.81 7.91 4.07 0.22 2.26-7.68 2.12-34.47-15.37-46.34z"/>
	<path class="s1" d="m187.52 186.09c2.03 6.33 2.26 18.76-0.91 16.27-1.58 9.49-14.92 29.39-16.95 32.32-2.03 2.94-4.3 27.36-4.52 32.55-0.23 5.2-9.04 2.26-12.21-11.98-3.16-14.24-1.81-23.73-1.81-23.73 0 0-2.94 1.35-2.48-1.81 0.45-3.16-3.17-33.68 15.82-46.56 18.99-12.89 23.06 2.94 23.06 2.94z"/>
	<path class="s1" d="m162.56 269.56c2.35 0.73 6.53 0.39 6.65-1.65 0.11-2.03-2.26-6.1-6.56-7.12-4.29-1.02-2.44 8.04-0.09 8.77z"/>
	<path class="s2" d="m164.46 183.15q-0.27 0.19-0.53 0.38c-16.24 13.73-12.97 41.69-13.4 44.71-0.46 3.16 2.48 1.81 2.48 1.81 0 0-1.35 9.49 1.81 23.73 2.16 9.73 6.95 14.17 9.85 14.37 1.32 0.35 3.13 0.4 4.49 0.02q0.04-0.12 0.05-0.26c0.08-1.52-1.23-4.19-3.7-5.86 0.76-9.02 2.53-25.02 4.15-27.37 2.03-2.94 15.37-22.83 16.95-32.32 0.74 0.58 1.29 0.34 1.68-0.43q0.13-0.54 0.21-1.04 0.07 0.05 0.13 0.09c0.83-3.29 0.29-10.54-1.11-14.9 0 0.01-4.07-15.82-23.06-2.93z"/>
	<path class="s1" d="m83.94 155.44c-5.32 0.22-9.89-3.81-10.3-9.15-1.07-13.86 0.17-24.69 1.37-35.15 1.46-12.77 2.73-23.79-0.25-39.23-4.75-24.61-27.82-34.4-28.05-34.49-5.06-2.09-7.47-7.89-5.38-12.95 2.09-5.06 7.88-7.47 12.95-5.38 1.35 0.56 33.2 14.08 39.95 49.07 3.55 18.42 1.99 32.05 0.48 45.23-1.14 9.98-2.22 19.41-1.3 31.38 0.42 5.46-3.66 10.22-9.12 10.64q-0.18 0.02-0.35 0.03z"/>
	<path class="s5" d="m89.61 68.16c-6.74-34.99-38.6-48.51-39.95-49.07q-0.73-0.29-1.48-0.47c-2.98 0.72-5.59 2.8-6.85 5.85-2.09 5.06 0.32 10.86 5.38 12.95 0.23 0.1 23.3 9.88 28.05 34.49 2.97 15.44 1.71 26.46 0.25 39.23-1.2 10.46-2.44 21.29-1.37 35.15 0.34 4.4 3.5 7.9 7.56 8.88 4.67-1.11 7.97-5.47 7.59-10.4-0.92-11.97 0.16-21.4 1.3-31.38 1.51-13.18 3.07-26.81-0.48-45.23z"/>
	<path class="s1" d="m68.41 165.14c-1.52-32.65 19.89-55.45 51.24-50.03 31.34 5.43 37.37 59.07 32.55 75.35-4.82 16.27-37.37 36.16-51.84 33.75-14.47-2.41-30.74-33.15-31.95-59.07z"/>
	<path class="s1" d="m68.41 165.14c-1.52-32.65 19.89-55.45 51.24-50.03 31.34 5.43 37.37 59.07 32.55 75.35-4.82 16.27-37.37 36.16-51.84 33.75-14.47-2.41-30.74-33.15-31.95-59.07z"/>
	<path class="s5" d="m124.07 190.46c4.54-15.34-0.55-63.82-27.36-73.92-18.28 6.18-29.41 24.76-28.3 48.6 0.97 20.86 11.7 44.83 23.4 54.65 14.07-6.48 29.11-18.68 32.26-29.33z"/>
	<path class="s1" d="m149.18 129.58c0 0-1.8 23.5-6.63 30.13-4.82 6.63-22.51 46.51-20.7 59.17 1.81 12.66 60.49 19.8 75.56-32.04 15.07-51.84 5.42-62.09-4.83-68.12-10.24-6.02-40.38-13.25-43.4 10.86z"/>
	<path class="s2" d="m134.02 186.26c1.88-7.79 0.41-34.53-17.65-45.51-18.72-11.38-45.52 7.26-47.65 28.4 2.57 24.98 17.91 52.77 31.64 55.06 5.16 0.86 12.63-1.12 20.32-4.77 8.34-15.88 9.27-33.2 9.27-33.2 0 0 2.2 7.81 4.07 0.02z"/>
	<path class="s2" d="m192.58 118.73c-1.36-0.81-3.09-1.63-5.05-2.4 6.27 8.9 8.39 26.11-3.43 66.77-8.49 29.19-29.65 41.24-48.42 44.16 18.76 3.37 51.1-3.85 61.73-40.42 15.06-51.84 5.42-62.09-4.83-68.11z"/>
	<path class="s2" d="m205.17 142.58c-0.42-15-6.39-20.21-12.59-23.85-6.5-3.83-20.99-8.12-31.5-4.61-3.77 2.08-6.96 4.9-9.28 8.26q-0.31 0.11-0.62 0.22c-0.96 1.97-1.66 4.26-2 6.98 0 0-0.69 8.96-2.35 17.39 4.96 8.3 13.99 14.11 24.6 14.69q3.86 0.2 7.49-0.49c12.57-0.57 23.1-8.16 26.25-18.59z"/>
	<path class="s2" d="m151.55 227.53c4.31-7.67 9.99-18.76 10.74-25.07 3.28 2.33 2.48-10.07 0.16-16.3 0 0-4.8-15.62-23.17-1.87-13.23 9.9-14.33 28.39-14.02 39.15 5.06 3.49 15.11 5.54 26.29 4.09z"/>
	<path fill-rule="evenodd" class="s1" d="m174.5 159.71c-16.17 0-29.23-11.38-29.23-25.46 0-14.09 13.06-25.47 29.23-25.47 16.17 0 29.23 11.38 29.23 25.47 0 14.08-13.06 25.46-29.23 25.46z"/>
	<path class="s1" d="m140.14 131.07c0 16.22 13.56 29.37 30.29 29.37 16.73 0 30.29-13.15 30.29-29.37 0-16.22-60.58-16.22-60.58 0z"/>
	<path class="s5" d="m140.14 131.07c0 6.31 2.06 12.15 5.55 16.94 3.59 4.91 10.95 4.91 14.53 0 3.5-4.79 5.55-10.63 5.55-16.94 0-4.13-3.93-7.21-9.78-9.23-1.97-0.68-4.1-0.68-6.06 0-5.86 2.02-9.79 5.1-9.79 9.23z"/>
	<path class="s2" d="m174.5 108.78q-2.21 0-4.33 0.28c14.09 1.82 24.91 12.41 24.91 25.19 0 12.78-10.82 23.36-24.91 25.19q2.12 0.27 4.33 0.28c16.15 0 29.23-11.41 29.23-25.47 0-14.07-13.08-25.47-29.23-25.47z"/>
	<path class="s1" d="m117.54 139.97c17.49 11.87 17.63 38.66 15.37 46.34-2.26 7.69-4.07-0.22-4.07-0.22 0 0-2.71 26.22-18.53 42.94-2.94 3.62 1.8 28.48 3.61 32.78 1.81 4.29-7.68 10.85-15.37-2.94-7.68-13.79-10.85-33.23-10.85-33.23 0 0-18.08-30.96-19.44-54.25-1.35-23.28 29.61-44.75 49.28-31.42z"/>
	<path class="s1" d="m111.66 268.7c-3.49 0.05-8.31-1.21-13.11-9.83 0 0 16.16-3.39 21.48 2.03 2.24 2.3 2.47 7.65-8.37 7.8z"/>
	<path class="s2" d="m120.02 260.9c-2.59-2.65-7.79-3.19-12.41-3.06 3.88 0.13 7.76 0.89 9.9 3.06 2.16 2.21 2.42 7.23-7.2 7.75q0.7 0.06 1.35 0.05c10.84-0.15 10.61-5.5 8.36-7.8z"/>
	<path class="s5" d="m116.25 186.09c0 0 1.81 7.91 4.06 0.22 2.26-7.68 2.13-34.47-15.37-46.34-2.38-1.61-4.93-2.71-7.56-3.36-15.55 3.47-30.06 18.69-29.12 34.78 1.36 23.28 19.44 54.25 19.44 54.25 0 0 3.17 19.44 10.85 33.23q1.47 2.61 2.99 4.31 0.06-0.71-0.21-1.37c-1.81-4.3-6.56-29.16-3.62-32.78 15.82-16.72 18.54-42.94 18.54-42.94z"/>
	<path class="s6" d="m169.9 140.11c0 0-0.99-0.29-2.07-0.87-1.07-0.59-2.23-1.47-2.55-2.66-0.32-1.19 0.75-1.41 2.04-1.19 1.29 0.22 2.8 0.87 3.37 1.4 0.66 0.62 1.37 1.69 1.46 2.49 0.09 0.79-0.44 1.31-2.25 0.83z"/>
	<path class="s7" d="m172.15 139.28c-0.09-0.8-0.8-1.87-1.46-2.49-0.57-0.53-2.08-1.18-3.37-1.4q-0.68-0.11-1.21-0.04 0.17 0.01 0.34 0.04c3.23 0.77 4.7 4.75 4.16 4.86 1.23 0.18 1.61-0.29 1.54-0.97z"/>
	<path class="s6" d="m161.5 139.13c0 0 0.88-0.17 1.87-0.59 0.98-0.42 2.06-1.1 2.43-2.1 0.38-1.01-0.53-1.29-1.68-1.2-1.14 0.08-2.51 0.52-3.04 0.94-0.62 0.49-1.33 1.36-1.47 2.05-0.14 0.68 0.28 1.18 1.89 0.9z"/>
	<path class="s7" d="m161.5 139.13c0 0 0.88-0.17 1.87-0.59 0.98-0.42 2.06-1.1 2.43-2.1 0.38-1.01-0.53-1.29-1.68-1.2-1.14 0.08-2.51 0.52-3.04 0.94-0.62 0.49-1.33 1.36-1.47 2.05-0.14 0.68 0.28 1.18 1.89 0.9z"/>
	<path class="s8" d="m167.63 135.78c-0.17-0.84-1.94-0.97-2.71-0.44-1.06-0.65-2.77-0.71-2.59 0.16 0.18 0.88 2.94 1.6 2.94 1.6 0 0 2.53-0.48 2.36-1.32z"/>
	<path class="s9" d="m166.73 135.09q0.1 0.16 0.13 0.35c0.1 0.62-0.77 1.23-1.5 1.64 0.42-0.09 2.42-0.55 2.27-1.3-0.07-0.36-0.44-0.58-0.9-0.69z"/>
	<path fill-rule="evenodd" class="s10" d="m155.84 136.76l-18.12 4.56"/>
	<path fill-rule="evenodd" class="s10" d="m139.8 144.06l13.4-5.07"/>
	<path fill-rule="evenodd" class="s10" d="m181.16 138.53l18.26 9.34"/>
	<path fill-rule="evenodd" class="s10" d="m196.8 150.09l-13.54-8.81"/>
	<path class="s11" d="m171.54 131.98l13.05-2.94c0 0-5.64 11.65-13.05 2.94z"/>
	<path class="s12" d="m182.56 129.49c-0.73 1.31-3.06 5.03-6.34 5.63 4.98 0.91 8.37-6.09 8.37-6.09z"/>
	<path class="s11" d="m163.78 131.59l-11.75-3.82c0 0 4.19 11.2 11.75 3.82z"/>
	<path class="s12" d="m162.64 131.22l-10.61-3.45c0 0 0.54 1.43 1.57 2.92 1.88 2.3 4.94 4.16 9.04 0.53z"/>
	<path class="s1" d="m176.96 134.21c0 0-0.49-1.43-0.59-3.32l1.52-0.35c-0.22 2.09-0.93 3.67-0.93 3.67z"/>
	<path class="s1" d="m158.61 133.18c0 0 0.57-1.27 0.81-3l-1.36-0.45c0.03 1.94 0.55 3.45 0.55 3.45z"/>
	<path class="s2" d="m171.88 168.91q0.41-0.56 0.84-1.02c-0.88 1.58-1.14 3-0.54 3.43 0.59 0.44 1.86-0.26 3.08-1.6q-0.3 0.56-0.7 1.12c-1.43 1.98-3.18 3.15-3.92 2.62-0.74-0.53-0.19-2.57 1.24-4.55z"/>
	<path class="s2" d="m177.08 180.86q0.29-0.62 0.62-1.16c-0.55 1.72-0.53 3.17 0.14 3.47 0.67 0.31 1.78-0.63 2.72-2.17q-0.19 0.6-0.47 1.23c-1.02 2.22-2.51 3.72-3.34 3.34-0.83-0.38-0.68-2.49 0.33-4.71z"/>
	<path class="s2" d="m168.48 184.85q0.29-0.63 0.62-1.16c-0.55 1.72-0.54 3.17 0.14 3.47 0.67 0.31 1.78-0.63 2.71-2.17q-0.19 0.6-0.47 1.23c-1.01 2.22-2.5 3.72-3.33 3.34-0.83-0.38-0.69-2.49 0.33-4.71z"/>
	<path class="s1" d="m195.15 168.85q0.19-0.66 0.43-1.24c-0.27 1.78-0.02 3.21 0.69 3.4 0.71 0.2 1.65-0.9 2.33-2.58q-0.09 0.63-0.27 1.3c-0.64 2.35-1.88 4.06-2.76 3.82-0.88-0.24-1.07-2.34-0.42-4.7z"/>
	<path class="s1" d="m187.76 177.35q0.19-0.66 0.43-1.24c-0.27 1.78-0.02 3.21 0.69 3.4 0.71 0.2 1.66-0.9 2.33-2.58q-0.09 0.63-0.26 1.3c-0.65 2.35-1.88 4.06-2.76 3.82-0.88-0.24-1.07-2.34-0.43-4.7z"/>
	<path class="s1" d="m162.75 186.09c2.03 6.33 2.26 18.76-0.91 16.27-1.58 9.49-14.92 29.39-16.95 32.32-2.03 2.94-4.3 27.36-4.52 32.55-0.23 5.2-9.04 2.26-12.21-11.98-3.16-14.24-1.81-23.73-1.81-23.73 0 0-2.94 1.35-2.48-1.81 0.45-3.16-3.17-33.68 15.82-46.56 18.99-12.89 23.06 2.94 23.06 2.94z"/>
	<path class="s5" d="m123.87 229.71c-0.39 2.71 1.7 2.11 2.32 1.88 4.39-6.7 13.57-21.45 14.87-29.23 3.17 2.49 2.94-9.94 0.91-16.27 0 0-0.42-1.61-1.6-3.38q-0.34 0.21-0.68 0.44c-18.99 12.88-15.37 43.4-15.82 46.56z"/>
	<path class="s1" d="m137.79 269.56c2.35 0.73 6.53 0.39 6.65-1.65 0.11-2.03-2.26-6.1-6.56-7.12-4.29-1.02-2.43 8.04-0.09 8.77z"/>
	<path class="s2" d="m137.88 260.79q-0.39-0.09-0.72-0.08c3.84 1.69 5.92 5.53 5.81 7.57-0.04 0.64-0.44 1.13-1.04 1.49 1.36-0.24 2.45-0.84 2.51-1.86 0.11-2.03-2.26-6.1-6.56-7.12z"/>
	<path class="s12" d="m157.02 130.52c0 0.57-0.46 1.03-1.04 1.03-0.57 0-1.03-0.46-1.03-1.03 0-0.58 0.46-1.04 1.03-1.04 0.58 0 1.04 0.46 1.04 1.04z"/>
	<path fill-rule="evenodd" class="s12" d="m174.87 133.18c-0.42 0-0.77-0.35-0.77-0.78 0-0.42 0.35-0.77 0.77-0.77 0.43 0 0.78 0.35 0.78 0.77 0 0.43-0.35 0.78-0.78 0.78z"/>
	<path class="s1" d="m85.12 156.57q0.19-0.66 0.43-1.24c-0.27 1.78-0.02 3.21 0.69 3.4 0.71 0.2 1.66-0.9 2.33-2.57q-0.08 0.62-0.26 1.29c-0.65 2.35-1.88 4.07-2.76 3.82-0.88-0.24-1.07-2.34-0.43-4.7z"/>
	<path class="s1" d="m86.12 180.26q0-0.69 0.07-1.32c0.22 1.8 0.85 3.1 1.59 3.1 0.74 0 1.35-1.32 1.55-3.11q0.08 0.62 0.09 1.32c0.01 2.44-0.72 4.42-1.63 4.42-0.91 0.01-1.66-1.97-1.67-4.41z"/>
	<path class="s1" d="m75.41 169.71q-0.01-0.69 0.04-1.32c0.27 1.78 0.93 3.07 1.67 3.05 0.74-0.02 1.31-1.35 1.47-3.15q0.1 0.62 0.12 1.31c0.08 2.44-0.6 4.45-1.51 4.47-0.91 0.03-1.71-1.92-1.79-4.36z"/>
</svg>