<svg version="1.2" xmlns="http://www.w3.org/2000/svg" viewBox="0 0 552 540" width="552" height="540">
	<style>
		.s0 { fill: #c0a8b7 } 
		.s1 { fill: #f3a370 } 
		.s2 { fill: #d77e56 } 
		.s3 { fill: #4a0630 } 
		.s4 { fill: #edae84 } 
	</style>
	<path class="s0" d="m93.46 384.61c0-18.19 81.93-32.93 183-32.93 101.06 0 183 14.74 183 32.93 0 18.18-81.93 32.92-183 32.92-101.07 0-183-14.74-183-32.92z"/>
	<path class="s1" d="m442.28 375.56c34.47-1.23 44.13-72.99 35.8-83.3-35.39-43.75-112.46-51.99-129.96-61.09-30.13-15.68-58.86-42.79-101.18-52.74-82.96-19.52-145.87 24.51-164.94 96.39-10.46 39.43 2.01 103.24 47.98 100.74 0 0 312.3 0 312.3 0z"/>
	<path class="s2" d="m202.65 328.73c-6.96 3.03-8.67 11.01-9.44 18.56-1.64 16.16 2.64 30.26 12.2 28.34 7.83-1.58 10.86-19.09 10.54-26.22-0.93-21.35-9.71-22.23-13.3-20.68z"/>
	<path class="s2" d="m264.61 286.07c6.07 1.3 12.39 1.98 18.52 0.99 8.44-1.36 16.17-6 20.87-12.51 4.69-6.52 6.29-14.82 4.29-22.4-0.36-1.37-0.87-2.78-1.98-3.77-2.19-1.96-5.74-1.6-8.77-1.1-7.62 1.27-15.35 2.56-22.39 5.51-7.04 2.95-13.45 7.79-16.35 14.33-2.91 6.54-2.62 17.14 5.81 18.95z"/>
	<path class="s2" d="m322.1 375.28c-1.5-6.18 1.46-13.12 6.84-16.5 5.39-3.39 12.78-3.1 18.01 0.51 5.24 3.61 8.12 10.28 7.38 16.6-11.16-0.1-22.31-0.21-32.23-0.61z"/>
	<path class="s2" d="m391.94 375.56c-4.03-18.45-10.18-58.45-0.37-82.45 8.24-20.15 58.42-29.99 73.19-15.22 5.19 5.19 12.04 10.26 14.64 16.92 3.01 7.73 0.91 30.23-3.92 44.97-4.84 14.74-12.6 32.82-29.79 34.72-7.29 0.8-44.06 0.57-53.75 1.06z"/>
	<path class="s2" d="m331.48 316.11c-54.82-1.03-36.04-45.22 2.47-38.22 2.92 10.27 12.79 15.21 21.49 14.26 5.55 10.96 1.02 24.43-23.96 23.96z"/>
	<path class="s3" d="m442.28 378.06h-313c-1.38 0-2.5-1.12-2.5-2.5 0-1.38 1.12-2.5 2.5-2.5h313c1.38 0 2.5 1.12 2.5 2.5 0 1.38-1.12 2.5-2.5 2.5z"/>
	<path class="s3" d="m128.14 378.13c-13.59 0-25.43-5.76-34.38-16.75-18.27-22.46-20.94-61.69-14.18-87.2 20.56-77.52 88.05-116.98 167.93-98.19 29.13 6.85 52.35 21.99 72.83 35.35 9.95 6.49 19.35 12.62 28.94 17.61 4.38 2.28 13.04 4.59 24 7.51 31.93 8.53 80.2 21.41 106.74 54.23 5.96 7.37 3.98 38.12-6.31 60.68-7.74 17-18.58 26.23-31.34 26.69-1.36 0.05-2.54-1.03-2.59-2.41-0.05-1.38 1.03-2.54 2.41-2.59 13.56-0.48 22.16-13.19 26.98-23.76 10.22-22.43 10.92-50.57 6.96-55.46-25.52-31.55-72.83-44.19-104.14-52.54-11.26-3.01-20.15-5.38-25.02-7.92-9.8-5.1-19.3-11.29-29.36-17.85-21.12-13.78-42.97-28.02-71.24-34.67-77.05-18.12-142.14 19.89-161.95 94.6-6.45 24.32-4.01 61.59 13.22 82.76 8.6 10.57 19.67 15.56 32.92 14.84 1.36-0.08 2.55 0.98 2.63 2.36 0.07 1.38-0.98 2.56-2.36 2.64q-1.35 0.07-2.69 0.07z"/>
	<path class="s3" d="m354.87 294.48c-4.9 0-9.79-1.24-13.78-3.55-5.07-2.93-8.56-7.47-9.56-12.46-0.27-1.36 0.6-2.68 1.96-2.95 1.35-0.26 2.67 0.61 2.94 1.96 0.72 3.59 3.33 6.91 7.16 9.12 3.93 2.27 9.18 3.29 14.04 2.72 1.39-0.15 2.61 0.82 2.78 2.19 0.16 1.37-0.82 2.61-2.2 2.77q-1.66 0.2-3.34 0.2z"/>
	<path class="s3" d="m440.36 316.36c-0.91 0-1.78-0.49-2.23-1.35-2.53-4.92-10.08-9.07-22.44-12.34-1.33-0.35-2.13-1.72-1.77-3.05 0.35-1.34 1.72-2.13 3.05-1.78 13.98 3.7 22.35 8.56 25.61 14.88 0.63 1.23 0.15 2.73-1.08 3.36q-0.56 0.29-1.14 0.28z"/>
	<path class="s3" d="m467.75 313.47q-0.55 0.01-1.07-0.24c-1.25-0.59-1.78-2.08-1.19-3.33 2.8-5.89 7.67-11.2 13.35-14.57 1.19-0.7 2.72-0.31 3.43 0.88 0.7 1.18 0.31 2.72-0.88 3.42-6.89 4.09-10.25 10.04-11.38 12.42-0.43 0.9-1.33 1.42-2.26 1.42z"/>
	<path class="s3" d="m417.55 365.84c-1.23 0-2.3-0.91-2.47-2.16-0.19-1.37 0.77-2.63 2.14-2.82 16.09-2.19 28.9-6.71 34.28-12.09 1.19-1.19 4.14-8.32 5.86-20.16 0.2-1.36 1.46-2.31 2.84-2.11 1.36 0.2 2.31 1.47 2.11 2.84-1.58 10.82-4.57 20.27-7.27 22.97-8.83 8.83-28.92 12.39-37.15 13.51q-0.17 0.02-0.34 0.02z"/>
	<path class="s3" d="m465.65 361.68q-0.54 0-1.06-0.24c-4.96-2.31-9.31-5.86-12.58-10.26-0.82-1.11-0.59-2.68 0.52-3.5 1.11-0.82 2.68-0.59 3.5 0.52 2.77 3.73 6.46 6.75 10.68 8.71 1.25 0.58 1.79 2.07 1.21 3.32-0.43 0.91-1.33 1.45-2.27 1.45z"/>
	<path class="s3" d="m275.3 290.48c-4.16 0-8.15-0.65-11.42-2.02-4.88-2.05-7.92-5.51-8.8-10.01-1.48-7.54 0.52-14.54 5.78-20.22 9.39-10.14 29.06-15.38 48.93-13.04 1.37 0.16 2.35 1.4 2.19 2.77-0.17 1.37-1.42 2.35-2.78 2.19-18.36-2.16-36.31 2.45-44.68 11.48-4.18 4.52-5.71 9.86-4.54 15.86 0.56 2.83 2.52 4.97 5.83 6.35 7.25 3.04 19.76 1.65 26.76-2.97 1.15-0.76 2.7-0.45 3.46 0.71 0.76 1.15 0.44 2.7-0.71 3.46-5.34 3.53-12.93 5.44-20.02 5.44z"/>
	<path class="s3" d="m202.16 378.06c-1.33 0-2.44-1.05-2.5-2.39-0.06-1.38 1-2.55 2.38-2.61 4.18-0.19 7.79-5.27 9.65-13.59 2.63-11.7 0.59-25.16-4.19-27.7-2.62-1.39-4.05-0.71-4.51-0.48-1.78 0.84-5.1 4.08-7.47 16.23-0.26 1.36-1.57 2.24-2.93 1.98-1.36-0.27-2.24-1.58-1.98-2.94 2.16-11.06 5.5-17.53 10.22-19.78 1.9-0.91 5.01-1.55 9.02 0.58 7.82 4.15 9.58 20.47 6.72 33.21-2.42 10.8-7.63 17.17-14.3 17.48q-0.06 0.01-0.11 0.01z"/>
	<path class="s3" d="m198.2 333.74c-1.28 0-2.38-0.99-2.49-2.29-2.36-27.98-27.54-36.81-42.34-39.58-1.36-0.25-2.25-1.56-2-2.91 0.26-1.36 1.57-2.25 2.92-2 27.96 5.24 44.44 20.89 46.41 44.07 0.11 1.37-0.91 2.58-2.28 2.7q-0.11 0.01-0.22 0.01z"/>
	<path class="s3" d="m353.7 378.13q-0.19 0-0.38-0.03c-1.36-0.21-2.3-1.49-2.09-2.85 1.8-11.68-6.64-15.01-14.69-17.2-2.44-0.67-3.78-1.03-4.59-2.15l-0.16-0.24c-6.16-8.58-23.3-29.9-49.57-42.43-1.24-0.59-1.77-2.09-1.18-3.33 0.6-1.25 2.09-1.78 3.33-1.18 27.18 12.96 44.91 34.89 51.38 43.88 0.45 0.17 1.36 0.42 2.11 0.62 6.27 1.71 20.95 5.72 18.31 22.79-0.19 1.24-1.25 2.12-2.47 2.12z"/>
	<path class="s3" d="m112.12 253.2q-0.62 0-1.21-0.32c-1.21-0.66-1.64-2.18-0.97-3.39 2.07-3.76 4.45-7.39 7.06-10.8 0.84-1.1 2.41-1.31 3.5-0.47 1.1 0.84 1.31 2.41 0.47 3.5-2.46 3.22-4.7 6.65-6.66 10.19-0.46 0.82-1.31 1.29-2.19 1.29z"/>
	<path class="s3" d="m126.17 231.96q-0.69 0-1.32-0.38c-1.17-0.74-1.53-2.28-0.79-3.45 2.28-3.64 4.85-7.14 7.64-10.4 0.9-1.05 2.48-1.17 3.53-0.27 1.05 0.89 1.17 2.47 0.27 3.52-2.63 3.08-5.06 6.38-7.21 9.81-0.47 0.75-1.28 1.17-2.12 1.17z"/>
	<path class="s3" d="m109.4 236.73q-0.73 0.01-1.39-0.42c-1.14-0.77-1.45-2.32-0.68-3.47 2.32-3.46 4.83-6.78 7.47-9.88 0.9-1.05 2.47-1.18 3.52-0.28 1.06 0.9 1.18 2.47 0.29 3.52-2.52 2.96-4.91 6.13-7.13 9.43-0.48 0.72-1.27 1.1-2.08 1.1z"/>
	<path class="s3" d="m391.89 224.87q-0.62 0-1.18-0.3c-0.89-0.47-1.4-1.43-1.31-2.44l2.14-23.08-12.19 9.7c-1.09 0.86-2.66 0.68-3.52-0.39-0.86-1.09-0.68-2.66 0.4-3.52l16.78-13.36c0.78-0.62 1.86-0.72 2.74-0.24 0.89 0.48 1.4 1.43 1.31 2.43l-2.14 23.01 11.99-9.73c1.07-0.87 2.65-0.7 3.52 0.37 0.87 1.07 0.71 2.65-0.37 3.52l-16.6 13.47c-0.45 0.37-1.01 0.56-1.57 0.56z"/>
	<path class="s3" d="m421.54 200.85c-0.75 0-1.47-0.34-1.95-0.94-0.63-0.78-0.73-1.87-0.25-2.75l14.48-26.77-20.18 5.56c-1.33 0.37-2.71-0.41-3.07-1.75-0.37-1.33 0.41-2.7 1.74-3.07l25.83-7.12c0.97-0.26 2 0.07 2.63 0.86 0.62 0.78 0.72 1.86 0.24 2.74l-14.44 26.7 19.97-5.7c1.33-0.38 2.71 0.39 3.09 1.71 0.38 1.33-0.39 2.72-1.72 3.09l-25.68 7.34q-0.34 0.1-0.69 0.1z"/>
	<path class="s3" d="m500.66 193.73q-0.1 0-0.2-0.01l-33.62-2.62c-1-0.08-1.86-0.75-2.18-1.71-0.32-0.95-0.03-2 0.73-2.66l30.06-26.32-27.86-2.43c-1.37-0.12-2.39-1.34-2.27-2.71 0.12-1.38 1.35-2.4 2.71-2.27l33.7 2.94c1 0.08 1.85 0.76 2.16 1.71 0.31 0.95 0.02 2-0.73 2.66l-30.01 26.27 27.7 2.15c1.37 0.11 2.4 1.31 2.3 2.69-0.11 1.31-1.2 2.31-2.49 2.31z"/>
	<path class="s4" d="m316.6 286.88c-1.02-1.3-0.7-4.22 2.91-4.85 3.94-0.69 5.21 2.44 4.89 3.5-0.84 2.78-6.8 2.63-7.8 1.35z"/>
</svg>