<svg version="1.2" xmlns="http://www.w3.org/2000/svg" viewBox="0 0 391 537" width="391" height="537">
	<style>
		.s0 { fill: #c0a8b7 } 
		.s1 { fill: #f3a370 } 
		.s2 { fill: #d77e56 } 
		.s3 { fill: #ff9d47 } 
		.s4 { fill: #ffb45a } 
		.s5 { fill: #edae84 } 
		.s6 { fill: #9cba4e } 
		.s7 { fill: #cce070 } 
		.s8 { fill: #4a0630 } 
	</style>
	<path class="s0" d="m67 432.19c0-3.73 3.58-7.28 10.06-10.51 6.48-3.23 15.85-6.14 27.43-8.58 11.58-2.44 25.37-4.42 40.69-5.79 15.31-1.36 32.15-2.12 49.82-2.12 17.67 0 34.51 0.76 49.82 2.12 15.32 1.37 29.11 3.35 40.69 5.79 11.58 2.44 20.95 5.35 27.43 8.58 6.48 3.23 10.06 6.78 10.06 10.51 0 3.73-3.58 7.28-10.06 10.51-6.48 3.23-15.85 6.14-27.43 8.58-11.58 2.45-25.38 4.42-40.69 5.79-15.31 1.36-32.15 2.12-49.82 2.12-17.67 0-34.51-0.75-49.82-2.12-15.32-1.37-29.11-3.34-40.69-5.79-11.58-2.44-20.95-5.35-27.43-8.58-6.48-3.23-10.06-6.78-10.06-10.51z"/>
	<path class="s1" d="m301.77 258.39c1.82 4.68 4.47 10.74 7.51 17.57 3.03 6.83 6.45 14.44 9.82 22.25 3.37 7.8 6.68 15.78 9.5 23.37 2.82 7.58 5.14 14.76 6.53 20.94 2.49 11.09 3.5 22.05 3.09 32.24-0.42 10.19-2.25 19.63-5.46 27.68-3.2 8.04-7.76 14.7-13.63 19.35-5.88 4.65-13.05 7.29-21.48 7.29-6.4 0-11.58 0-16.08 0-4.49 0-8.31 0-11.98 0-3.67 0-7.21 0-11.15 0-3.94 0-8.29 0-13.58 0h-24.93-24.93-24.93-24.93c-5.29 0-9.64 0-13.58 0-3.94 0-7.48 0-11.15 0-3.67 0-7.49 0-11.98 0-4.5 0-9.68 0-16.08 0-8.43 0-15.6-2.64-21.48-7.29-5.87-4.65-10.43-11.31-13.64-19.35-3.2-8.05-5.03-17.49-5.45-27.68-0.41-10.19 0.6-21.15 3.09-32.24 1.38-6.18 3.71-13.36 6.53-20.94 2.82-7.58 6.13-15.57 9.5-23.37 3.37-7.81 6.79-15.42 9.82-22.25 3.04-6.83 5.69-12.89 7.51-17.57h53.38 53.39 53.39z"/>
	<path class="s1" d="m181.58 357.58c-0.17 3.18-0.29 7.2-0.31 11.79-0.03 4.6 0.03 9.78 0.23 15.28 0.19 5.5 0.51 11.34 1 17.24 0.48 5.9 1.14 11.88 2 17.67 1.08 0.38 2.08 0.96 2.97 1.68 0.89 0.73 1.67 1.6 2.3 2.56 0.62 0.96 1.09 2.01 1.36 3.11 0.27 1.1 0.34 2.23 0.17 3.36-0.27 1.76-0.83 3.09-1.82 4.09-0.98 1.01-2.39 1.68-4.33 2.14-1.95 0.45-4.43 0.69-7.58 0.81-3.14 0.12-6.95 0.13-11.53 0.13-7.76 0-14.79-3.27-21.09-8.52-6.3-5.25-11.88-12.48-16.74-20.42-4.85-7.93-8.99-16.56-12.42-24.61-3.43-8.05-6.14-15.52-8.15-21.13l18.49-1.29 18.48-1.3 18.48-1.29z"/>
	<path class="s1" d="m208.42 357.58c0.17 3.18 0.29 7.2 0.31 11.79 0.03 4.6-0.03 9.78-0.23 15.28-0.19 5.5-0.51 11.34-1 17.24-0.48 5.9-1.14 11.88-2 17.67-1.08 0.38-2.08 0.96-2.97 1.68-0.89 0.73-1.67 1.6-2.3 2.56-0.62 0.96-1.09 2.01-1.36 3.11-0.27 1.1-0.34 2.23-0.17 3.36 0.27 1.76 0.83 3.09 1.82 4.09 0.98 1.01 2.39 1.68 4.33 2.14 1.95 0.45 4.43 0.69 7.58 0.81 3.14 0.12 6.95 0.13 11.53 0.13 7.76 0 14.79-3.27 21.09-8.52 6.3-5.25 11.88-12.48 16.74-20.42 4.85-7.93 8.99-16.56 12.42-24.61 3.43-8.05 6.14-15.52 8.15-21.13l-18.49-1.29-18.48-1.3-18.48-1.29z"/>
	<path class="s2" d="m143.88 426.13c2.77-3.48 6.19-6.25 9.86-8.37 3.67-2.12 7.58-3.58 11.35-4.44 3.77-0.86 7.39-1.12 10.47-0.83 3.07 0.3 5.6 1.14 7.18 2.48 0.65 0.55 1.45 1.4 2.29 2.42 0.84 1.02 1.71 2.2 2.52 3.42 0.8 1.22 1.52 2.48 2.07 3.65 0.54 1.17 0.89 2.24 0.95 3.09 0.05 0.86-0.04 1.75-0.25 2.61-0.22 0.86-0.56 1.7-1.02 2.45-0.46 0.74-1.03 1.39-1.7 1.88-0.66 0.49-1.43 0.82-2.28 0.93-5.21 0.65-9.59 1.22-13.41 1.51-3.83 0.29-7.12 0.28-10.17-0.21-3.05-0.5-5.86-1.49-8.74-3.19-2.87-1.7-5.81-4.1-9.12-7.4z"/>
	<path class="s2" d="m247.12 426.13c-2.78-3.48-6.2-6.25-9.86-8.37-3.67-2.12-7.59-3.58-11.36-4.44-3.77-0.86-7.39-1.12-10.46-0.83-3.07 0.3-5.6 1.14-7.19 2.48-0.65 0.55-1.45 1.4-2.29 2.42-0.83 1.02-1.71 2.2-2.51 3.42-0.8 1.22-1.53 2.48-2.07 3.65-0.54 1.17-0.9 2.24-0.95 3.09-0.06 0.86 0.03 1.75 0.25 2.61 0.21 0.86 0.56 1.7 1.01 2.45 0.46 0.74 1.03 1.39 1.7 1.88 0.67 0.49 1.43 0.82 2.28 0.93 5.22 0.65 9.59 1.22 13.42 1.51 3.83 0.29 7.12 0.28 10.17-0.21 3.04-0.5 5.86-1.49 8.73-3.19 2.88-1.7 5.82-4.1 9.13-7.4z"/>
	<path class="s3" d="m232.2 74.8c14.08 3.76 27.15 9.63 38.84 17.14 11.69 7.51 22 16.68 30.55 27.02 8.55 10.34 15.34 21.86 19.99 34.1 4.65 12.24 7.17 25.19 7.17 38.39 0 15.88-3.74 30.6-10.49 43.75-6.76 13.15-16.53 24.73-28.61 34.32-12.08 9.6-26.47 17.21-42.44 22.42-15.97 5.21-33.53 8.02-51.96 8.02-18.43 0-35.99-2.81-51.97-8.02-15.97-5.22-30.35-12.82-42.43-22.42-12.08-9.59-21.86-21.17-28.61-34.32-6.76-13.15-10.49-27.87-10.49-43.75 0-14.26 3.01-28.24 8.52-41.35 5.51-13.11 13.51-25.34 23.49-36.11 9.97-10.77 21.93-20.08 35.34-27.32 13.41-7.24 28.28-12.43 44.09-14.96l14.75 0.77 14.75 0.78 14.76 0.77z"/>
	<path class="s4" d="m229.02 74.66c12.86 3.59 24.81 9.19 35.49 16.37 10.68 7.18 20.1 15.93 27.92 25.81 7.81 9.87 14.02 20.88 18.27 32.57 4.25 11.69 6.55 24.06 6.55 36.66 0 15.17-3.42 29.23-9.59 41.79-6.17 12.56-15.11 23.62-26.14 32.78-11.04 9.16-24.19 16.43-38.78 21.41-14.6 4.97-30.65 7.66-47.49 7.66-16.85 0-32.89-2.69-47.49-7.66-14.6-4.98-27.74-12.25-38.78-21.41-11.04-9.16-19.97-20.22-26.14-32.78-6.18-12.56-9.59-26.62-9.59-41.79 0-13.62 2.75-26.97 7.78-39.49 5.04-12.52 12.35-24.2 21.47-34.49 9.12-10.29 20.04-19.17 32.3-26.09 12.25-6.92 25.84-11.87 40.29-14.29l13.48 0.74 13.48 0.74 13.48 0.74z"/>
	<path class="s1" d="m195.25 284.44c12.01 0 24-2.28 35.27-6.26 11.27-3.99 21.81-9.68 30.92-16.51 9.11-6.83 16.79-14.8 22.33-23.35 5.53-8.55 8.93-17.66 9.48-26.79 0.25-4.25 0.04-9.21-0.69-14.59-0.72-5.38-1.96-11.18-3.74-17.11-1.78-5.94-4.11-12.01-7.03-17.94-2.92-5.93-6.42-11.72-10.55-17.09-4.63-6.03-10.2-10.89-16.3-14.78-6.1-3.9-12.75-6.83-19.56-8.98-6.8-2.16-13.76-3.54-20.5-4.35-6.74-0.81-13.26-1.04-19.16-0.89q-0.09 0-0.21 0-0.13 0.01-0.26 0-0.14 0.01-0.26 0-0.12 0-0.21 0c-5.91-0.18-12.42 0.04-19.16 0.85-6.74 0.8-13.7 2.19-20.51 4.35-6.8 2.16-13.45 5.1-19.55 9-6.11 3.9-11.67 8.77-16.31 14.8-4.12 5.37-7.63 11.16-10.54 17.09-2.92 5.93-5.25 12-7.04 17.94-1.78 5.93-3.01 11.73-3.74 17.11-0.72 5.38-0.94 10.33-0.68 14.59 0.55 9.13 3.94 18.24 9.48 26.79 5.53 8.54 13.21 16.52 22.32 23.35 9.11 6.83 19.65 12.52 30.92 16.51 11.27 3.98 23.27 6.26 35.28 6.26z"/>
	<path class="s2" d="m195.25 258.39c5.45 0 10.89-1.16 16-3.21 5.11-2.04 9.89-4.96 14.02-8.46 4.14-3.5 7.62-7.59 10.13-11.97 2.51-4.39 4.05-9.06 4.3-13.74 0.12-2.18 0.02-4.72-0.31-7.48-0.33-2.76-0.89-5.73-1.7-8.77-0.8-3.05-1.86-6.16-3.18-9.2-1.33-3.05-2.92-6.01-4.79-8.77-2.1-3.09-4.62-5.58-7.39-7.58-2.77-1.99-5.79-3.5-8.87-4.6-3.09-1.11-6.25-1.82-9.31-2.23-3.05-0.41-6.01-0.53-8.69-0.46q-0.04 0.01-0.09 0.01-0.06 0-0.12 0-0.06 0-0.12 0-0.05 0-0.09-0.01c-2.68-0.09-5.64 0.03-8.69 0.44-3.06 0.41-6.22 1.12-9.3 2.23-3.09 1.11-6.11 2.62-8.88 4.62-2.76 2-5.29 4.49-7.39 7.58-1.87 2.76-3.46 5.72-4.78 8.77-1.33 3.04-2.39 6.15-3.19 9.2-0.81 3.04-1.37 6.01-1.7 8.77-0.33 2.76-0.43 5.3-0.31 7.48 0.25 4.68 1.79 9.36 4.3 13.74 2.51 4.38 5.99 8.47 10.12 11.97 4.14 3.5 8.92 6.42 14.03 8.47 5.11 2.04 10.55 3.2 16 3.2z"/>
	<path class="s2" d="m235.89 171.41c1.12-4.02 3.61-6.77 6.79-8.48 3.18-1.71 7.06-2.38 10.97-2.23 3.9 0.15 7.82 1.12 11.09 2.69 3.27 1.56 5.89 3.72 7.18 6.25 2.91 5.71 1.59 10.57-1.9 14.18-3.49 3.61-9.15 5.96-14.91 6.65-5.76 0.69-11.62-0.28-15.51-3.32-3.9-3.04-5.82-8.15-3.71-15.74z"/>
	<path class="s2" d="m154.36 171.41c-1.12-4.02-3.61-6.77-6.79-8.48-3.19-1.71-7.07-2.38-10.97-2.23-3.9 0.15-7.82 1.12-11.1 2.69-3.27 1.56-5.88 3.72-7.17 6.25-2.92 5.71-1.59 10.57 1.9 14.18 3.49 3.61 9.15 5.96 14.91 6.65 5.76 0.69 11.62-0.28 15.51-3.32 3.89-3.04 5.82-8.15 3.71-15.74z"/>
	<path class="s5" d="m129.09 169.27c-0.19-0.69-0.62-1.16-1.16-1.45-0.55-0.3-1.21-0.41-1.88-0.39-0.67 0.03-1.34 0.2-1.9 0.46-0.56 0.27-1.01 0.64-1.23 1.07-0.49 0.98-0.27 1.81 0.33 2.43 0.6 0.62 1.57 1.02 2.55 1.14 0.99 0.12 1.99-0.05 2.66-0.57 0.66-0.52 0.99-1.39 0.63-2.69z"/>
	<path class="s5" d="m261.16 169.27c0.19-0.69 0.61-1.16 1.16-1.45 0.54-0.3 1.21-0.41 1.88-0.39 0.66 0.03 1.34 0.2 1.9 0.46 0.56 0.27 1 0.64 1.22 1.07 0.5 0.98 0.28 1.81-0.32 2.43-0.6 0.62-1.57 1.02-2.55 1.14-0.99 0.12-1.99-0.05-2.66-0.57-0.66-0.52-0.99-1.39-0.63-2.69z"/>
	<path class="s6" d="m186.24 80.99c1.91-10.85 5.5-19.48 10.33-26.23 4.83-6.74 10.9-11.61 17.77-14.95 6.87-3.33 14.53-5.14 22.56-5.75 8.02-0.62 16.41-0.05 24.72 1.36-2.54 11.75-7.5 20.74-13.76 27.56-6.27 6.82-13.84 11.47-21.6 14.5-7.77 3.04-15.73 4.47-22.77 4.86-7.04 0.4-13.16-0.25-17.25-1.35z"/>
	<path class="s7" d="m191.68 67.52c2.43-8.29 6.21-14.54 10.88-19.26 4.67-4.71 10.22-7.89 16.19-10.03 5.97-2.14 12.36-3.25 18.7-3.82 6.35-0.57 12.64-0.6 18.42-0.6 2.6 0 3.39 1.31 2.84 3.4-0.54 2.1-2.42 4.99-5.14 8.14-2.72 3.16-6.29 6.59-10.22 9.77-3.93 3.17-8.22 6.1-12.38 8.26-4.31 2.24-9.03 3.99-13.66 5.26-4.63 1.27-9.16 2.07-13.11 2.4-3.94 0.32-7.29 0.19-9.54-0.4-2.26-0.59-3.42-1.63-2.98-3.12z"/>
	<path class="s6" d="m186.24 76.99c-5.82-1.63-10.9-3.86-15.19-6.71-4.28-2.85-7.76-6.33-10.39-10.46-2.62-4.13-4.38-8.92-5.22-14.39-0.83-5.48-0.75-11.63 0.33-18.5 5.24 2.9 10.22 5.37 14.71 7.73 4.49 2.37 8.5 4.63 11.81 7.13 3.32 2.5 5.93 5.24 7.64 8.54 1.71 3.31 2.5 7.19 2.18 11.97l-1.47 3.67-1.47 3.67-1.46 3.67z"/>
	<path class="s7" d="m155.76 26.93c5.25 2.9 10.39 5.67 15.01 8.29 4.62 2.62 8.73 5.09 11.92 7.41 3.19 2.31 5.46 4.47 6.4 6.46 0.95 2 0.57 3.82-1.54 5.46-2.5 1.95-6 2.91-9.79 2.83-3.78-0.07-7.84-1.19-11.46-3.42-3.62-2.22-6.79-5.54-8.79-10.03-1.99-4.48-2.82-10.13-1.75-17z"/>
	<path class="s8" d="m199.5 84.98q-2.09 0-4.04-0.11-1.94-0.12-3.7-0.32-1.76-0.21-3.31-0.5-1.55-0.29-2.86-0.65-0.47-0.13-0.84-0.41-0.38-0.28-0.62-0.66-0.25-0.39-0.34-0.84-0.09-0.46-0.01-0.94 1.37-7.8 3.92-14.41 2.54-6.6 6.23-11.99 3.7-5.39 8.53-9.54 4.83-4.15 10.79-7.04 4.83-2.35 10.37-3.82 5.54-1.46 11.7-2.05 6.16-0.58 12.86-0.27 6.71 0.31 13.86 1.53 0.25 0.04 0.48 0.13 0.24 0.09 0.45 0.23 0.21 0.13 0.39 0.31 0.18 0.18 0.33 0.39 0.14 0.21 0.24 0.45 0.09 0.23 0.14 0.48 0.05 0.24 0.05 0.5-0.01 0.25-0.06 0.5-1.4 6.47-3.78 12.15-2.39 5.68-5.75 10.55-3.36 4.88-7.68 8.93-4.32 4.05-9.59 7.26c-3.14 1.9-6.37 3.49-9.62 4.8-3.26 1.31-6.55 2.34-9.79 3.13-3.24 0.79-6.44 1.34-9.52 1.7-3.08 0.35-6.05 0.51-8.83 0.51zm-10.35-5.89c2.53 0.48 5.64 0.8 9.12 0.86 3.49 0.05 7.36-0.16 11.41-0.73 4.05-0.58 8.29-1.52 12.52-2.93 4.22-1.41 8.44-3.28 12.46-5.73q4.55-2.77 8.33-6.23 3.78-3.47 6.77-7.61 2.99-4.15 5.2-8.96 2.2-4.82 3.61-10.29c-5.85-0.86-12.55-1.38-19.46-1.02-6.91 0.37-14.02 1.63-20.68 4.35-6.67 2.71-12.87 6.89-17.97 13.08-5.1 6.19-9.09 14.41-11.31 25.21z"/>
	<path class="s8" d="m186.24 79.49q-0.08 0-0.17-0.01-0.08-0.01-0.17-0.02-0.08-0.01-0.16-0.03-0.09-0.01-0.17-0.04-9.54-2.67-16.37-7.39-6.83-4.72-10.91-11.4-4.07-6.67-5.34-15.21-1.26-8.54 0.34-18.85 0.05-0.3 0.17-0.58 0.11-0.27 0.29-0.51 0.18-0.24 0.41-0.44 0.23-0.19 0.5-0.32 0.28-0.14 0.58-0.2 0.29-0.07 0.59-0.06 0.3 0.01 0.59 0.09 0.29 0.07 0.56 0.22 1.29 0.72 2.56 1.4 1.28 0.68 2.52 1.34 1.25 0.65 2.48 1.29 1.22 0.63 2.43 1.25c4.02 2.08 7.84 4.04 11.28 6.1 3.44 2.06 6.5 4.21 9.02 6.64 2.52 2.44 4.51 5.17 5.78 8.39 1.28 3.22 1.85 6.92 1.55 11.32q-0.04 0.52-0.27 0.96-0.22 0.44-0.59 0.76-0.37 0.31-0.83 0.48-0.46 0.16-0.97 0.13-0.52-0.04-0.96-0.27-0.44-0.22-0.76-0.58-0.32-0.37-0.48-0.83-0.16-0.47-0.13-0.99c0.25-3.58-0.22-6.59-1.29-9.23-1.07-2.63-2.76-4.89-4.96-6.95-2.2-2.06-4.92-3.93-8.07-5.78-3.14-1.85-6.71-3.69-10.61-5.7q-0.85-0.43-1.7-0.87-0.85-0.44-1.71-0.89-0.86-0.45-1.74-0.91-0.88-0.46-1.76-0.94-0.93 8.6 0.44 15.64 1.37 7.05 5.02 12.53 3.65 5.47 9.57 9.37 5.93 3.89 14.11 6.18 0.5 0.14 0.89 0.45 0.38 0.31 0.62 0.73 0.24 0.42 0.3 0.91 0.06 0.49-0.07 0.99-0.12 0.42-0.36 0.75-0.23 0.34-0.55 0.58-0.32 0.24-0.7 0.37-0.39 0.12-0.8 0.13z"/>
	<path class="s8" d="m195.25 302.46c-9.18 0-18.2-0.69-26.95-2.03-8.75-1.35-17.24-3.35-25.37-5.97-8.12-2.63-15.89-5.87-23.2-9.71-7.3-3.85-14.15-8.28-20.44-13.27-6.45-5.13-12.18-10.75-17.15-16.79-4.96-6.03-9.16-12.48-12.55-19.26-3.4-6.77-5.98-13.88-7.72-21.24-1.73-7.36-2.62-14.97-2.62-22.74 0-7.08 0.72-14.14 2.14-21.11 1.42-6.98 3.52-13.85 6.29-20.56 2.77-6.7 6.2-13.23 10.25-19.51 4.05-6.28 8.72-12.3 13.99-17.98 5.28-5.7 11.03-10.93 17.18-15.64 6.15-4.72 12.69-8.92 19.53-12.57 6.85-3.65 14.01-6.74 21.4-9.22 7.39-2.49 15-4.38 22.76-5.62q0.52-0.08 0.99 0.04 0.48 0.12 0.87 0.4 0.39 0.29 0.66 0.7 0.26 0.42 0.34 0.93 0.08 0.52-0.04 0.99-0.12 0.48-0.4 0.87-0.28 0.39-0.7 0.66-0.41 0.26-0.93 0.35c-15.33 2.45-29.82 7.51-42.95 14.59-13.12 7.09-24.87 16.2-34.71 26.75-9.83 10.54-17.75 22.54-23.21 35.38-5.46 12.85-8.46 26.56-8.46 40.55 0 15.11 3.52 29.29 9.97 42.06 6.44 12.77 15.82 24.13 27.52 33.6 11.71 9.48 25.75 17.06 41.53 22.28 15.79 5.22 33.31 8.07 51.98 8.07 18.67 0 36.19-2.85 51.98-8.07 15.78-5.22 29.82-12.8 41.53-22.28 11.7-9.47 21.08-20.83 27.52-33.6 6.45-12.77 9.97-26.95 9.97-42.06 0-12.89-2.49-25.56-7.08-37.54-4.59-11.98-11.28-23.28-19.69-33.42-8.41-10.14-18.53-19.13-29.98-26.5-11.45-7.37-24.23-13.11-37.94-16.77q-0.51-0.14-0.89-0.44-0.39-0.31-0.63-0.73-0.24-0.42-0.32-0.9-0.07-0.49 0.07-0.99 0.13-0.51 0.44-0.89 0.3-0.39 0.72-0.63 0.42-0.24 0.91-0.31 0.48-0.07 0.99 0.06c6.92 1.84 13.68 4.23 20.21 7.1 6.53 2.88 12.82 6.24 18.81 10.05 5.98 3.81 11.66 8.06 16.96 12.72 5.3 4.65 10.22 9.7 14.68 15.1 4.48 5.41 8.45 11.11 11.88 17.03 3.44 5.92 6.35 12.05 8.7 18.33 2.35 6.27 4.14 12.69 5.34 19.17 1.2 6.48 1.82 13.02 1.82 19.56 0 7.77-0.89 15.38-2.63 22.74-1.73 7.36-4.32 14.46-7.71 21.24-3.39 6.78-7.59 13.23-12.55 19.26-4.97 6.04-10.7 11.66-17.16 16.79-6.28 4.99-13.13 9.42-20.44 13.27-7.3 3.84-15.07 7.08-23.19 9.71-8.13 2.62-16.62 4.62-25.37 5.97-8.75 1.34-17.77 2.03-26.95 2.03z"/>
	<path class="s8" d="m195.25 286.94c-5.83 0-11.74-0.53-17.64-1.56-5.9-1.02-11.78-2.54-17.55-4.53-5.78-1.98-11.44-4.43-16.89-7.3-5.45-2.88-10.69-6.18-15.62-9.88-4.93-3.7-9.38-7.66-13.3-11.81-3.91-4.14-7.29-8.47-10.09-12.9-2.8-4.43-5.01-8.97-6.6-13.54-1.58-4.58-2.53-9.18-2.81-13.73-0.26-4.37-0.04-9.45 0.69-14.96 0.74-5.51 2-11.45 3.81-17.53 1.83-6.08 4.21-12.3 7.2-18.38 2.99-6.08 6.58-12.03 10.83-17.54 5.47-7.12 12.06-12.59 19.1-16.77 7.05-4.18 14.56-7.08 21.89-9.08 7.32-2 14.47-3.09 20.78-3.65 6.31-0.56 11.8-0.6 15.8-0.48q0.08 0 0.18 0 0.11 0.01 0.22 0.01 0.12 0 0.23-0.01 0.1 0 0.18 0c4.02-0.1 9.52-0.05 15.84 0.53 6.33 0.59 13.48 1.69 20.81 3.7 7.34 2 14.84 4.91 21.88 9.07 7.03 4.17 13.59 9.61 19.03 16.68 4.25 5.51 7.84 11.46 10.83 17.54 2.99 6.08 5.37 12.3 7.19 18.38 1.82 6.08 3.08 12.02 3.82 17.53 0.73 5.51 0.95 10.59 0.68 14.96-0.27 4.55-1.22 9.15-2.81 13.72-1.58 4.58-3.79 9.12-6.59 13.55-2.8 4.43-6.18 8.76-10.09 12.9-3.92 4.15-8.37 8.11-13.31 11.81-4.93 3.7-10.16 7-15.61 9.87-5.46 2.88-11.12 5.33-16.89 7.31-5.77 1.98-11.66 3.51-17.56 4.53-5.89 1.03-11.8 1.56-17.63 1.56zm-4.23-168.7c-4.25 0-9.55 0.22-15.4 0.92-5.85 0.7-12.26 1.89-18.74 3.86-6.47 1.96-13.01 4.7-19.11 8.49-6.11 3.79-11.78 8.64-16.53 14.81-4.05 5.26-7.48 10.93-10.33 16.72-2.85 5.79-5.13 11.71-6.86 17.49-1.74 5.78-2.94 11.42-3.65 16.65-0.7 5.24-0.9 10.06-0.66 14.2 0.54 8.91 3.9 17.77 9.35 26.05 5.46 8.28 13.01 15.99 21.94 22.58 8.92 6.6 19.22 12.08 30.17 15.91 10.94 3.84 22.53 6.02 34.05 6.02 11.51 0 23.11-2.19 34.05-6.02 10.95-3.83 21.24-9.31 30.17-15.91 8.93-6.59 16.48-14.3 21.93-22.58 5.46-8.28 8.82-17.14 9.35-26.05 0.25-4.14 0.05-8.96-0.66-14.2-0.7-5.23-1.9-10.87-3.64-16.65-1.73-5.78-4.01-11.7-6.86-17.49-2.85-5.79-6.28-11.46-10.33-16.72-5.09-6.61-11.27-11.7-17.91-15.6-6.65-3.89-13.76-6.61-20.71-8.48-6.96-1.87-13.76-2.91-19.77-3.45-6.02-0.54-11.26-0.59-15.09-0.49q-0.1 0-0.24 0-0.14 0-0.3 0-0.15 0-0.29 0-0.14 0-0.24 0-0.42-0.01-0.86-0.02-0.44-0.01-0.9-0.02-0.47-0.01-0.95-0.01-0.48-0.01-0.98-0.01z"/>
	<path class="s8" d="m235.78 171.79q-0.21 0.01-0.41-0.03-0.2-0.03-0.4-0.1-0.2-0.06-0.38-0.17-0.19-0.1-0.36-0.23-0.41-0.33-0.64-0.76-0.24-0.44-0.29-0.92-0.06-0.48 0.07-0.95 0.13-0.48 0.45-0.89 2.05-2.58 4.54-4.52 2.5-1.95 5.44-3.24 2.94-1.31 6.31-1.96 3.37-0.65 7.17-0.65 0.52 0 0.97 0.2 0.45 0.19 0.79 0.53 0.35 0.34 0.54 0.8 0.19 0.45 0.2 0.97-0.01 0.52-0.2 0.97-0.19 0.45-0.54 0.8-0.34 0.34-0.79 0.53-0.45 0.2-0.97 0.2-3.2 0-6.02 0.53-2.82 0.54-5.27 1.6-2.45 1.06-4.51 2.65-2.07 1.59-3.74 3.7-0.19 0.23-0.41 0.41-0.23 0.18-0.48 0.3-0.25 0.12-0.52 0.18-0.27 0.05-0.55 0.05z"/>
	<path class="s8" d="m154.72 171.79q-0.28 0-0.55-0.06-0.27-0.05-0.53-0.18-0.25-0.11-0.47-0.29-0.23-0.18-0.41-0.41-1.68-2.11-3.74-3.7-2.07-1.59-4.51-2.65-2.45-1.06-5.28-1.6-2.82-0.53-6.01-0.53-0.52-0.01-0.97-0.2-0.46-0.19-0.8-0.53-0.34-0.35-0.53-0.8-0.2-0.45-0.2-0.97 0-0.52 0.2-0.98 0.19-0.45 0.53-0.79 0.34-0.34 0.8-0.54 0.45-0.19 0.97-0.19 3.79 0 7.16 0.65 3.37 0.65 6.31 1.95 2.94 1.3 5.44 3.25 2.5 1.94 4.55 4.52 0.32 0.41 0.45 0.89 0.12 0.47 0.07 0.95-0.06 0.48-0.29 0.92-0.24 0.43-0.64 0.75-0.17 0.14-0.36 0.24-0.19 0.1-0.38 0.17-0.2 0.07-0.4 0.1-0.21 0.04-0.41 0.03z"/>
	<path class="s8" d="m204.4 198.47q-0.26 0-0.51-0.05-0.26-0.06-0.5-0.16-0.25-0.11-0.47-0.27-0.21-0.16-0.4-0.38-0.34-0.39-0.49-0.86-0.15-0.47-0.12-0.95 0.03-0.48 0.25-0.93 0.21-0.44 0.6-0.78c1.1-0.96 2.45-1.94 3.96-2.86 1.52-0.92 3.2-1.8 4.97-2.56 1.78-0.76 3.65-1.42 5.53-1.9 1.88-0.48 3.78-0.78 5.62-0.86q0.52-0.02 0.98 0.16 0.46 0.17 0.81 0.5 0.36 0.33 0.58 0.77 0.21 0.45 0.23 0.97 0.02 0.52-0.16 0.98-0.17 0.46-0.5 0.82-0.33 0.35-0.77 0.56-0.45 0.21-0.97 0.24c-1.53 0.06-3.14 0.33-4.73 0.74-1.6 0.41-3.19 0.98-4.7 1.63-1.51 0.65-2.95 1.4-4.23 2.18-1.29 0.78-2.42 1.6-3.33 2.39q-0.18 0.16-0.38 0.27-0.19 0.12-0.4 0.2-0.21 0.07-0.43 0.11-0.22 0.04-0.44 0.04z"/>
	<path class="s8" d="m186.09 198.47q-0.22 0-0.44-0.04-0.21-0.04-0.42-0.11-0.21-0.08-0.41-0.19-0.19-0.12-0.37-0.27c-0.92-0.8-2.05-1.62-3.33-2.4-1.29-0.78-2.72-1.52-4.24-2.18-1.51-0.65-3.1-1.22-4.69-1.63-1.6-0.41-3.2-0.68-4.74-0.74q-0.52-0.02-0.96-0.23-0.45-0.22-0.77-0.57-0.33-0.36-0.51-0.82-0.17-0.46-0.16-0.98 0.03-0.52 0.24-0.96 0.21-0.45 0.57-0.78 0.36-0.33 0.81-0.5 0.46-0.18 0.98-0.16c1.84 0.08 3.74 0.39 5.63 0.86 1.88 0.48 3.75 1.14 5.52 1.9 1.78 0.76 3.46 1.64 4.97 2.56 1.52 0.92 2.86 1.9 3.96 2.86q0.4 0.34 0.61 0.79 0.21 0.44 0.25 0.92 0.03 0.48-0.12 0.95-0.15 0.47-0.49 0.87-0.19 0.21-0.41 0.37-0.22 0.16-0.46 0.27-0.24 0.1-0.5 0.16-0.26 0.05-0.52 0.05z"/>
	<path class="s8" d="m172.04 241.48q-0.36 0-0.71-0.1-0.34-0.11-0.64-0.3-0.3-0.19-0.54-0.47-0.24-0.28-0.4-0.63-0.21-0.48-0.21-0.97-0.01-0.49 0.17-0.94 0.17-0.45 0.51-0.81 0.34-0.36 0.81-0.57l6.05-2.67 6.05-2.66 6.05-2.66 6.05-2.66q0.24-0.11 0.5-0.16 0.25-0.05 0.51-0.05 0.26 0 0.52 0.05 0.25 0.06 0.49 0.16l6 2.66 6 2.67 5.99 2.66 6 2.66q0.47 0.21 0.81 0.57 0.33 0.37 0.51 0.82 0.17 0.45 0.16 0.94 0 0.49-0.21 0.97-0.22 0.47-0.58 0.81-0.35 0.33-0.81 0.51-0.45 0.17-0.94 0.17-0.49-0.01-0.97-0.22l-5.75-2.55-5.74-2.55-5.74-2.55-5.75-2.55-5.79 2.55-5.8 2.55-5.8 2.55-5.8 2.55q-0.12 0.06-0.24 0.1-0.13 0.04-0.26 0.06-0.12 0.03-0.25 0.04-0.12 0.02-0.25 0.02z"/>
	<path class="s8" d="m196.24 230.83q-0.52-0.01-0.97-0.2-0.46-0.19-0.8-0.54-0.34-0.34-0.54-0.79-0.19-0.45-0.19-0.97v-5.75-5.75-5.75-5.75q0-0.52 0.19-0.98 0.2-0.45 0.54-0.79 0.34-0.34 0.8-0.54 0.45-0.19 0.97-0.19 0.52 0 0.97 0.19 0.45 0.2 0.8 0.54 0.34 0.34 0.53 0.79 0.2 0.46 0.2 0.98v5.75 5.75 5.75 5.75q-0.01 0.52-0.2 0.97-0.19 0.45-0.53 0.79-0.35 0.35-0.8 0.54-0.45 0.19-0.97 0.2z"/>
	<path class="s8" d="m223.96 439.94c-4.66 0-8.63 0-11.99-0.15-3.37-0.14-6.12-0.43-8.34-1.01-2.21-0.59-3.89-1.46-5.1-2.76-1.21-1.31-1.95-3.06-2.3-5.38q-0.28-1.91 0.1-3.8 0.38-1.89 1.33-3.61 0.94-1.71 2.36-3.1 1.41-1.39 3.2-2.31c0.85-5.91 1.47-11.97 1.93-17.89 0.45-5.92 0.74-11.7 0.9-17.08 0.16-5.37 0.2-10.34 0.16-14.62-0.04-4.28-0.15-7.88-0.28-10.52q-0.03-0.52 0.14-0.98 0.17-0.46 0.5-0.82 0.32-0.36 0.76-0.58 0.44-0.21 0.96-0.25 0.52-0.02 0.98 0.15 0.46 0.17 0.82 0.5 0.36 0.32 0.58 0.76 0.22 0.44 0.25 0.96c0.15 2.94 0.27 6.79 0.31 11.29 0.03 4.51-0.01 9.66-0.19 15.22-0.18 5.55-0.5 11.5-0.99 17.58-0.5 6.08-1.17 12.3-2.08 18.39q-0.05 0.34-0.19 0.65-0.14 0.31-0.35 0.57-0.22 0.26-0.49 0.46-0.28 0.19-0.61 0.31-1.23 0.45-2.25 1.29-1.02 0.84-1.73 1.95-0.72 1.1-1.03 2.32-0.32 1.22-0.15 2.41c0.18 1.17 0.52 2.07 1.23 2.76 0.71 0.69 1.78 1.18 3.42 1.52 1.63 0.34 3.83 0.53 6.79 0.64 2.96 0.1 6.67 0.13 11.35 0.13 7.47 0 14.26-3.32 20.36-8.6 6.1-5.29 11.5-12.54 16.19-20.42 4.69-7.88 8.67-16.38 11.92-24.16 3.26-7.78 5.79-14.84 7.57-19.84q0.18-0.48 0.52-0.85 0.33-0.36 0.77-0.56 0.44-0.21 0.93-0.24 0.49-0.03 0.98 0.14 0.49 0.18 0.85 0.52 0.36 0.33 0.57 0.77 0.21 0.44 0.24 0.93 0.02 0.49-0.15 0.98c-1.87 5.22-4.51 12.6-7.95 20.73-3.43 8.14-7.66 17.03-12.7 25.26-5.04 8.24-10.89 15.82-17.57 21.35-6.67 5.52-14.18 8.99-22.53 8.99zm-18.46-20.38h0.01-0.01z"/>
	<path class="s8" d="m297.65 431.58h-13.2-13.2-13.2-13.19q-0.53-0.01-0.98-0.2-0.45-0.19-0.79-0.54-0.35-0.34-0.54-0.79-0.19-0.45-0.19-0.97 0-0.53 0.19-0.98 0.19-0.45 0.54-0.79 0.34-0.34 0.79-0.54 0.45-0.19 0.98-0.19h13.19 13.2 13.2 13.2q3.9 0 7.46-0.79 3.56-0.79 6.77-2.35 3.22-1.56 6.07-3.9 2.86-2.34 5.34-5.45c3.06-3.81 5.57-8.37 7.52-13.51 1.96-5.15 3.35-10.87 4.17-17.01 0.81-6.14 1.04-12.7 0.67-19.5-0.38-6.81-1.35-13.87-2.96-21.01-0.95-4.23-2.35-8.95-4.05-13.95-1.7-5.01-3.71-10.3-5.88-15.68-2.16-5.38-4.48-10.86-6.81-16.23-2.34-5.36-4.68-10.63-6.89-15.58q-1.49-3.34-2.86-6.43-1.37-3.09-2.59-5.9-1.23-2.81-2.27-5.32-1.05-2.51-1.9-4.67-0.18-0.49-0.17-0.98 0.02-0.49 0.22-0.93 0.19-0.45 0.54-0.79 0.35-0.35 0.84-0.54 0.49-0.18 0.98-0.17 0.49 0.02 0.93 0.21 0.45 0.2 0.79 0.55 0.34 0.35 0.53 0.84 0.83 2.12 1.87 4.59 1.04 2.48 2.25 5.27 1.21 2.79 2.57 5.85 1.36 3.07 2.84 6.38c2.23 5.01 4.6 10.33 6.96 15.75 2.35 5.43 4.7 10.97 6.89 16.43 2.19 5.46 4.23 10.83 5.96 15.93 1.73 5.1 3.16 9.93 4.13 14.28 1.69 7.5 2.7 14.93 3.07 22.11 0.37 7.18 0.1 14.11-0.8 20.61-0.9 6.51-2.42 12.59-4.53 18.07-2.12 5.48-4.83 10.36-8.11 14.46q-2.82 3.53-6.13 6.21-3.3 2.68-7.03 4.49-3.73 1.81-7.84 2.73-4.12 0.92-8.55 0.93z"/>
	<path class="s8" d="m166.04 439.94c-8.35 0-15.86-3.47-22.53-8.99-6.68-5.53-12.53-13.11-17.57-21.35-5.04-8.23-9.27-17.12-12.7-25.26-3.44-8.13-6.08-15.51-7.95-20.73q-0.17-0.49-0.14-0.98 0.03-0.49 0.23-0.93 0.21-0.44 0.57-0.77 0.36-0.34 0.85-0.52 0.49-0.17 0.98-0.14 0.49 0.03 0.93 0.24 0.44 0.2 0.77 0.56 0.34 0.36 0.52 0.85c1.78 5 4.31 12.06 7.57 19.84 3.25 7.78 7.23 16.28 11.92 24.16 4.69 7.88 10.09 15.13 16.19 20.42 6.1 5.28 12.89 8.6 20.36 8.6 4.67 0 8.39-0.03 11.35-0.13 2.96-0.11 5.16-0.31 6.79-0.64 1.64-0.34 2.71-0.83 3.42-1.52 0.71-0.69 1.05-1.59 1.23-2.76q0.17-1.19-0.15-2.41-0.31-1.22-1.03-2.32-0.71-1.11-1.73-1.95-1.02-0.85-2.25-1.29-0.33-0.12-0.61-0.32-0.27-0.19-0.49-0.45-0.21-0.26-0.35-0.57-0.14-0.31-0.19-0.65c-0.91-6.09-1.59-12.31-2.08-18.39-0.5-6.09-0.81-12.03-0.99-17.59-0.18-5.55-0.23-10.71-0.19-15.21 0.04-4.51 0.15-8.35 0.31-11.29q0.03-0.52 0.24-0.96 0.22-0.44 0.58-0.76 0.36-0.33 0.82-0.5 0.46-0.17 0.99-0.14 0.52 0.03 0.96 0.24 0.44 0.22 0.76 0.58 0.33 0.36 0.5 0.82 0.17 0.46 0.14 0.98c-0.14 2.64-0.25 6.24-0.28 10.52-0.04 4.28 0 9.25 0.16 14.62 0.16 5.38 0.45 11.16 0.9 17.08 0.46 5.92 1.08 11.98 1.93 17.89q1.79 0.92 3.2 2.31 1.42 1.39 2.36 3.1 0.95 1.72 1.33 3.61 0.38 1.89 0.1 3.8c-0.35 2.32-1.09 4.07-2.3 5.37-1.21 1.31-2.89 2.18-5.11 2.76-2.21 0.59-4.96 0.88-8.33 1.02-3.36 0.15-7.33 0.15-11.99 0.15z"/>
	<path class="s8" d="m145.14 431.58h-13.19-13.2-13.2-13.2q-4.43 0-8.54-0.93-4.11-0.92-7.84-2.73-3.74-1.81-7.04-4.49-3.31-2.68-6.13-6.21c-3.28-4.1-5.99-8.98-8.11-14.46-2.11-5.48-3.63-11.56-4.53-18.07-0.89-6.5-1.17-13.43-0.8-20.61 0.37-7.18 1.39-14.61 3.07-22.11 0.98-4.35 2.4-9.18 4.14-14.28 1.73-5.1 3.76-10.47 5.95-15.93 2.19-5.46 4.54-11 6.9-16.42 2.36-5.43 4.72-10.75 6.95-15.76q1.48-3.31 2.84-6.37 1.36-3.07 2.57-5.86 1.22-2.79 2.25-5.26 1.04-2.48 1.87-4.6 0.19-0.49 0.54-0.84 0.34-0.35 0.78-0.54 0.45-0.2 0.94-0.21 0.49-0.02 0.98 0.16 0.48 0.2 0.83 0.54 0.35 0.34 0.55 0.79 0.19 0.44 0.21 0.93 0.01 0.49-0.17 0.98-0.85 2.17-1.89 4.67-1.05 2.51-2.28 5.32-1.22 2.82-2.59 5.91-1.37 3.09-2.86 6.42c-2.21 4.96-4.55 10.22-6.88 15.59-2.34 5.36-4.66 10.84-6.82 16.22-2.17 5.38-4.17 10.68-5.88 15.68-1.7 5.01-3.1 9.72-4.05 13.96-1.61 7.14-2.58 14.19-2.96 21-0.37 6.8-0.14 13.36 0.67 19.5 0.82 6.14 2.21 11.87 4.17 17.01 1.95 5.14 4.46 9.7 7.52 13.52q2.48 3.1 5.34 5.44 2.85 2.34 6.07 3.9 3.21 1.57 6.77 2.35 3.56 0.79 7.46 0.79h13.2 13.2 13.2 13.19q0.53 0 0.98 0.19 0.45 0.2 0.79 0.54 0.34 0.34 0.54 0.79 0.19 0.46 0.19 0.98 0 0.52-0.19 0.97-0.2 0.45-0.54 0.79-0.34 0.35-0.79 0.54-0.45 0.19-0.98 0.2z"/>
	<path class="s8" d="m198.01 431.58h-1.56-1.56-1.57-1.56q-0.52-0.01-0.97-0.2-0.46-0.19-0.8-0.54-0.34-0.34-0.53-0.79-0.2-0.45-0.2-0.97 0-0.53 0.2-0.98 0.19-0.45 0.53-0.79 0.34-0.34 0.8-0.54 0.45-0.19 0.97-0.19h1.56 1.57 1.56 1.56q0.52 0 0.97 0.19 0.46 0.19 0.8 0.54 0.34 0.34 0.53 0.79 0.2 0.45 0.2 0.98 0 0.52-0.2 0.97-0.19 0.45-0.53 0.79-0.34 0.35-0.8 0.54-0.45 0.19-0.97 0.2z"/>
	<path class="s8" d="m286.09 355.73q-0.11 0-0.22-0.01-0.1-0.01-0.21-0.03-0.11-0.02-0.22-0.05-0.11-0.03-0.21-0.07-0.49-0.18-0.85-0.52-0.36-0.33-0.56-0.77-0.2-0.44-0.23-0.93-0.02-0.49 0.15-0.98l0.96-2.61 0.95-2.6 0.96-2.6 0.96-2.6q0.18-0.49 0.52-0.85 0.34-0.36 0.78-0.56 0.44-0.2 0.93-0.23 0.49-0.02 0.98 0.15 0.48 0.19 0.84 0.52 0.36 0.34 0.56 0.78 0.21 0.44 0.23 0.93 0.03 0.49-0.15 0.98l-0.95 2.61-0.96 2.6-0.96 2.6-0.95 2.6q-0.15 0.38-0.39 0.68-0.23 0.31-0.55 0.52-0.31 0.21-0.67 0.33-0.36 0.11-0.74 0.11z"/>
	<path class="s8" d="m104.24 355.12q-0.39 0-0.75-0.12-0.36-0.11-0.68-0.33-0.31-0.21-0.55-0.52-0.24-0.3-0.38-0.69l-0.69-1.91-0.68-1.91-0.69-1.92-0.69-1.91q-0.17-0.49-0.15-0.98 0.03-0.49 0.24-0.93 0.2-0.44 0.56-0.77 0.36-0.34 0.85-0.52 0.49-0.17 0.99-0.14 0.49 0.03 0.92 0.23 0.44 0.21 0.78 0.57 0.33 0.36 0.51 0.85l0.69 1.91 0.69 1.91 0.69 1.92 0.69 1.91q0.17 0.49 0.14 0.98-0.03 0.49-0.23 0.93-0.21 0.44-0.57 0.77-0.36 0.34-0.85 0.52-0.1 0.04-0.21 0.06-0.11 0.03-0.21 0.05-0.11 0.02-0.21 0.03-0.11 0.01-0.21 0.01z"/>
	<path class="s8" d="m320.04 368.83q-0.49 0-0.92-0.18-0.43-0.17-0.77-0.48-0.34-0.31-0.55-0.73-0.2-0.42-0.25-0.91l-0.03-0.45-0.04-0.45-0.03-0.44-0.04-0.45c-0.08-1.08-0.18-2.35-0.29-3.68-0.11-1.34-0.24-2.75-0.38-4.13-0.15-1.37-0.31-2.72-0.49-3.92-0.17-1.2-0.37-2.25-0.59-3.06q-0.13-0.51-0.06-0.99 0.07-0.49 0.31-0.91 0.24-0.42 0.63-0.72 0.39-0.31 0.89-0.44 0.5-0.13 0.99-0.06 0.48 0.07 0.91 0.31 0.41 0.24 0.72 0.62 0.3 0.39 0.44 0.89c0.25 0.92 0.47 2.07 0.66 3.34 0.2 1.27 0.37 2.67 0.53 4.1 0.15 1.43 0.29 2.9 0.4 4.31 0.12 1.41 0.23 2.76 0.32 3.96l0.03 0.44 0.04 0.44 0.03 0.45 0.03 0.44q0.04 0.52-0.12 0.99-0.15 0.46-0.47 0.83-0.31 0.37-0.75 0.6-0.43 0.23-0.95 0.27-0.03 0-0.05 0-0.03 0.01-0.05 0.01-0.03 0-0.05 0-0.02 0-0.05 0z"/>
	<path class="s8" d="m327.65 350.52q-0.44 0-0.85-0.14-0.4-0.15-0.73-0.42-0.33-0.27-0.56-0.64-0.23-0.38-0.31-0.83-0.42-2.17-0.84-4.03-0.42-1.85-0.88-3.56-0.47-1.72-1-3.45-0.53-1.74-1.17-3.67-0.16-0.5-0.12-0.99 0.05-0.49 0.27-0.92 0.21-0.44 0.58-0.76 0.37-0.32 0.87-0.49 0.49-0.16 0.98-0.12 0.49 0.05 0.92 0.26 0.44 0.22 0.76 0.59 0.32 0.37 0.49 0.87 0.66 2 1.22 3.81 0.55 1.81 1.03 3.59 0.49 1.79 0.93 3.73 0.44 1.94 0.87 4.21 0.09 0.51-0.01 0.99-0.11 0.48-0.38 0.88-0.27 0.4-0.68 0.67-0.41 0.28-0.92 0.38-0.06 0.01-0.12 0.02-0.06 0.01-0.12 0.01-0.05 0.01-0.11 0.01-0.06 0-0.12 0z"/>
	<path class="s8" d="m330.11 381.78q-0.02 0-0.04 0-0.02 0-0.03 0-0.02 0-0.04 0-0.01 0-0.03 0-0.52-0.04-0.96-0.25-0.44-0.22-0.77-0.58-0.32-0.36-0.49-0.82-0.17-0.47-0.14-0.99 0.1-1.92 0.13-3.74 0.04-1.81-0.01-3.62-0.04-1.81-0.16-3.74-0.12-1.92-0.32-4.07-0.05-0.52 0.1-0.99 0.15-0.46 0.46-0.84 0.31-0.37 0.74-0.6 0.43-0.24 0.95-0.29 0.52-0.04 0.99 0.11 0.47 0.15 0.84 0.46 0.37 0.31 0.61 0.74 0.23 0.43 0.28 0.95 0.21 2.22 0.34 4.24 0.12 2.01 0.17 3.93 0.04 1.91 0.01 3.82-0.03 1.91-0.14 3.92-0.03 0.5-0.24 0.93-0.2 0.43-0.54 0.75-0.34 0.32-0.78 0.5-0.44 0.18-0.93 0.18z"/>
	<path class="s8" d="m305.45 224.14q0-0.65 0.19-1.21 0.2-0.57 0.54-1 0.34-0.42 0.79-0.67 0.46-0.24 0.98-0.24 0.52 0 0.97 0.24 0.45 0.25 0.79 0.67 0.35 0.43 0.54 1 0.19 0.56 0.2 1.21-0.01 0.65-0.2 1.22-0.19 0.56-0.54 0.99-0.34 0.43-0.79 0.67-0.45 0.24-0.97 0.25-0.52-0.01-0.98-0.25-0.45-0.24-0.79-0.67-0.34-0.43-0.54-0.99-0.19-0.56-0.19-1.22z"/>
	<path class="s8" d="m309.39 203q0-0.66 0.2-1.22 0.19-0.57 0.53-0.99 0.35-0.43 0.8-0.67 0.45-0.24 0.97-0.25 0.52 0 0.97 0.25 0.46 0.24 0.8 0.67 0.34 0.43 0.53 0.99 0.2 0.57 0.2 1.22 0 0.65-0.2 1.21-0.19 0.57-0.53 0.99-0.34 0.43-0.8 0.68-0.45 0.24-0.97 0.24-0.52 0-0.97-0.24-0.45-0.25-0.8-0.68-0.34-0.42-0.53-0.99-0.2-0.56-0.2-1.21z"/>
	<path class="s8" d="m315.14 216.25q0-0.66 0.2-1.22 0.19-0.57 0.53-0.99 0.35-0.43 0.8-0.67 0.45-0.24 0.97-0.25 0.52 0 0.97 0.25 0.46 0.24 0.8 0.67 0.34 0.43 0.53 0.99 0.2 0.57 0.2 1.22 0 0.65-0.2 1.21-0.19 0.57-0.53 0.99-0.34 0.43-0.8 0.68-0.45 0.24-0.97 0.24-0.52 0-0.97-0.24-0.45-0.25-0.8-0.68-0.34-0.42-0.53-0.99-0.2-0.56-0.2-1.21z"/>
</svg>