<svg version="1.2" xmlns="http://www.w3.org/2000/svg" viewBox="0 0 421 579" width="421" height="579">
	<style>
		.s0 { fill: #c0a8b7 } 
		.s1 { fill: #f3a370 } 
		.s2 { fill: #597494 } 
		.s3 { fill: #7996b8 } 
		.s4 { fill: #d77e56 } 
		.s5 { fill: #edae84 } 
		.s6 { fill: #9bb1c9 } 
		.s7 { fill: #4a0630 } 
	</style>
	<path class="s0" d="m51.83 408.13c0-4.48 4.52-8.76 12.7-12.65 8.19-3.88 20.03-7.39 34.66-10.33 14.63-2.94 32.05-5.32 51.4-6.96 19.34-1.65 40.61-2.56 62.94-2.56 22.33 0 43.6 0.91 62.94 2.56 19.35 1.64 36.77 4.02 51.4 6.96 14.63 2.94 26.47 6.45 34.66 10.33 8.18 3.89 12.7 8.17 12.7 12.65 0 4.49-4.52 8.77-12.7 12.66-8.19 3.88-20.03 7.39-34.66 10.33-14.63 2.94-32.05 5.32-51.4 6.96-19.34 1.65-40.61 2.55-62.94 2.55-22.33 0-43.6-0.9-62.94-2.55-19.35-1.64-36.77-4.02-51.4-6.96-14.63-2.95-26.47-6.45-34.65-10.33-8.19-3.89-12.71-8.17-12.71-12.66z"/>
	<path class="s1" d="m149.4 194.17c-10.3 6.14-20.32 12.54-29.83 19.28-9.51 6.73-18.52 13.79-26.8 21.26-8.28 7.47-15.84 15.35-22.46 23.7-6.62 8.36-12.3 17.19-16.81 26.58-4.52 9.39-7.88 19.67-10.06 30.19-2.19 10.51-3.19 21.26-3 31.58 0.19 10.32 1.58 20.2 4.18 29 2.61 8.79 6.43 16.49 11.49 22.44q12.02 3.55 24.33 5.9 12.31 2.36 24.8 3.51 12.48 1.15 25.02 1.08 12.54-0.08 25.03-1.41c0.2-1.94 0.78-3.8 1.66-5.53 0.89-1.72 2.07-3.29 3.47-4.64 1.4-1.35 3.02-2.46 4.78-3.28 1.75-0.81 3.64-1.32 5.59-1.44q9.68-0.6 19.42-1.19 9.73-0.59 19.6-1.15 9.88-0.55 19.98-1.03 10.1-0.49 20.53-0.88c0.16-6.07 0.44-12.49 0.78-19.1 0.34-6.6 0.73-13.38 1.13-20.16 0.39-6.78 0.79-13.56 1.13-20.16 0.33-6.6 0.61-13.03 0.78-19.1 0.07-2.56 0.31-4.93 0.8-7.05 0.48-2.13 1.21-4.01 2.24-5.62 1.04-1.6 2.38-2.93 4.1-3.94 1.72-1.01 3.82-1.71 6.37-2.04 0.59-0.08 1.81-0.34 3.55-0.72 1.75-0.37 4.02-0.85 6.73-1.38 2.71-0.52 5.86-1.08 9.35-1.6 3.49-0.53 7.32-1.02 11.4-1.4 0-5.61 0.14-10.16 0.52-13.95 0.38-3.79 1.01-6.81 1.99-9.36 0.99-2.55 2.32-4.63 4.13-6.52 1.8-1.89 4.06-3.6 6.9-5.42 6.86-4.39 12.86-9.96 17.84-16.33 4.97-6.36 8.92-13.52 11.67-21.06 2.75-7.54 4.3-15.48 4.49-23.41 0.2-7.92-0.97-15.85-3.67-23.36-6.67-6-14.05-11.21-21.91-15.56-7.86-4.36-16.21-7.87-24.83-10.45-8.61-2.58-17.48-4.24-26.39-4.9-8.9-0.66-17.85-0.33-26.6 1.06-18.33 2.92-31.22 6.72-40.76 11.08-9.55 4.36-15.75 9.3-20.73 14.5-4.97 5.2-8.71 10.66-13.33 16.1-4.62 5.43-10.12 10.82-18.6 15.88z"/>
	<path class="s2" d="m249.23 387.7c-7.13 0.69-15.44 1.1-24.03 1.39-8.59 0.28-17.46 0.44-25.72 0.63-8.26 0.18-15.91 0.39-22.07 0.77-6.16 0.38-10.81 0.93-13.09 1.81-1.48 0.57-2.92 2-4.15 3.81-1.22 1.81-2.23 4.02-2.85 6.15-0.62 2.13-0.85 4.19-0.52 5.72 0.33 1.53 1.23 2.52 2.85 2.52 5.31 0 11.85-0.01 19.17-0.05 7.32-0.05 15.42-0.13 23.84-0.28 8.43-0.15 17.17-0.37 25.79-0.67 8.61-0.31 17.1-0.7 25-1.22-3.73 0.36-6.64-0.45-8.7-1.94-2.07-1.49-3.29-3.65-3.67-6.02-0.37-2.36 0.12-4.91 1.47-7.18 1.35-2.26 3.57-4.24 6.68-5.44z"/>
	<path class="s3" d="m249.72 387.7c-6.3 0.49-13.64 0.77-21.22 0.97-7.59 0.21-15.43 0.32-22.72 0.45-7.3 0.13-14.06 0.27-19.5 0.54-5.44 0.27-9.55 0.65-11.56 1.27-1.31 0.4-2.58 1.4-3.67 2.67-1.08 1.28-1.97 2.82-2.51 4.32-0.55 1.49-0.75 2.94-0.46 4.01 0.29 1.07 1.08 1.77 2.52 1.77 4.68 0 10.46 0 16.93-0.04 6.47-0.03 13.62-0.09 21.06-0.19 7.44-0.11 15.16-0.26 22.77-0.47 7.61-0.21 15.11-0.49 22.09-0.86-3.3 0.25-5.86-0.31-7.69-1.36-1.82-1.04-2.91-2.56-3.24-4.22-0.32-1.66 0.1-3.45 1.3-5.04 1.19-1.59 3.16-2.98 5.9-3.82z"/>
	<path class="s2" d="m249.23 387.7c0.31-8.31 0.7-17.36 1.16-26.44 0.46-9.07 0.99-18.17 1.57-26.58 0.58-8.4 1.22-16.11 1.89-22.42 0.66-6.3 1.37-11.2 2.09-13.97 1.07-4.08 9.31-7.28 21.24-9.64 11.94-2.36 27.56-3.87 43.41-4.57 15.85-0.7 31.91-0.6 44.72 0.28 12.81 0.88 22.35 2.53 25.17 4.93 2.2 1.87 2.67 9.32 2.03 19.51-0.64 10.2-2.4 23.15-4.66 36.05-2.25 12.9-4.99 25.75-7.61 35.72-2.62 9.98-5.11 17.1-6.85 18.53-1.32 1.09-6.96 2.02-15.32 2.85-8.35 0.83-19.41 1.56-31.57 2.25-12.15 0.69-25.39 1.33-38.11 2-12.72 0.66-24.9 1.33-34.95 2.08-2.69 0.43-4.8 0.29-6.44-0.24-1.65-0.54-2.83-1.46-3.69-2.61-0.86-1.14-1.38-2.49-1.72-3.89-0.33-1.39-0.47-2.83-0.54-4.12-0.09-1.63 0.38-3.05 1.13-4.27 0.75-1.21 1.78-2.22 2.82-3.03 1.05-0.81 2.11-1.41 2.9-1.81 0.8-0.41 1.33-0.61 1.33-0.61z"/>
	<path class="s3" d="m258.73 392.28c0.29-7.78 0.69-16.46 1.17-25.26 0.48-8.8 1.05-17.72 1.66-25.99 0.61-8.27 1.28-15.89 1.95-22.1 0.68-6.2 1.37-10.99 2.04-13.58 1-3.82 8.66-6.82 19.75-9.02 11.1-2.21 25.63-3.62 40.36-4.28 14.74-0.66 29.67-0.56 41.58 0.26 11.91 0.83 20.78 2.37 23.4 4.61 2.05 1.76 2.49 8.73 1.89 18.27-0.6 9.55-2.23 21.67-4.33 33.74-2.09 12.08-4.64 24.1-7.08 33.44-2.43 9.34-4.75 15.99-6.37 17.34-1.22 1.02-6.47 1.89-14.24 2.67-7.77 0.77-18.05 1.46-29.35 2.1-11.3 0.65-23.62 1.25-35.44 1.87-11.82 0.62-23.15 1.25-32.49 1.95-2.51 0.4-3.87 0.4-4.49 0.1-0.63-0.3-0.53-0.9-0.12-1.7 0.41-0.81 1.12-1.81 1.71-2.92 0.6-1.11 1.07-2.31 1-3.52-0.08-1.53-0.29-2.79-0.55-3.83-0.26-1.03-0.57-1.84-0.87-2.45-0.31-0.62-0.6-1.04-0.82-1.32-0.21-0.27-0.36-0.38-0.36-0.38z"/>
	<path class="s4" d="m170.04 176.66c-2.39-0.24-4.67-1.03-6.73-2.21-2.06-1.18-3.91-2.77-5.42-4.62-1.52-1.86-2.71-3.98-3.46-6.23-0.75-2.26-1.07-4.65-0.84-7.04 0.23-2.39 0.99-4.67 2.16-6.75 1.17-2.07 2.74-3.92 4.58-5.45 1.84-1.53 3.95-2.74 6.2-3.51 2.25-0.77 4.64-1.11 7.03-0.89 3.13 0.27 6.21 0.95 9.16 1.98 2.96 1.03 5.8 2.42 8.44 4.11 2.64 1.7 5.08 3.7 7.25 5.96 2.17 2.25 4.07 4.77 5.62 7.5q0.88 1.56 1.14 3.32 0.25 1.75-0.06 3.53-0.3 1.77-1.1 3.41-0.79 1.64-1.99 2.98-1.21 1.33-2.68 2.33-1.47 1-3.13 1.69-1.66 0.69-3.42 1.1-1.77 0.41-3.56 0.56c-1.18 0.1-2.37 0.11-3.64 0.04-1.26-0.07-2.6-0.21-4.09-0.39-1.5-0.19-3.15-0.42-5.03-0.66-1.88-0.24-4-0.5-6.43-0.76z"/>
	<path class="s4" d="m231.78 139.92c-0.43-1.38-0.56-2.81-0.45-4.23 0.11-1.42 0.48-2.82 1.05-4.15 0.57-1.33 1.35-2.57 2.3-3.67 0.94-1.1 2.06-2.06 3.29-2.81q1.87-1.11 3.96-1.66 2.08-0.55 4.26-0.58 2.18-0.03 4.33 0.42 2.14 0.46 4.13 1.35 1.98 0.9 3.74 2.14 1.77 1.24 3.33 2.75 1.56 1.52 2.9 3.24 1.35 1.72 2.47 3.58-4.69-0.26-9.35-0.17-4.66 0.1-9.16 0.55-4.5 0.45-8.73 1.27-4.23 0.8-8.07 1.97z"/>
	<path class="s4" d="m299.9 255.38c-3.18 0.64-6.77-1.9-10.24-6.44-3.46-4.53-6.8-11.05-9.47-18.35-2.67-7.31-4.67-15.4-5.46-23.06-0.8-7.67-0.38-14.92 1.79-20.54 2.06-5.33 4.94-10.04 8.49-14.08 3.56-4.04 7.78-7.4 12.52-10.03 4.73-2.62 9.97-4.52 15.57-5.62 5.59-1.1 11.54-1.41 17.68-0.86q2.67 1.96 5.32 3.93 2.66 1.97 5.27 3.98 2.61 2.01 5.14 4.07 2.53 2.07 4.96 4.21c0.45 5.74 0.47 11.93 0.11 18.12-0.37 6.19-1.11 12.39-2.2 18.15-1.09 5.76-2.52 11.09-4.25 15.55-1.73 4.46-3.76 8.05-6.04 10.33-2.61 2.62-6.21 5.18-10.17 7.57-3.97 2.38-8.3 4.58-12.39 6.48-4.08 1.89-7.92 3.47-10.9 4.62-2.98 1.14-5.09 1.84-5.73 1.97z"/>
	<path class="s4" d="m190.28 383.6c2.61-3.17 5.59-6.02 8.86-8.5 3.26-2.49 6.8-4.61 10.53-6.32 3.73-1.72 7.65-3.02 11.66-3.88 4.01-0.86 8.11-1.27 12.22-1.19q0.29 1.07 0.57 2.13 0.29 1.06 0.58 2.13 0.29 1.06 0.58 2.12 0.29 1.06 0.58 2.13c1.09-0.13 2.19 0.01 3.22 0.34 1.03 0.34 2.01 0.89 2.85 1.59 0.85 0.7 1.57 1.55 2.1 2.5 0.53 0.95 0.86 2 0.95 3.1 0.08 1.09-0.09 2.18-0.47 3.2-0.38 1.02-0.96 1.98-1.69 2.79-0.73 0.82-1.61 1.51-2.58 2-0.97 0.49-2.03 0.79-3.13 0.84q-3.92 0.14-7.83 0.29-3.91 0.15-7.82 0.3-3.91 0.15-7.83 0.3-3.91 0.15-7.82 0.29c-1.52 0.06-3.05-0.08-4.53-0.38q-2.24-0.47-4.28-1.33c-1.35-0.58-2.62-1.26-3.75-2.02q-1.72-1.14-2.97-2.43z"/>
	<path class="s4" d="m134.55 408.89q-1.9-2.2-3.32-4.74-1.41-2.54-2.3-5.32-0.89-2.77-1.22-5.66-0.33-2.89-0.06-5.79 0.27-2.89 1.13-5.67 0.85-2.78 2.23-5.34 1.39-2.57 3.25-4.8 1.85-2.24 4.13-4.06 0.75-0.6 1.56-1.14 0.81-0.54 1.68-0.97 0.87-0.42 1.78-0.69 0.92-0.27 1.88-0.35 0.97-0.06 1.93 0.14 0.97 0.2 1.83 0.65 0.86 0.45 1.52 1.13 0.65 0.68 1.01 1.58 1.12 2.89 1.66 5.95 0.54 3.05 0.49 6.15-0.05 3.1-0.68 6.14-0.62 3.04-1.83 5.89-1.22 2.86-2.96 5.42-1.74 2.56-3.9 4.73-2.16 2.18-4.63 3.89-2.48 1.71-5.18 2.86z"/>
	<path class="s4" d="m197.59 203.32c0-3.31 0.78-6.46 2.21-9.33 1.42-2.86 3.48-5.45 6.03-7.61 2.54-2.17 5.57-3.93 8.94-5.14 3.36-1.21 7.06-1.88 10.94-1.88 3.89 0 7.59 0.67 10.95 1.88 3.37 1.21 6.4 2.97 8.94 5.14 2.55 2.16 4.61 4.74 6.03 7.61 1.42 2.87 2.21 6.02 2.21 9.33 0 3.31-0.79 6.46-2.21 9.32-1.42 2.87-3.48 5.45-6.03 7.62-2.54 2.17-5.57 3.92-8.94 5.13-3.36 1.22-7.06 1.89-10.95 1.89-3.88 0-7.58-0.67-10.94-1.89-3.37-1.21-6.4-2.96-8.94-5.13-2.55-2.17-4.61-4.75-6.03-7.62-1.43-2.86-2.21-6.01-2.21-9.32z"/>
	<path class="s5" d="m213.6 188.96q0.1 0.56 0.5 1 0.4 0.45 1.01 0.79 0.61 0.34 1.33 0.56 0.72 0.22 1.43 0.31c1.08 0.14 2.06 0.08 2.9-0.13 0.83-0.21 1.53-0.57 2.04-1 0.51-0.44 0.85-0.95 0.96-1.48 0.11-0.53 0-1.08-0.38-1.58q-0.27-0.36-0.65-0.68-0.38-0.32-0.84-0.57-0.45-0.26-0.97-0.42-0.51-0.17-1.06-0.22-1.44-0.12-2.62 0.16-1.19 0.28-2.04 0.81-0.85 0.54-1.27 1.19-0.42 0.65-0.34 1.26z"/>
	<path class="s6" d="m164.42 159.36q-0.15-2.65-0.29-5.3-0.14-2.66-0.28-5.31-0.15-2.65-0.29-5.31-0.14-2.65-0.28-5.3 3.24-0.71 6.54-0.98 3.31-0.28 6.62-0.12 3.32 0.16 6.58 0.74 3.27 0.59 6.42 1.61-0.21 2.65-0.41 5.3-0.21 2.65-0.42 5.3-0.21 2.65-0.42 5.3-0.21 2.65-0.42 5.3-2.61-1.59-5.53-2.45-2.92-0.87-5.98-1.02-3.05-0.15-6.06 0.41-3.01 0.56-5.78 1.83z"/>
	<path class="s2" d="m164.21 159.29c-2.89 0.98-5.59 2.46-8 4.31-2.41 1.86-4.54 4.09-6.3 6.58-1.77 2.49-3.16 5.24-4.11 8.13-0.94 2.89-1.44 5.92-1.4 8.97 0.03 3.06 0.6 6.08 1.62 8.94 1.02 2.87 2.48 5.58 4.3 8.03 1.82 2.45 4.01 4.63 6.46 6.42 2.46 1.79 5.19 3.21 8.1 4.11 2.92 0.92 5.97 1.31 9.01 1.23 3.04-0.08 6.07-0.63 8.96-1.61 2.89-0.98 5.64-2.38 8.11-4.16 2.46-1.78 4.65-3.94 6.41-6.43 1.77-2.49 3.09-5.27 3.95-8.18 0.87-2.92 1.28-5.98 1.25-9.03-0.04-3.05-0.52-6.09-1.45-8.99-0.93-2.89-2.31-5.64-4.13-8.09-1.82-2.45-4.05-4.56-6.56-6.29-2.51-1.73-5.29-3.07-8.2-3.98-2.92-0.91-5.97-1.39-9.02-1.4-3.05-0.01-6.09 0.46-9 1.44z"/>
	<path class="s3" d="m169.91 181.52c1.68 3.87 3.89 6.64 6.31 8.51 2.41 1.87 5.02 2.84 7.5 3.14 2.47 0.29 4.81-0.1 6.66-0.96 1.85-0.86 3.22-2.19 3.77-3.78 0.83-2.4 0.88-5.05 0.32-7.7-0.56-2.64-1.71-5.28-3.28-7.66-1.57-2.38-3.55-4.5-5.75-6.12-2.2-1.62-4.63-2.73-7.1-3.08-2.59-0.37-4.63 0.05-6.18 1.02-1.54 0.96-2.59 2.48-3.21 4.28-0.62 1.81-0.81 3.91-0.62 6.05 0.18 2.14 0.73 4.33 1.58 6.3z"/>
	<path class="s2" d="m167.85 136.88c0.16-4.35 0.91-8.66 2.17-12.82 1.27-4.15 3.06-8.15 5.29-11.88 2.24-3.73 4.93-7.19 8-10.27 3.06-3.07 6.51-5.76 10.27-7.95 3.76-2.19 7.8-3.86 11.99-5.01 4.19-1.15 8.52-1.78 12.87-1.89 4.35-0.1 8.71 0.32 12.95 1.26 4.24 0.95 8.36 2.43 12.22 4.43 3.86 2.01 7.43 4.53 10.64 7.45 3.22 2.93 6.07 6.26 8.48 9.87 2.41 3.62 4.39 7.53 5.86 11.62 1.46 4.09 2.42 8.36 2.79 12.69q-2.93-1.55-5.85-3.11-2.93-1.56-5.85-3.12-2.93-1.55-5.85-3.11-2.93-1.55-5.85-3.11c0.83-2.71 0.91-5.49 0.4-8.19-0.52-2.7-1.64-5.3-3.21-7.65-1.57-2.34-3.59-4.43-5.91-6.09-2.31-1.66-4.93-2.89-7.69-3.53-2.76-0.64-5.56-0.78-8.34-0.49-2.77 0.28-5.51 0.98-8.14 2.03-2.63 1.04-5.15 2.43-7.49 4.1-2.33 1.65-4.48 3.58-6.36 5.7q-2.81 3.19-4.99 6.81-2.18 3.61-3.85 7.53-1.66 3.92-2.9 8.02-1.25 4.09-2.19 8.25-2.49-0.37-4.96-0.7-2.48-0.33-4.93-0.57-2.45-0.24-4.84-0.32-2.4-0.09-4.73 0.05z"/>
	<path class="s7" d="m301.05 241.35q-0.42 0-0.8-0.13-0.38-0.13-0.71-0.38-0.32-0.24-0.55-0.58-0.24-0.34-0.35-0.76-0.13-0.5-0.07-0.99 0.07-0.48 0.31-0.9 0.24-0.42 0.63-0.73 0.39-0.3 0.89-0.44c5.37-1.46 9.82-2.91 13.51-4.31 3.69-1.4 6.62-2.75 8.94-4.02 2.32-1.26 4.03-2.43 5.3-3.46 1.27-1.04 2.09-1.94 2.62-2.67q0.03-0.03 0.05-0.07 0.03-0.03 0.06-0.07 0.03-0.03 0.06-0.07 0.03-0.03 0.06-0.06c0.25-0.58 0.45-1.77 0.6-3.32 0.16-1.55 0.25-3.46 0.28-5.48 0.04-2.02 0-4.15-0.1-6.14-0.11-1.98-0.3-3.83-0.57-5.27q-0.09-0.52 0.02-1 0.11-0.48 0.38-0.87 0.27-0.4 0.68-0.68 0.41-0.27 0.92-0.37 0.52-0.09 1 0.02 0.48 0.1 0.88 0.38 0.4 0.27 0.67 0.68 0.27 0.41 0.37 0.92 0.22 1.21 0.39 2.78 0.16 1.56 0.26 3.35 0.09 1.8 0.12 3.71 0.02 1.92-0.04 3.84c-0.06 2.1-0.18 3.78-0.34 5.15-0.16 1.37-0.35 2.41-0.57 3.21-0.22 0.81-0.45 1.38-0.69 1.79-0.24 0.41-0.47 0.66-0.7 0.85q-1.72 2.23-4.65 4.36-2.93 2.12-7.05 4.13-4.12 2-9.41 3.88-5.29 1.88-11.74 3.63-0.09 0.02-0.17 0.04-0.08 0.02-0.16 0.03-0.08 0.01-0.17 0.01-0.08 0.01-0.16 0.01zm30.36-19.97q0 0 0 0-0.01 0-0.01 0 0 0 0 0 0 0 0 0 0 0 0.01 0 0 0 0 0z"/>
	<path class="s7" d="m341.97 231.17q-0.04 0-0.08 0-0.04 0-0.08 0-0.04-0.01-0.08-0.01-0.04 0-0.08-0.01c-1.41-0.18-2.78-0.63-4.03-1.2-1.25-0.58-2.39-1.29-3.36-1.97-0.96-0.69-1.76-1.37-2.33-1.88-0.57-0.52-0.91-0.87-0.96-0.92q-0.35-0.39-0.52-0.85-0.17-0.46-0.16-0.94 0.01-0.48 0.21-0.94 0.2-0.45 0.57-0.81 0.38-0.35 0.84-0.52 0.46-0.17 0.95-0.16 0.48 0.01 0.93 0.21 0.45 0.19 0.81 0.57c0.26 0.28 0.67 0.67 1.19 1.1 0.52 0.44 1.15 0.92 1.84 1.39 0.69 0.46 1.46 0.9 2.24 1.25 0.79 0.35 1.61 0.61 2.41 0.71q0.52 0.07 0.94 0.32 0.42 0.25 0.72 0.63 0.3 0.38 0.43 0.86 0.14 0.47 0.07 0.99-0.06 0.47-0.28 0.87-0.21 0.4-0.55 0.69-0.34 0.3-0.76 0.46-0.41 0.16-0.88 0.16z"/>
	<path class="s7" d="m322.08 192.96q-0.23 0-0.46-0.04-0.23-0.04-0.45-0.13-0.21-0.08-0.42-0.21-0.2-0.13-0.38-0.29c-1.09-1.03-2.46-2.06-4.05-3.01-1.6-0.94-3.43-1.81-5.44-2.51-2.01-0.69-4.21-1.21-6.55-1.46-2.34-0.26-4.82-0.24-7.4 0.13q-0.51 0.06-0.99-0.06-0.47-0.13-0.86-0.42-0.39-0.29-0.64-0.71-0.26-0.42-0.34-0.93-0.07-0.52 0.06-0.99 0.13-0.48 0.42-0.87 0.29-0.38 0.71-0.64 0.42-0.26 0.93-0.33c2.49-0.36 5.03-0.43 7.54-0.23 2.52 0.2 5.02 0.67 7.42 1.38 2.4 0.71 4.7 1.66 6.82 2.83 2.13 1.18 4.08 2.57 5.78 4.17q0.38 0.36 0.58 0.8 0.2 0.45 0.22 0.94 0.01 0.48-0.16 0.94-0.16 0.47-0.52 0.85-0.18 0.2-0.4 0.35-0.21 0.14-0.44 0.24-0.24 0.1-0.49 0.15-0.24 0.05-0.49 0.05z"/>
	<path class="s7" d="m287.42 265.16q-0.29 0-0.57-0.07-0.28-0.06-0.54-0.19-0.26-0.13-0.49-0.32-0.23-0.19-0.42-0.44-0.3-0.42-0.41-0.9-0.12-0.48-0.04-0.96 0.07-0.48 0.32-0.9 0.25-0.43 0.66-0.74 2.97-2.17 5.88-3.87 2.9-1.7 5.75-3.05 2.85-1.36 5.64-2.5 2.8-1.14 5.55-2.2c2.1-0.82 4.23-1.64 6.39-2.55 2.15-0.9 4.34-1.88 6.58-3 2.24-1.12 4.52-2.39 6.86-3.87 2.35-1.48 4.76-3.18 7.24-5.15 1.9-1.51 3.72-4.25 5.39-7.76 1.68-3.52 3.2-7.82 4.5-12.46 1.3-4.65 2.36-9.64 3.12-14.54 0.76-4.91 1.22-9.72 1.28-14.01q0.05-3.34-0.18-5.89-0.22-2.54-0.64-4.34-0.42-1.8-0.96-2.91-0.53-1.11-1.09-1.57c-10.39-8.83-21.99-15.91-34.26-21.16-12.26-5.25-25.18-8.69-38.23-10.23-13.05-1.55-26.23-1.21-38.98 1.07-12.76 2.29-25.1 6.52-36.48 12.77q-0.46 0.24-0.95 0.29-0.49 0.05-0.95-0.08-0.47-0.14-0.86-0.44-0.38-0.31-0.64-0.76-0.24-0.46-0.29-0.95-0.05-0.49 0.09-0.95 0.13-0.47 0.43-0.86 0.31-0.38 0.76-0.64 8.99-4.92 18.62-8.3 9.63-3.38 19.76-5.18 10.13-1.8 20.62-1.99 10.49-0.2 21.2 1.22c6.75 0.91 13.44 2.3 20 4.16 6.56 1.85 12.99 4.17 19.2 6.91 6.22 2.74 12.23 5.91 17.95 9.47 5.72 3.56 11.17 7.52 16.25 11.84q1.21 1.02 2.1 2.71 0.9 1.68 1.48 4.01 0.58 2.34 0.85 5.31 0.26 2.97 0.2 6.57c-0.06 4.2-0.51 9.11-1.28 14.23-0.78 5.12-1.89 10.45-3.29 15.49-1.41 5.05-3.1 9.81-5.05 13.79-1.95 3.98-4.15 7.17-6.56 9.09-2.63 2.1-5.17 3.89-7.64 5.45-2.46 1.56-4.86 2.9-7.2 4.08-2.34 1.17-4.63 2.2-6.88 3.14-2.25 0.94-4.46 1.8-6.65 2.65q-2.75 1.06-5.45 2.16-2.69 1.1-5.37 2.37-2.68 1.27-5.38 2.85-2.7 1.58-5.46 3.61-0.17 0.12-0.35 0.21-0.18 0.1-0.36 0.16-0.19 0.06-0.38 0.09-0.2 0.03-0.39 0.03z"/>
	<path class="s7" d="m187 140.83q-0.07 0-0.14 0-0.07-0.01-0.13-0.02-0.07 0-0.14-0.01-0.07-0.02-0.14-0.03-0.51-0.12-0.91-0.41-0.4-0.29-0.66-0.7-0.25-0.41-0.34-0.89-0.09-0.48 0.02-0.99 1.38-6.09 3.32-11.38 1.94-5.3 4.43-9.78 2.49-4.48 5.52-8.13 3.04-3.65 6.61-6.46 3.67-2.89 7.8-4.8 4.13-1.92 8.71-2.86 4.57-0.94 9.56-0.9 5 0.04 10.41 1.07c6.41 1.21 11.59 3.55 15.72 6.59 4.13 3.05 7.22 6.81 9.43 10.86 2.21 4.04 3.55 8.38 4.2 12.6 0.65 4.21 0.61 8.3 0.05 11.85q-0.08 0.51-0.34 0.93-0.26 0.42-0.66 0.7-0.39 0.29-0.86 0.41-0.48 0.12-1 0.04-0.51-0.09-0.93-0.35-0.41-0.26-0.7-0.65-0.28-0.39-0.4-0.87-0.13-0.47-0.05-0.99c0.48-3.06 0.52-6.6-0.04-10.24-0.56-3.64-1.72-7.39-3.63-10.89-1.91-3.5-4.57-6.75-8.14-9.38-3.57-2.63-8.05-4.65-13.58-5.7-6.44-1.22-12.39-1.26-17.8-0.16-5.41 1.1-10.28 3.35-14.56 6.69-4.28 3.34-7.97 7.77-11.02 13.27-3.05 5.5-5.46 12.06-7.17 19.63q-0.1 0.44-0.33 0.8-0.23 0.36-0.56 0.61-0.33 0.26-0.72 0.4-0.4 0.14-0.83 0.14z"/>
	<path class="s7" d="m168 138.68q-0.02 0-0.04 0-0.02 0-0.04 0-0.02 0-0.05 0-0.02 0-0.04 0-0.52-0.04-0.96-0.26-0.43-0.23-0.75-0.59-0.32-0.37-0.49-0.83-0.16-0.46-0.13-0.98c0.47-6.93 1.97-13.31 4.4-19.03 2.43-5.72 5.78-10.79 9.95-15.08 4.16-4.3 9.14-7.81 14.82-10.45 5.68-2.63 12.05-4.37 19.02-5.1 11.45-1.21 20.61-0.22 27.93 2.14 7.32 2.37 12.81 6.11 16.92 10.43 4.11 4.31 6.84 9.18 8.66 13.81 1.82 4.62 2.72 9 3.17 12.31q0.06 0.52-0.07 0.99-0.13 0.48-0.42 0.86-0.3 0.39-0.72 0.64-0.42 0.25-0.94 0.32-0.51 0.07-0.99-0.06-0.47-0.13-0.86-0.43-0.38-0.29-0.63-0.71-0.25-0.42-0.33-0.94c-0.49-3.66-1.44-7.91-3.21-12.15-1.78-4.24-4.37-8.47-8.15-12.12-3.78-3.65-8.75-6.7-15.27-8.58-6.51-1.89-14.58-2.59-24.57-1.54-6.32 0.67-12.1 2.25-17.25 4.63-5.16 2.39-9.67 5.58-13.45 9.47-3.78 3.89-6.82 8.49-9.03 13.68-2.2 5.18-3.57 10.97-3.99 17.24q-0.03 0.5-0.24 0.93-0.21 0.42-0.55 0.74-0.34 0.31-0.77 0.49-0.44 0.17-0.93 0.17z"/>
	<path class="s7" d="m339.79 188.11q-0.11 0-0.21-0.01-0.11-0.01-0.21-0.03-0.11-0.02-0.22-0.04-0.1-0.03-0.21-0.07-0.48-0.18-0.84-0.51-0.37-0.34-0.57-0.78-0.21-0.43-0.24-0.92-0.03-0.49 0.14-0.99 0.83-2.28 2.03-4.39 1.2-2.11 2.75-3.99 1.54-1.89 3.39-3.5 1.85-1.61 3.97-2.91 0.45-0.26 0.94-0.34 0.48-0.07 0.95 0.05 0.47 0.11 0.87 0.4 0.4 0.28 0.68 0.72 0.27 0.45 0.34 0.94 0.07 0.48-0.04 0.96-0.12 0.47-0.4 0.87-0.29 0.4-0.73 0.67-1.75 1.07-3.28 2.41-1.54 1.33-2.81 2.88-1.28 1.56-2.27 3.3-1 1.74-1.67 3.62-0.14 0.39-0.38 0.69-0.24 0.31-0.55 0.52-0.32 0.22-0.68 0.33-0.37 0.12-0.75 0.12z"/>
	<path class="s7" d="m248.14 190.24q-0.3 0-0.59-0.07-0.29-0.07-0.55-0.21-0.27-0.14-0.5-0.34-0.24-0.2-0.42-0.47c-0.98-1.42-2.22-2.69-3.66-3.78-1.43-1.08-3.05-1.97-4.79-2.65-1.73-0.68-3.57-1.14-5.44-1.35-1.87-0.21-3.77-0.17-5.62 0.14q-0.52 0.09-1-0.02-0.48-0.12-0.87-0.4-0.4-0.28-0.66-0.69-0.27-0.41-0.36-0.92-0.09-0.52 0.03-1 0.11-0.48 0.39-0.87 0.28-0.4 0.69-0.66 0.41-0.27 0.93-0.36c2.34-0.41 4.73-0.46 7.07-0.2 2.34 0.27 4.64 0.85 6.8 1.71 2.16 0.85 4.18 1.99 5.98 3.38 1.8 1.38 3.37 3.01 4.63 4.84q0.3 0.43 0.39 0.92 0.1 0.48 0.01 0.95-0.09 0.48-0.35 0.9-0.27 0.41-0.69 0.71-0.17 0.11-0.34 0.19-0.17 0.08-0.35 0.14-0.18 0.05-0.36 0.08-0.18 0.03-0.37 0.03z"/>
	<path class="s7" d="m187.74 162.97q-0.04 0-0.07 0-0.03 0-0.06 0-0.04 0-0.07 0-0.03-0.01-0.06-0.01-0.52-0.06-0.95-0.29-0.43-0.24-0.74-0.62-0.3-0.37-0.45-0.84-0.15-0.47-0.1-0.99 0.1-0.89 0.23-1.86 0.14-0.97 0.31-1.99 0.17-1.02 0.36-2.07 0.19-1.05 0.38-2.1c0.16-0.85 0.34-1.85 0.52-2.88 0.18-1.04 0.36-2.12 0.5-3.13 0.15-1.02 0.26-1.98 0.31-2.78 0.05-0.79 0.04-1.43-0.06-1.81q-0.45-0.42-1.56-0.89-1.11-0.46-2.8-0.89-1.68-0.42-3.85-0.72-2.17-0.3-4.73-0.39-2.1-0.06-3.72 0.04-1.62 0.09-2.77 0.29-1.15 0.2-1.86 0.43-0.71 0.23-1 0.44c-0.03 0.39-0.03 1.01-0.02 1.79 0.01 0.78 0.03 1.72 0.07 2.73 0.03 1.01 0.07 2.09 0.12 3.17 0.05 1.09 0.1 2.16 0.14 3.15q0.05 1.01 0.09 2.02 0.05 1.01 0.09 1.99 0.04 0.98 0.07 1.9 0.03 0.91 0.06 1.74 0.01 0.52-0.18 0.98-0.18 0.45-0.51 0.8-0.33 0.35-0.78 0.56-0.45 0.2-0.97 0.22-0.51 0.01-0.97-0.17-0.46-0.18-0.81-0.52-0.35-0.33-0.56-0.77-0.21-0.45-0.22-0.97-0.02-0.81-0.06-1.71-0.03-0.9-0.07-1.87-0.04-0.97-0.08-1.97-0.05-1-0.09-2c-0.1-2.18-0.18-3.99-0.24-5.49-0.05-1.49-0.09-2.69-0.1-3.65-0.01-0.95 0-1.68 0.04-2.24 0.03-0.55 0.09-0.95 0.18-1.24 0.22-0.76 0.62-1.37 1.12-1.87 0.5-0.5 1.09-0.89 1.7-1.2 0.6-0.3 1.22-0.52 1.77-0.68 0.54-0.16 1.02-0.26 1.33-0.33 1.76-0.37 3.99-0.57 6.38-0.58 2.4-0.02 4.97 0.14 7.44 0.49 2.47 0.35 4.83 0.88 6.81 1.59 1.97 0.72 3.56 1.63 4.48 2.72q0.69 0.83 0.95 2.09 0.26 1.26 0.16 3.03-0.1 1.76-0.47 4.11-0.37 2.36-0.93 5.37-0.19 1.01-0.37 2.02-0.18 1.01-0.34 1.99-0.17 0.98-0.3 1.89-0.13 0.91-0.21 1.73-0.05 0.48-0.27 0.89-0.21 0.41-0.55 0.71-0.34 0.31-0.76 0.47-0.43 0.17-0.9 0.17zm0.02-21.48q0 0 0 0 0 0 0 0z"/>
	<path class="s7" d="m172.89 219.23q-0.95 0-1.9-0.06-0.95-0.05-1.91-0.16-0.95-0.11-1.9-0.28-0.95-0.16-1.9-0.38c-4.22-0.99-8-2.73-11.22-5.05-3.22-2.33-5.89-5.24-7.91-8.57-2.01-3.33-3.37-7.08-3.98-11.08-0.61-4-0.46-8.25 0.55-12.58 1.06-4.54 2.89-8.68 5.31-12.26 2.42-3.59 5.42-6.63 8.79-8.99 3.38-2.36 7.14-4.03 11.07-4.87 3.93-0.85 8.04-0.86 12.12 0.09 4.16 0.97 7.97 2.87 11.28 5.45 3.31 2.58 6.12 5.83 8.28 9.52 2.17 3.69 3.68 7.8 4.4 12.09 0.72 4.29 0.64 8.75-0.38 13.13q-0.73 3.14-2.04 5.99-1.31 2.85-3.14 5.35-1.84 2.49-4.17 4.58-2.32 2.09-5.09 3.7-1.86 1.09-3.83 1.91-1.97 0.81-4.02 1.36-2.05 0.55-4.16 0.83-2.11 0.28-4.25 0.28zm-25.3-37.03c-0.86 3.7-1.01 7.29-0.53 10.65 0.49 3.37 1.6 6.5 3.27 9.28 1.67 2.78 3.9 5.2 6.61 7.13 2.7 1.93 5.89 3.38 9.47 4.22q2.63 0.6 5.26 0.72 2.63 0.11 5.21-0.27 2.57-0.37 5.03-1.22 2.45-0.86 4.73-2.18 2.31-1.35 4.26-3.1 1.94-1.75 3.48-3.84 1.54-2.09 2.64-4.48 1.09-2.38 1.7-5.01c0.87-3.74 0.95-7.54 0.35-11.19-0.6-3.65-1.87-7.15-3.69-10.29-1.83-3.13-4.19-5.9-6.98-8.09-2.79-2.2-6.01-3.81-9.52-4.62-3.41-0.8-6.85-0.77-10.14-0.04-3.29 0.74-6.44 2.17-9.27 4.19-2.84 2.02-5.36 4.62-7.39 7.68-2.04 3.07-3.59 6.59-4.49 10.46z"/>
	<path class="s7" d="m154.94 167.15q-0.34 0-0.67-0.09-0.33-0.09-0.62-0.27-0.29-0.17-0.53-0.43-0.24-0.25-0.41-0.58c-1.14-2.23-1.75-4.66-1.9-7.12-0.15-2.45 0.18-4.94 0.92-7.29 0.74-2.36 1.9-4.58 3.43-6.51 1.52-1.93 3.42-3.56 5.63-4.75q0.46-0.24 0.95-0.28 0.49-0.04 0.95 0.1 0.47 0.14 0.85 0.44 0.39 0.31 0.63 0.77 0.25 0.46 0.29 0.95 0.04 0.49-0.1 0.95-0.14 0.47-0.45 0.85-0.3 0.38-0.76 0.63c-1.61 0.86-3 2.07-4.12 3.51-1.12 1.43-1.97 3.09-2.52 4.84-0.56 1.76-0.8 3.6-0.71 5.42 0.1 1.82 0.54 3.6 1.37 5.23q0.23 0.47 0.26 0.96 0.03 0.49-0.12 0.95-0.15 0.46-0.46 0.83-0.32 0.38-0.78 0.62-0.14 0.07-0.28 0.12-0.14 0.05-0.28 0.09-0.14 0.03-0.29 0.05-0.13 0.01-0.28 0.01z"/>
	<path class="s7" d="m206.29 160.94q-0.11 0-0.21-0.01-0.11-0.01-0.21-0.03-0.11-0.01-0.21-0.04-0.11-0.03-0.21-0.07-2.22-0.8-3.91-1.78-1.69-0.98-2.99-2.08-1.31-1.1-2.38-2.27-1.08-1.16-2.06-2.34-0.56-0.66-1.15-1.34-0.58-0.67-1.23-1.36-0.64-0.68-1.37-1.36-0.73-0.68-1.57-1.37-0.4-0.33-0.63-0.76-0.23-0.44-0.28-0.92-0.06-0.48 0.08-0.95 0.13-0.48 0.45-0.88 0.34-0.41 0.77-0.64 0.43-0.23 0.91-0.28 0.49-0.05 0.96 0.08 0.47 0.13 0.88 0.46 0.98 0.79 1.82 1.58 0.84 0.79 1.57 1.56 0.73 0.77 1.37 1.51 0.64 0.73 1.23 1.43 0.94 1.12 1.85 2.12 0.91 1 1.95 1.87 1.04 0.88 2.35 1.63 1.32 0.76 3.06 1.38 0.49 0.18 0.85 0.52 0.36 0.33 0.57 0.77 0.2 0.43 0.23 0.93 0.03 0.49-0.14 0.98-0.14 0.38-0.38 0.69-0.23 0.31-0.55 0.52-0.31 0.22-0.67 0.33-0.37 0.12-0.75 0.12z"/>
	<path class="s7" d="m232.66 141.13q-0.35-0.01-0.68-0.1-0.33-0.09-0.63-0.27-0.3-0.18-0.54-0.44-0.24-0.27-0.4-0.6c-0.66-1.36-0.98-2.84-0.99-4.36 0-1.52 0.31-3.08 0.9-4.59 0.58-1.51 1.46-2.97 2.57-4.31 1.12-1.33 2.49-2.54 4.07-3.53 1.91-1.2 4.11-2.08 6.53-2.49 2.42-0.42 5.05-0.36 7.81 0.31 2.76 0.67 5.65 1.96 8.59 4.02 2.94 2.07 5.92 4.9 8.88 8.66q0.32 0.41 0.44 0.89 0.13 0.47 0.07 0.95-0.05 0.48-0.29 0.92-0.24 0.43-0.64 0.75-0.42 0.32-0.89 0.45-0.48 0.12-0.96 0.07-0.48-0.06-0.91-0.3-0.43-0.23-0.75-0.64c-2.44-3.11-4.88-5.47-7.25-7.22-2.37-1.74-4.67-2.86-6.85-3.48-2.18-0.62-4.24-0.73-6.11-0.47-1.88 0.26-3.57 0.91-5.01 1.82q-1.56 0.98-2.7 2.27-1.13 1.29-1.78 2.71-0.65 1.42-0.72 2.8-0.08 1.39 0.48 2.58 0.23 0.47 0.25 0.96 0.03 0.49-0.13 0.95-0.16 0.46-0.48 0.83-0.32 0.37-0.79 0.6-0.13 0.07-0.27 0.12-0.13 0.04-0.27 0.07-0.14 0.04-0.27 0.05-0.14 0.01-0.28 0.02z"/>
	<path class="s7" d="m248.14 123.2q-0.01 0-0.03 0-0.01 0-0.03 0-0.02 0-0.03 0-0.02 0-0.04-0.01-0.52-0.03-0.96-0.24-0.44-0.22-0.76-0.58-0.33-0.35-0.5-0.82-0.17-0.46-0.15-0.98c0.07-1.32 0.01-2.8-0.19-4.36-0.21-1.55-0.55-3.18-1.04-4.8-0.5-1.62-1.15-3.22-1.96-4.72-0.8-1.5-1.78-2.89-2.92-4.1q-0.98-1.02-2.06-1.79-1.08-0.77-2.26-1.28-1.18-0.52-2.46-0.78-1.28-0.26-2.66-0.26-0.52 0-0.97-0.19-0.45-0.19-0.8-0.54-0.34-0.34-0.53-0.79-0.2-0.45-0.2-0.98 0.01-0.52 0.2-0.97 0.19-0.45 0.53-0.79 0.35-0.35 0.8-0.54 0.45-0.19 0.97-0.2 1.89 0 3.67 0.37 1.77 0.36 3.42 1.08 1.65 0.71 3.15 1.77 1.5 1.06 2.82 2.45c1.41 1.48 2.6 3.17 3.59 4.97 0.99 1.8 1.79 3.71 2.39 5.64 0.6 1.93 1.02 3.88 1.27 5.76 0.25 1.87 0.32 3.67 0.24 5.3q-0.03 0.51-0.23 0.94-0.21 0.43-0.55 0.75-0.34 0.32-0.78 0.5-0.44 0.19-0.94 0.19z"/>
	<path class="s7" d="m127.48 410.46c-7.66 0-15.79-0.24-23.78-0.72-7.99-0.48-15.82-1.22-22.89-2.21-7.06-0.99-13.34-2.25-18.23-3.77-4.88-1.53-8.36-3.33-9.82-5.42q-4.22-6.07-7.31-13.04-3.08-6.96-5-14.72-1.93-7.75-2.65-16.18-0.73-8.44-0.24-17.45c0.29-5.44 0.92-10.89 1.87-16.29 0.95-5.41 2.21-10.76 3.76-15.99 1.56-5.23 3.41-10.35 5.54-15.29 2.12-4.94 4.53-9.7 7.19-14.22 5.33-9.04 11.14-16.99 17.15-24.01 6.02-7.02 12.23-13.12 18.38-18.48 6.15-5.35 12.24-9.96 17.98-14 5.74-4.04 11.14-7.51 15.94-10.58q2.68-1.72 5.15-3.33 2.47-1.61 4.67-3.12 2.2-1.52 4.07-2.95 1.86-1.44 3.34-2.81 0.38-0.35 0.84-0.52 0.47-0.17 0.95-0.15 0.48 0.02 0.93 0.22 0.45 0.2 0.81 0.57 0.35 0.39 0.52 0.85 0.17 0.46 0.15 0.95-0.01 0.48-0.21 0.93-0.2 0.45-0.58 0.81-1.6 1.48-3.56 3-1.97 1.52-4.25 3.09-2.28 1.58-4.83 3.24-2.54 1.66-5.3 3.43c-4.97 3.19-10.4 6.67-16.08 10.66-5.67 3.98-11.59 8.46-17.53 13.64-5.94 5.19-11.91 11.07-17.69 17.85-5.77 6.78-11.36 14.46-16.54 23.25-4.74 8.05-8.78 17.35-11.8 27.3-3.02 9.94-5.03 20.53-5.71 31.16-0.69 10.62-0.06 21.28 2.2 31.37 2.25 10.09 6.14 19.61 11.95 27.96q0.73 1.06 3.53 2.24 2.8 1.18 7.7 2.36 4.9 1.17 11.93 2.22 7.02 1.05 16.2 1.84c5.3 0.46 10.71 0.8 16.07 1.02 5.36 0.23 10.68 0.34 15.78 0.33 5.1 0 9.99-0.12 14.5-0.35 4.52-0.23 8.66-0.58 12.26-1.04q0.52-0.06 0.99 0.07 0.47 0.13 0.86 0.43 0.38 0.3 0.63 0.72 0.25 0.42 0.32 0.94 0.06 0.52-0.07 0.99-0.14 0.47-0.44 0.86-0.29 0.38-0.72 0.63-0.42 0.25-0.94 0.32-2.69 0.34-5.86 0.6-3.17 0.26-6.73 0.44-3.57 0.17-7.44 0.26-3.86 0.09-7.96 0.09z"/>
	<path class="s7" d="m130.55 410.49q-0.52-0.01-0.97-0.2-0.45-0.19-0.79-0.54-0.35-0.34-0.54-0.79-0.19-0.45-0.19-0.97 0-0.52 0.19-0.98 0.19-0.45 0.54-0.79 0.34-0.34 0.79-0.54 0.45-0.19 0.97-0.19 2.26 0 4.31-0.49 2.06-0.48 3.92-1.44 1.85-0.97 3.5-2.41 1.66-1.44 3.1-3.35c1.5-2 2.71-4.25 3.66-6.62 0.95-2.37 1.63-4.85 2.06-7.31 0.43-2.46 0.61-4.89 0.55-7.15-0.06-2.26-0.35-4.35-0.87-6.12q-0.29-1.02-0.75-1.82-0.45-0.8-1.04-1.38-0.6-0.57-1.31-0.9-0.71-0.32-1.53-0.38c-0.92-0.06-1.97 0.13-3.12 0.66-1.14 0.52-2.38 1.36-3.66 2.58-1.29 1.22-2.62 2.82-3.97 4.85-1.34 2.04-2.69 4.51-4.01 7.48q-0.22 0.47-0.58 0.81-0.36 0.33-0.81 0.51-0.45 0.17-0.94 0.16-0.49 0-0.97-0.21-0.48-0.22-0.81-0.58-0.34-0.36-0.51-0.81-0.17-0.45-0.17-0.94 0.01-0.5 0.22-0.97c1.93-4.35 3.92-7.7 5.87-10.27 1.95-2.57 3.85-4.37 5.62-5.61 1.77-1.24 3.4-1.94 4.8-2.3 1.39-0.37 2.55-0.4 3.39-0.35q1.6 0.12 3.02 0.73 1.42 0.61 2.6 1.66 1.19 1.06 2.07 2.49 0.88 1.44 1.39 3.2c0.59 2.04 0.95 4.44 1.04 7.04 0.09 2.59-0.08 5.39-0.56 8.23-0.47 2.84-1.25 5.72-2.35 8.5-1.1 2.77-2.54 5.43-4.34 7.82q-1.79 2.38-3.89 4.19-2.1 1.81-4.48 3.03-2.37 1.23-4.99 1.85-2.62 0.62-5.46 0.62z"/>
	<path class="s7" d="m133.1 375.69q-0.15 0-0.3-0.02-0.15-0.02-0.3-0.05-0.15-0.04-0.29-0.1-0.15-0.05-0.29-0.13-0.46-0.24-0.76-0.63-0.31-0.38-0.45-0.84-0.15-0.47-0.1-0.96 0.04-0.49 0.28-0.95c1.33-2.49 2.22-5.21 2.7-8.06 0.47-2.85 0.53-5.83 0.18-8.84-0.35-3.01-1.12-6.06-2.27-9.04-1.16-2.98-2.72-5.9-4.66-8.66-2.1-2.99-4.52-5.6-7.19-7.8-2.67-2.2-5.59-3.99-8.69-5.35-3.11-1.35-6.39-2.27-9.78-2.72-3.4-0.45-6.91-0.43-10.46 0.08q-0.52 0.08-0.99-0.05-0.48-0.13-0.87-0.42-0.38-0.29-0.64-0.71-0.26-0.42-0.33-0.93-0.08-0.52 0.05-1 0.13-0.47 0.42-0.86 0.29-0.39 0.71-0.64 0.42-0.26 0.93-0.34c4.03-0.58 8.01-0.6 11.85-0.1 3.85 0.51 7.57 1.55 11.09 3.08 3.51 1.54 6.82 3.57 9.85 6.06 3.02 2.49 5.76 5.44 8.14 8.82 2.21 3.14 3.98 6.48 5.28 9.89 1.31 3.42 2.16 6.91 2.54 10.38 0.38 3.47 0.29 6.9-0.28 10.2-0.57 3.3-1.62 6.45-3.17 9.36q-0.17 0.32-0.4 0.56-0.24 0.25-0.53 0.42-0.29 0.17-0.62 0.26-0.32 0.09-0.65 0.09z"/>
	<path class="s7" d="m159.65 413q-1.05 0-1.93-0.32-0.89-0.32-1.58-0.93-0.69-0.62-1.15-1.49-0.47-0.88-0.68-1.99c-0.26-1.43-0.18-3.15 0.18-4.96 0.37-1.81 1.01-3.72 1.87-5.51 0.85-1.8 1.91-3.49 3.11-4.86 1.2-1.37 2.54-2.43 3.95-2.97q1.95-0.75 5.53-1.23 3.58-0.48 8.77-0.78 5.2-0.3 12-0.49 6.79-0.2 15.17-0.37c3.69-0.08 7.5-0.16 11.34-0.26 3.84-0.09 7.7-0.21 11.51-0.35 3.8-0.14 7.53-0.3 11.11-0.51 3.57-0.21 6.98-0.46 10.14-0.77q0.47-0.04 0.9 0.08 0.44 0.12 0.79 0.38 0.37 0.26 0.62 0.63 0.25 0.37 0.36 0.83 0.11 0.46 0.05 0.9-0.06 0.45-0.27 0.84-0.2 0.39-0.54 0.69-0.33 0.3-0.77 0.48-2.02 0.79-3.4 1.99-1.39 1.21-2.18 2.64-0.78 1.44-1 2.94-0.22 1.49 0.1 2.86 0.32 1.34 1.05 2.36 0.72 1.02 1.82 1.71 1.09 0.69 2.51 1.02 1.42 0.34 3.13 0.3 0.14-0.01 0.28-0.02 0.14-0.01 0.28-0.02 0.14-0.01 0.28-0.02 0.14-0.01 0.28-0.02 0.51-0.03 0.97 0.13 0.46 0.16 0.83 0.47 0.36 0.32 0.58 0.75 0.23 0.43 0.28 0.95 0.03 0.51-0.12 0.97-0.15 0.47-0.46 0.83-0.31 0.37-0.74 0.6-0.42 0.23-0.94 0.29-0.17 0.01-0.33 0.03-0.17 0.01-0.34 0.02-0.16 0.01-0.33 0.02-0.16 0.01-0.32 0.01c-8.45 0.54-17.56 0.94-26.69 1.25-9.13 0.3-18.29 0.5-26.85 0.63-8.56 0.14-16.52 0.21-23.25 0.24-6.74 0.03-12.25 0.03-15.92 0.03zm-0.19-5.01q0.01 0 0.02 0 0.02 0 0.04 0.01 0.03 0 0.06 0 0.03 0 0.07 0c3.28 0 8.03 0 13.82-0.02 5.78-0.03 12.6-0.07 20-0.17 7.4-0.1 15.38-0.24 23.49-0.46 8.11-0.21 16.35-0.5 24.28-0.89q-0.47-0.56-0.86-1.15-0.39-0.59-0.69-1.21-0.31-0.61-0.53-1.24-0.22-0.62-0.37-1.24-0.3-1.28-0.32-2.65-0.02-1.37 0.26-2.76 0.27-1.39 0.85-2.75 0.58-1.35 1.48-2.61-4.24 0.27-8.74 0.46-4.49 0.2-9.1 0.34-4.62 0.14-9.21 0.25-4.59 0.11-9.01 0.2c-4.52 0.09-8.97 0.19-13.19 0.31-4.21 0.11-8.19 0.25-11.74 0.43-3.55 0.18-6.68 0.41-9.22 0.7-2.53 0.29-4.47 0.65-5.62 1.09-0.55 0.21-1.13 0.65-1.71 1.27-0.58 0.61-1.15 1.39-1.69 2.27-0.54 0.89-1.03 1.88-1.45 2.9-0.42 1.03-0.75 2.1-0.97 3.15q-0.19 0.95-0.23 1.64-0.05 0.69 0 1.15 0.06 0.45 0.14 0.69 0.08 0.24 0.14 0.29 0 0 0 0 0 0 0 0 0 0 0 0-0.01 0 0 0z"/>
	<path class="s7" d="m253.44 410.78q-0.47-0.01-0.89-0.17-0.42-0.16-0.75-0.46-0.34-0.29-0.56-0.69-0.21-0.4-0.28-0.87-0.06-0.5 0.07-0.96 0.12-0.46 0.4-0.83 0.28-0.38 0.68-0.64 0.4-0.25 0.9-0.34 1.31-0.25 2.26-0.76 0.95-0.51 1.59-1.19 0.65-0.67 1.05-1.41 0.4-0.74 0.61-1.44 0.34-1.09 0.39-2.23 0.06-1.14-0.15-2.22-0.21-1.09-0.66-2.02-0.45-0.94-1.13-1.62-0.37-0.37-0.55-0.83-0.18-0.46-0.18-0.94 0-0.49 0.18-0.94 0.18-0.46 0.55-0.83 0.37-0.37 0.83-0.55 0.45-0.18 0.94-0.18 0.48 0 0.94 0.18 0.45 0.18 0.83 0.55 1.16 1.17 1.94 2.7 0.78 1.54 1.15 3.29 0.37 1.74 0.3 3.57-0.07 1.82-0.61 3.57-0.11 0.36-0.24 0.7-0.13 0.35-0.28 0.68-0.15 0.33-0.31 0.65-0.17 0.32-0.35 0.62 4.3-0.27 8.88-0.54 4.59-0.26 9.36-0.52 4.78-0.25 9.64-0.5 4.87-0.26 9.72-0.5c7.59-0.39 15.66-0.8 23.54-1.24 7.88-0.44 15.58-0.9 22.45-1.39 6.87-0.5 12.92-1.02 17.49-1.58 4.58-0.56 7.68-1.15 8.67-1.77 1.19-1.13 2.94-5.96 4.9-13.01 1.96-7.05 4.13-16.31 6.14-26.32 2.02-10 3.88-20.74 5.23-30.73 1.35-9.99 2.18-19.23 2.15-26.24-0.01-2.07-0.1-3.7-0.23-4.99-0.13-1.29-0.3-2.23-0.47-2.92-0.18-0.68-0.35-1.11-0.48-1.37-0.13-0.26-0.23-0.35-0.24-0.37-1.96-1.66-8.49-2.98-17.69-3.87-9.21-0.89-21.07-1.34-33.71-1.26-12.63 0.08-26.03 0.68-38.28 1.9-12.26 1.23-23.38 3.06-31.46 5.61-2.06 0.65-3.67 1.28-4.92 1.87-1.26 0.59-2.16 1.14-2.8 1.62-0.65 0.48-1.04 0.89-1.28 1.21-0.24 0.32-0.32 0.55-0.35 0.66-0.67 2.57-1.34 7.18-1.99 13.22-0.64 6.03-1.27 13.48-1.84 21.72-0.58 8.24-1.12 17.28-1.59 26.47-0.48 9.2-0.89 18.56-1.21 27.46q-0.03 0.52-0.24 0.96-0.21 0.45-0.56 0.77-0.36 0.33-0.82 0.51-0.46 0.18-0.98 0.17-0.52-0.03-0.96-0.24-0.44-0.21-0.77-0.56-0.33-0.35-0.51-0.81-0.18-0.46-0.16-0.98c0.25-6.92 0.61-15.23 1.04-24 0.43-8.78 0.95-18.01 1.54-26.76 0.58-8.75 1.24-17.02 1.94-23.87 0.71-6.85 1.47-12.27 2.27-15.33q0.35-1.35 1.3-2.57 0.94-1.21 2.51-2.31 1.56-1.09 3.78-2.08 2.21-0.99 5.1-1.9c7.61-2.4 18.61-4.26 31-5.55 12.39-1.3 26.17-2.03 39.33-2.18 13.16-0.14 25.71 0.29 35.64 1.34 9.92 1.04 17.23 2.7 19.91 4.98 0.38 0.32 0.77 0.74 1.15 1.35 0.37 0.61 0.73 1.41 1.04 2.49 0.31 1.08 0.56 2.45 0.74 4.2 0.17 1.75 0.27 3.88 0.25 6.48-0.05 6.42-0.89 15.46-2.25 25.5-1.35 10.03-3.22 21.07-5.3 31.49-2.08 10.42-4.37 20.22-6.59 27.78-2.23 7.56-4.37 12.89-6.15 14.36-0.95 0.78-3.04 1.46-6.4 2.07-3.37 0.62-8.01 1.17-14.07 1.7-6.07 0.53-13.55 1.04-22.59 1.58-9.05 0.54-19.66 1.1-31.97 1.72-4.09 0.21-8.23 0.42-12.32 0.64-4.1 0.21-8.16 0.43-12.11 0.65-3.95 0.22-7.8 0.44-11.48 0.67-3.67 0.23-7.16 0.47-10.41 0.71q-0.03 0-0.05 0-0.02 0-0.05 0-0.02 0-0.04 0-0.04 0.01-0.06 0.01z"/>
	<path class="s7" d="m201.95 392.16c-3.99 0-8.02-2-12.06-5.45-4.04-3.45-8.09-8.35-12.09-14.13-4.01-5.77-7.98-12.44-11.87-19.43-3.88-6.98-7.69-14.3-11.38-21.37q-0.39-0.75-0.77-1.49-0.38-0.73-0.76-1.46-0.38-0.73-0.76-1.45-0.37-0.72-0.74-1.42-0.24-0.47-0.28-0.96-0.04-0.49 0.1-0.95 0.15-0.46 0.46-0.84 0.31-0.38 0.77-0.63 0.46-0.24 0.95-0.28 0.49-0.03 0.95 0.11 0.47 0.14 0.85 0.45 0.38 0.32 0.62 0.77 0.38 0.71 0.75 1.43 0.38 0.72 0.76 1.45 0.38 0.73 0.76 1.47 0.39 0.74 0.78 1.49c2.99 5.74 6.36 12.22 9.94 18.71 3.58 6.48 7.37 12.98 11.18 18.75 3.82 5.78 7.66 10.84 11.36 14.45 3.7 3.61 7.25 5.78 10.48 5.78q0.52 0.01 0.97 0.2 0.46 0.19 0.8 0.54 0.34 0.34 0.54 0.79 0.19 0.45 0.19 0.97 0 0.53-0.19 0.98-0.2 0.45-0.54 0.79-0.34 0.34-0.8 0.54-0.45 0.19-0.97 0.19z"/>
	<path class="s7" d="m234.92 391.19q-0.52 0-0.97-0.19-0.46-0.2-0.8-0.54-0.34-0.34-0.53-0.8-0.2-0.45-0.2-0.97 0-0.52 0.2-0.97 0.19-0.45 0.53-0.8 0.34-0.34 0.8-0.53 0.45-0.19 0.97-0.2 1.41 0 2.54-0.28 1.13-0.27 1.96-0.81 0.82-0.54 1.31-1.31 0.48-0.78 0.61-1.77 0.12-1.1-0.2-2.25-0.33-1.16-1.09-2.21-0.77-1.06-1.94-1.86-1.18-0.81-2.75-1.21-0.35-0.08-0.65-0.25-0.3-0.18-0.54-0.42-0.24-0.25-0.41-0.55-0.16-0.3-0.24-0.65c-0.88-3.87-1.84-7.86-2.84-11.85-1-4-2.04-8.02-3.08-11.94-1.04-3.92-2.08-7.76-3.08-11.4-1-3.65-1.95-7.1-2.83-10.26l-0.27-0.97-0.27-0.96-0.26-0.97-0.27-0.96q-0.13-0.5-0.07-0.99 0.07-0.49 0.31-0.91 0.24-0.42 0.62-0.73 0.38-0.3 0.88-0.44 0.51-0.14 1-0.08 0.48 0.07 0.91 0.31 0.42 0.24 0.72 0.62 0.31 0.39 0.45 0.89l0.27 0.96 0.27 0.97 0.26 0.96 0.27 0.96c0.85 3.08 1.78 6.44 2.75 9.97 0.97 3.54 1.98 7.26 2.99 11.08 1.02 3.81 2.03 7.71 3.01 11.61 0.99 3.91 1.93 7.81 2.81 11.61 1.47 0.55 2.75 1.31 3.84 2.22 1.1 0.91 1.99 1.97 2.69 3.1 0.7 1.14 1.19 2.36 1.48 3.58 0.29 1.22 0.36 2.45 0.22 3.62-0.12 0.99-0.41 2.02-0.9 3-0.5 0.99-1.19 1.94-2.1 2.77-0.92 0.82-2.06 1.52-3.45 2.02-1.39 0.49-3.02 0.78-4.93 0.78z"/>
	<path class="s7" d="m300.3 287.96q-0.47 0-0.89-0.16-0.41-0.16-0.75-0.45-0.34-0.29-0.55-0.69-0.22-0.39-0.29-0.86c-0.46-3.4-0.68-7.07-0.54-10.76 0.14-3.69 0.63-7.39 1.56-10.86 0.93-3.46 2.3-6.68 4.21-9.4 1.91-2.73 4.35-4.95 7.43-6.43q0.47-0.22 0.97-0.24 0.49-0.02 0.94 0.14 0.46 0.17 0.83 0.49 0.37 0.32 0.6 0.79 0.22 0.47 0.24 0.96 0.02 0.5-0.14 0.95-0.16 0.46-0.49 0.83-0.32 0.37-0.79 0.6c-2.64 1.26-4.66 3.31-6.19 5.82-1.52 2.51-2.54 5.48-3.2 8.6-0.65 3.11-0.94 6.37-0.97 9.45-0.04 3.08 0.17 5.98 0.5 8.38q0.06 0.52-0.07 0.99-0.13 0.48-0.42 0.86-0.29 0.39-0.72 0.64-0.42 0.25-0.93 0.33-0.05 0-0.09 0.01-0.04 0-0.09 0-0.04 0.01-0.08 0.01-0.04 0-0.08 0z"/>
	<path class="s7" d="m55.11 317.06q-0.04 0-0.07 0-0.04 0-0.08 0-0.04-0.01-0.08-0.01-0.03 0-0.07-0.01-0.52-0.06-0.94-0.31-0.43-0.25-0.73-0.63-0.3-0.38-0.43-0.85-0.14-0.47-0.08-0.99c0.14-1.18 0.37-2.43 0.65-3.7q0.42-1.91 0.96-3.78c0.34-1.24 0.71-2.44 1.06-3.54q0.54-1.67 0.98-2.99 0.16-0.49 0.49-0.86 0.33-0.37 0.76-0.58 0.43-0.22 0.92-0.26 0.49-0.05 0.99 0.12 0.49 0.16 0.86 0.49 0.37 0.32 0.58 0.76 0.22 0.43 0.26 0.92 0.04 0.49-0.12 0.99-0.41 1.25-0.92 2.83-0.51 1.58-1.01 3.33-0.5 1.75-0.9 3.51-0.4 1.76-0.6 3.36-0.06 0.48-0.28 0.88-0.21 0.4-0.55 0.7-0.33 0.29-0.76 0.46-0.42 0.16-0.89 0.16z"/>
	<path class="s7" d="m65.91 286.79q-0.12-0.01-0.24-0.02-0.13-0.01-0.25-0.03-0.12-0.03-0.24-0.07-0.12-0.03-0.24-0.08-0.48-0.21-0.82-0.56-0.34-0.36-0.53-0.81-0.18-0.44-0.18-0.94 0-0.49 0.2-0.97c0.36-0.86 0.82-1.84 1.33-2.88 0.52-1.04 1.1-2.14 1.72-3.25 0.62-1.1 1.28-2.21 1.95-3.27 0.67-1.05 1.35-2.05 2.03-2.93q0.31-0.42 0.74-0.66 0.43-0.24 0.91-0.31 0.48-0.07 0.96 0.05 0.47 0.12 0.89 0.43 0.41 0.32 0.66 0.75 0.24 0.43 0.31 0.91 0.06 0.48-0.06 0.95-0.11 0.48-0.43 0.9c-0.6 0.79-1.22 1.7-1.83 2.67q-0.93 1.46-1.79 3-0.86 1.53-1.57 2.98-0.72 1.44-1.21 2.61-0.16 0.35-0.4 0.64-0.24 0.28-0.54 0.48-0.31 0.2-0.65 0.3-0.35 0.1-0.72 0.11z"/>
	<path class="s7" d="m70.61 304.61q-0.07 0-0.13 0-0.06 0-0.12-0.01-0.07-0.01-0.13-0.02-0.06-0.01-0.13-0.02-0.51-0.11-0.91-0.39-0.41-0.28-0.67-0.68-0.27-0.41-0.37-0.89-0.1-0.48 0-0.99c0.21-1 0.51-2.12 0.88-3.28 0.38-1.17 0.81-2.37 1.28-3.55 0.47-1.18 0.97-2.33 1.46-3.39 0.49-1.05 0.98-2.01 1.43-2.79q0.26-0.45 0.65-0.75 0.39-0.3 0.86-0.42 0.47-0.13 0.95-0.08 0.49 0.06 0.95 0.31 0.45 0.27 0.74 0.66 0.3 0.39 0.43 0.86 0.13 0.46 0.07 0.95-0.05 0.49-0.31 0.94c-0.39 0.69-0.83 1.55-1.27 2.5-0.44 0.94-0.89 1.98-1.31 3.04-0.42 1.06-0.81 2.14-1.14 3.17-0.33 1.02-0.6 1.99-0.77 2.83q-0.09 0.44-0.32 0.81-0.23 0.37-0.56 0.63-0.32 0.27-0.73 0.41-0.4 0.15-0.83 0.15z"/>
</svg>