<svg version="1.2" xmlns="http://www.w3.org/2000/svg" viewBox="0 0 384 536" width="384" height="536">
	<style>
		.s0 { fill: #c0a8b7 } 
		.s1 { fill: #f3a370 } 
		.s2 { fill: #9cba4e } 
		.s3 { fill: #cce070 } 
		.s4 { fill: #ed586e } 
		.s5 { fill: #d77e56 } 
		.s6 { fill: #edae84 } 
		.s7 { fill: #f992aa } 
		.s8 { fill: #4a0630 } 
	</style>
	<path fill-rule="evenodd" class="s0" d="m191.73 440.52c-80.29 0-145.19-13.85-145.19-31 0-17.14 64.9-31 145.19-31 80.29 0 145.19 13.86 145.19 31 0 17.15-64.9 31-145.19 31z"/>
	<path class="s1" d="m264.5 139.39c11.98-11.6 10.25-35.37 0.41-39.05-5.79-2.16-15.82 4.49-24.97 11.44-3.91-10.22-9.2-21.57-14.83-22.76-6.28-1.34-15.34 7.48-19.71 16.87-63.34-15.47-120.96 10.23-127.99 24.42-4.09 8.27-4.44 47.49 9.89 63.17-8.19 6.48-16.52 15-17.73 19.88-1.56 6.28 5.45 7.2 11.78 2.11-9.04 12.29-12.4 22.15-6.3 25.65 4.28 2.46 14.35-2.17 23.79-10.06-2.43 33.24-22.02 51.26-33.4 104-2.67 12.37-2.83 29.23 1.63 42.99-3.09-7.3-8.32-15.13-14.96-11.61-8.57 4.55 2.32 35.42 13.82 35.96h45q0.08 0.71 0.36 1.39c3.24 7.77 37.67 6.73 45.93-1.39h8.94q0.17 0.64 0.5 1.39c3.03 6.86 28.55 7.01 42.88-1.39h103.38c21.78 1.1 33.83-27.91 34.76-49.31 2.57-59.54-38.1-152.22-83.19-213.7zm-196.66 240.81q-0.39-1.03-0.73-2.11 0.4 0.94 0.75 1.86z"/>
	<path class="s2" d="m96.06 186.34c-9.65 5.4-18.1 12.94-24.56 21.92-1.66 2.32-3.24 5.4-1.83 7.89 0.83 1.46 2.53 2.26 4.2 2.43 1.67 0.17 3.34-0.19 4.98-0.55-3.32 4.64-5.31 10.22-5.69 15.92-0.12 1.95-0.03 4.04 1.08 5.65 1.35 1.97 3.97 2.76 6.35 2.51 2.37-0.24 4.57-1.35 6.65-2.52 7.3-4.12 14.02-9.26 19.89-15.24-1.02 2.61-1.99 5.72-0.42 8.05 1.58 2.35 5.18 2.57 7.66 1.18 2.49-1.38 4.09-3.9 5.49-6.38 4.34-7.64 7.75-15.8 10.14-24.26 0.2-0.69 0.38-1.49-0.02-2.1-0.47-0.72-1.5-0.78-2.36-0.76q-7.55 0.18-15.09 0.35c-2.25 0.05-4.56 0.1-6.7-0.63-2.77-0.94-4.98-3.12-6.53-5.61-1.54-2.48-2.5-5.27-3.24-7.85z"/>
	<path class="s3" d="m78.08 236.31c-3.58-5.35 9.4-22.89 17.67-29.81 3.66-3.08 9.93-3.32 12.38-1.3 4.8 3.96-2.48 13.75-9.37 20.4-4.98 4.8-17.85 14.95-20.68 10.71z"/>
	<path class="s3" d="m174.05 268.1c0.89-1.54 2.1-2.9 3.53-3.96z"/>
	<path class="s3" d="m112.89 231.42c-3.52 0.26-2.8-10.22-0.63-17.86 2.89-10.21 10.38-9.25 12.28-6.2 3.54 5.67-6.24 23.67-11.65 24.06z"/>
	<path class="s4" d="m153.61 69.43c3.06-0.32 16.16-5.17 23.28-20.64 5.87-12.75 0.15-23.84-8.94-25.1-15.41-2.15-17.83 15.83-17.83 15.83 0 0-6.53-13.93-19.39-11.49-13.22 2.5-14.69 16.3-6.06 26.45 11.72 13.79 26.29 15.23 28.94 14.95z"/>
	<path class="s5" d="m131.12 197.64c-1.71-5.75 2.73-22.31 14.34-24.21 1.91-2.53 12.42-21.13 10.56-35.33-1.29-9.82-12.36-25.35-41.21-27.97-12.71-1.15-31.98 11.38-37.69 20.85-2.7 4.5-2.42 28.5 0.48 41.57 1.44 6.48 5.17 17.53 9.71 20.93 1.82 1.37 6.41-3.78 9.94-7.37-0.72 7.32 6.09 13.69 13.33 15.04 7.23 1.35 14.6-1.04 20.54-3.51z"/>
	<path class="s5" d="m204.12 145.31c57.9 0 34.65 49.66-8.43 36.71-19.85-5.97-29.19-36.71 8.43-36.71z"/>
	<path class="s5" d="m206.39 105.51c1.74-7.03 6.84-13.15 13.44-16.13 1.97-0.89 4.25-1.5 6.26-0.72 1.69 0.67 2.87 2.2 3.91 3.7 4.21 6.02 7.72 12.54 10.44 19.37-2.46 0.97-4.75 2.36-6.75 4.1-9.2-4.54-18.69-8.49-27.3-10.32z"/>
	<path class="s5" d="m244.33 107.88c-5.43 9.2-5.38 21.37 0.13 30.52 1.66 2.74 3.94 5.34 7.03 6.2 4.07 1.14 8.37-1.06 11.5-3.91 7.44-6.75 10.82-17.37 9.72-27.36-0.37-3.3-1.27-6.71-3.55-9.13-3.31-3.5-8.86-4.06-13.46-2.64-4.61 1.42-9.63 3.39-11.37 6.32z"/>
	<path class="s5" d="m263.92 400.76c-5.79-7.5-7.98-17.67-5.78-26.89 0.46-1.96 1.14-3.92 2.4-5.49 1.26-1.57 3.18-2.71 5.19-2.61 3.35 0.16 5.6 3.45 6.96 6.52 1.68 3.8 2.86 7.82 3.49 11.93 0.62 4.05 0.67 8.39-1.21 12.03-1.88 3.64-6.14 6.3-11.05 4.51z"/>
	<path class="s5" d="m173.18 381.76c13.45-16.95 46.38-11.05 49.56-4.19 1.04 2.23 0.1 4.83-0.85 7.11-2.3 5.55-4.85 11.41-9.79 14.83-3.02 2.09-8.45 5.92-12 6.85-8.34 2.18-15.08 1.5-23.67 0.83-2.63-0.21-5.39-0.76-7.38-2.5-1.99-1.74-2.85-5.01-1.22-7.09 1.38-1.77 4.06-2.25 5.15-4.2 1.98-3.57-0.44-10.83 0.2-11.64z"/>
	<path class="s5" d="m67.4 379.36c-1.27-4.82-4.2-9.18-8.19-12.18-2.2-1.64-5.29-2.87-7.6-1.38-2.15 1.39-2.47 4.39-2.27 6.94 0.47 6.3 2.65 12.34 4.98 18.22 1.26 3.18 2.69 6.51 5.44 8.56 2.14 1.59 4.83 2.22 7.46 2.62 5.54 0.82 11.22 0.75 16.74-0.22-7.83-5.84-14.32-14.07-16.56-22.56z"/>
	<path class="s5" d="m113.72 381.43c10.17-8.02 23.8-11.49 36.56-9.3 3.79 0.65 7.79 1.98 9.97 5.14 2.49 3.62 1.86 8.46 1.13 12.79-0.92 5.43-2.19 11.45-6.72 14.58-2.44 1.68-5.47 2.24-8.41 2.63-7.95 1.06-15.98 1.22-24 1.37-2.44 0.05-5.01 0.07-7.16-1.08-2.55-1.37-4.09-4.41-3.7-7.27 0.4-2.87 2.7-5.38 5.53-6.01-1.41-4.39-2.52-8.88-3.2-12.85z"/>
	<path class="s6" d="m211.18 155.48c-0.95-1.62 0.08-4.37 4.61-3.78 4.94 0.63 5.79 4.11 5.17 5.04-1.64 2.44-8.85 0.32-9.78-1.26z"/>
	<path class="s7" d="m161.23 33.78c-0.99-2.01 0.35-5.6 5.48-5.11 5.59 0.52 6.36 4.94 5.59 6.16-2.01 3.22-10.1 0.92-11.07-1.05z"/>
	<path class="s7" d="m129.23 37.69c-0.99-2.02 0.35-5.6 5.48-5.11 5.59 0.52 6.36 4.93 5.59 6.16-2.01 3.22-10.1 0.92-11.07-1.05z"/>
	<path class="s8" d="m186.32 148.85c-1.11 0-2.12-0.74-2.42-1.86-0.35-1.34 0.45-2.71 1.78-3.06 6.9-1.81 14.38-2.01 22.25-0.58 1.36 0.25 2.26 1.55 2.02 2.91-0.25 1.36-1.55 2.26-2.91 2.01-7.14-1.3-13.9-1.13-20.08 0.5q-0.33 0.08-0.64 0.08z"/>
	<path class="s8" d="m118.33 151c-0.88 0-1.74-0.46-2.19-1.28-0.67-1.21-0.24-2.73 0.97-3.4 6.24-3.46 13.44-5.5 21.42-6.05 1.39-0.09 2.57 0.94 2.67 2.32 0.09 1.38-0.94 2.57-2.32 2.67-7.25 0.5-13.75 2.33-19.34 5.43q-0.59 0.31-1.21 0.31z"/>
	<path class="s8" d="m84.75 146.36c-0.87 0-1.71-0.45-2.17-1.25-1.96-3.43-4.52-6.66-7.6-9.62-0.99-0.96-1.02-2.54-0.07-3.54 0.96-0.99 2.54-1.02 3.54-0.07 3.42 3.29 6.27 6.9 8.47 10.74 0.68 1.2 0.27 2.73-0.93 3.41q-0.6 0.34-1.24 0.33z"/>
	<path class="s8" d="m115.23 203.86c-4.63 0-9.41-1.08-13.48-4.39-8.08-6.6-7.57-13.36-6.65-25.64q0.16-2.17 0.33-4.64c0.09-1.38 1.28-2.41 2.66-2.33 1.38 0.1 2.42 1.29 2.33 2.67q-0.17 2.48-0.34 4.67c-0.89 11.97-1.23 16.45 4.83 21.39 6.97 5.69 17.82 2.51 23.65 0.81l0.86-0.26c1.33-0.38 2.72 0.39 3.1 1.71 0.38 1.33-0.38 2.71-1.71 3.1l-0.85 0.25c-3.68 1.07-9.1 2.66-14.73 2.66z"/>
	<path class="s8" d="m139.5 213.76q-0.61 0.01-1.18-0.29c-6.39-3.43-9.95-11.19-9.28-20.27 0.72-9.86 6.24-18.04 14.06-20.85 1.3-0.47 2.73 0.2 3.2 1.5 0.46 1.3-0.21 2.73-1.51 3.2-7.24 2.61-10.33 10.53-10.77 16.52-0.4 5.55 1.13 12.53 6.66 15.49 1.22 0.65 1.68 2.17 1.02 3.38-0.45 0.85-1.31 1.32-2.2 1.32z"/>
	<path class="s8" d="m77.86 244.25c-1.54 0-2.91-0.31-4.05-0.96-2.32-1.33-3.77-3.45-4.2-6.12-1.49-9.18 9.23-23.5 18.49-33.91 0.92-1.03 2.5-1.12 3.53-0.2 1.03 0.92 1.12 2.5 0.2 3.53-11.72 13.16-18.18 24.29-17.29 29.78 0.19 1.2 0.74 1.99 1.76 2.58 3.46 1.99 17.44-4.64 28.92-17.52 0.76-0.85 2-1.08 3.01-0.56 1.01 0.52 1.55 1.66 1.3 2.77-1.43 6.28-0.29 7.99-0.05 8.27 0.1 0.11 0.35 0.4 1.29 0.32 5.78-0.46 12.78-17.95 15.94-33.89 0.27-1.36 1.58-2.24 2.94-1.97 1.35 0.27 2.23 1.59 1.96 2.94-0.75 3.77-7.68 36.88-20.44 37.9-2.87 0.23-4.55-0.97-5.46-2.02q-1.64-1.88-1.85-5.23c-8.66 8.08-19.05 14.29-26 14.29z"/>
	<path class="s8" d="m139.66 228.34c-0.48 0-0.97-0.14-1.4-0.43-4.61-3.12-10.03-4.36-14.38-5.35l-1.48-0.35c-1.34-0.31-2.18-1.66-1.86-3 0.31-1.34 1.66-2.18 3-1.86l1.45 0.33c4.76 1.09 10.69 2.44 16.08 6.09 1.14 0.77 1.44 2.32 0.67 3.47-0.49 0.71-1.27 1.1-2.08 1.1z"/>
	<path class="s8" d="m87.31 195.98c-0.68 0-1.35-0.27-1.85-0.81-15.32-16.76-14.59-57.27-10.28-65.97 4.42-8.93 25.33-21.75 55.36-27.91 25.04-5.14 63.56-7.15 104.89 12.4 1.25 0.59 1.78 2.08 1.19 3.33-0.59 1.25-2.08 1.78-3.32 1.19-74.42-35.2-146.51-1.2-153.64 13.21-3.7 7.48-3.98 45.64 9.49 60.38 0.94 1.02 0.86 2.6-0.16 3.53-0.48 0.44-1.08 0.65-1.68 0.65z"/>
	<path class="s8" d="m73.49 221.25c-1.48 0-2.84-0.34-3.95-1.06-1.1-0.7-3.54-2.83-2.39-7.44 1.96-7.88 18.79-22.69 28.74-28.17 1.21-0.67 2.73-0.23 3.4 0.98 0.66 1.21 0.22 2.73-0.98 3.4-9.62 5.3-24.85 19.12-26.31 25-0.15 0.61-0.32 1.67 0.23 2.02 1.01 0.65 4.12 0.31 7.56-2.46 1.08-0.87 2.65-0.7 3.52 0.38 0.86 1.08 0.69 2.65-0.38 3.51-3.12 2.51-6.53 3.84-9.44 3.84z"/>
	<path class="s8" d="m254.71 147.41c-1.11 0-2.12-0.74-2.41-1.86-0.36-1.33 0.44-2.7 1.77-3.05 11.31-3 15.83-14.02 16.29-23.33 0.39-8.04-2.26-14.97-6.32-16.49-5.77-2.14-19.42 8.57-28.45 15.65-3.35 2.63-6.52 5.12-9.03 6.79-1.14 0.77-2.7 0.46-3.46-0.69-0.77-1.14-0.46-2.7 0.68-3.46 2.35-1.57 5.45-4 8.72-6.57 11.67-9.16 24.89-19.53 33.29-16.4 6.23 2.32 10.08 10.93 9.56 21.41-0.52 10.57-6.06 24.23-20 27.92q-0.32 0.09-0.64 0.08z"/>
	<path class="s8" d="m239.93 114.24c-1.01 0-1.97-0.63-2.34-1.63-1.84-4.94-7.42-19.96-12.99-21.14-5.29-1.13-12.75 5.74-16.28 14.99-0.5 1.29-1.95 1.94-3.23 1.44-1.29-0.49-1.94-1.93-1.45-3.22 3.96-10.36 13.26-19.96 22-18.11 7.25 1.54 12.28 12.59 16.64 24.29 0.48 1.3-0.18 2.74-1.48 3.22q-0.43 0.16-0.87 0.16z"/>
	<path class="s8" d="m314.15 404.93q-0.67 0-1.35-0.04c-1.38-0.07-2.44-1.24-2.37-2.62 0.07-1.38 1.23-2.44 2.62-2.37 5.76 0.31 11.08-1.76 15.84-6.09 10.45-9.52 15.72-27.37 16.3-40.83 2.69-62.3-39.63-153.79-82.83-211.97-0.82-1.11-0.59-2.67 0.52-3.5 1.11-0.82 2.68-0.59 3.5 0.52 43.72 58.89 86.54 151.71 83.8 215.16-0.62 14.5-6.41 33.83-17.93 44.31-5.41 4.93-11.5 7.43-18.1 7.43z"/>
	<path class="s8" d="m267.95 404.9q-0.06 0-0.12-0.01c-5.48-0.25-9.73-5.39-11.69-14.09-2.27-10.16-0.8-23.2 5.54-26.56 3.33-1.77 5.94-1.23 7.54-0.47 3.85 1.84 6.56 7.03 8.29 15.86 0.26 1.35-0.62 2.67-1.98 2.93-1.35 0.26-2.67-0.62-2.93-1.97-1.88-9.62-4.5-11.81-5.54-12.31-0.53-0.25-1.42-0.49-3.04 0.37-3.48 1.85-4.97 12.28-3 21.05 1.08 4.82 3.5 10.04 7.04 10.2 1.38 0.06 2.45 1.23 2.38 2.61-0.06 1.34-1.17 2.39-2.49 2.39z"/>
	<path class="s8" d="m65.93 404.9q-0.05 0-0.11-0.01c-9.09-0.42-16.25-14.31-18.43-24.04-1.88-8.36-0.58-14.42 3.55-16.61 2.48-1.32 5.09-1.52 7.56-0.59 5.6 2.1 9.44 9.54 11.68 15.41 0.49 1.29-0.16 2.73-1.45 3.23-1.29 0.49-2.73-0.16-3.22-1.45-2.61-6.84-5.8-11.39-8.77-12.51-1.14-0.43-2.23-0.32-3.45 0.32-1.85 0.98-2.27 5.55-1.03 11.11 2.32 10.31 8.89 19.91 13.79 20.14 1.38 0.06 2.44 1.23 2.38 2.61-0.06 1.34-1.17 2.39-2.5 2.39z"/>
	<path class="s8" d="m271.04 370.25q-0.11 0-0.22-0.01c-1.37-0.11-2.39-1.32-2.28-2.7 1.56-18.39 14.6-30.8 36.72-34.94 1.36-0.26 2.66 0.64 2.92 2 0.25 1.36-0.64 2.66-2 2.92-13.94 2.61-30.93 10.01-32.66 30.44-0.11 1.31-1.2 2.29-2.48 2.29z"/>
	<path class="s8" d="m314.85 404.9h-104c-1.38 0-2.5-1.12-2.5-2.5 0-1.38 1.12-2.5 2.5-2.5h104c1.38 0 2.5 1.12 2.5 2.5 0 1.38-1.12 2.5-2.5 2.5z"/>
	<path class="s8" d="m166.21 404.9h-8.98c-1.38 0-2.5-1.12-2.5-2.5 0-1.38 1.12-2.5 2.5-2.5h8.98c1.38 0 2.5 1.12 2.5 2.5 0 1.38-1.12 2.5-2.5 2.5z"/>
	<path class="s8" d="m109.6 404.9h-43.67c-1.38 0-2.5-1.12-2.5-2.5 0-1.38 1.12-2.5 2.5-2.5h43.67c1.38 0 2.5 1.12 2.5 2.5 0 1.38-1.12 2.5-2.5 2.5z"/>
	<path class="s8" d="m96.35 404.9c-9.84 0-17.91-3.81-23.97-11.32-11.99-14.85-13.27-41.02-9.38-59.05 5.83-27 13.97-43.74 20.51-57.19 7.3-15.03 13.07-26.9 13.07-46.48 0-1.38 1.12-2.5 2.5-2.5 1.38 0 2.5 1.12 2.5 2.5 0 20.73-5.99 33.06-13.58 48.66-6.75 13.9-14.41 29.65-20.11 56.07-3.76 17.43-2.09 41.87 8.38 54.85 5.07 6.27 11.82 9.46 20.08 9.46 1.38 0 2.5 1.12 2.5 2.5 0 1.38-1.12 2.5-2.5 2.5z"/>
	<path class="s8" d="m182.73 411.31c-2.46 0-4.75-0.15-6.74-0.44-6.22-0.88-10.24-2.98-11.61-6.07-2.67-6.02 0.86-8.92 3.69-11.25q0.78-0.63 1.55-1.31c0.03-13.98 0.82-39.76 5.44-62.95 0.27-1.36 1.59-2.23 2.94-1.97 1.36 0.27 2.24 1.59 1.97 2.94-4.66 23.39-5.36 49.54-5.36 63.06 0 0.66-0.26 1.3-0.73 1.76-0.9 0.9-1.82 1.66-2.63 2.33-2.83 2.33-3.39 2.9-2.3 5.37 0.45 1.01 2.75 2.44 7.74 3.14 12.1 1.71 30.33-2.06 37.15-10.19 3.49-4.17 12.94-29.72 20.53-50.25 2.18-5.89 4.28-11.57 6.18-16.59 0.49-1.29 1.93-1.94 3.22-1.45 1.29 0.48 1.94 1.93 1.46 3.22-1.9 5.01-3.99 10.68-6.17 16.56-10.15 27.46-17.63 47.24-21.39 51.72-7.52 8.98-23.25 12.37-34.94 12.37z"/>
	<path class="s8" d="m130.08 411.58c-2.36 0-4.62-0.1-6.67-0.31-8.11-0.82-12.96-3.02-14.43-6.52-1.87-4.5 0.8-9.68 4.8-12.56-5.52-17.81-10.71-34.85-14.04-62.11-0.17-1.37 0.81-2.62 2.18-2.79 1.38-0.17 2.62 0.81 2.79 2.18 3.33 27.33 8.58 44.28 14.15 62.24l0.27 0.87c0.36 1.17-0.18 2.44-1.29 2.98-2.73 1.34-5.24 4.88-4.24 7.26 0.36 0.88 2.99 2.73 10.32 3.48 13.13 1.33 29.05-1.83 32.15-6.37 3.25-4.79 5.53-40.82 5.53-70.15 0-1.38 1.11-2.5 2.5-2.5 1.38 0 2.5 1.12 2.5 2.5 0 17.68-1.15 65.25-6.4 72.96-4.23 6.22-18.46 8.85-30.12 8.85z"/>
	<path class="s8" d="m152.91 71.96c-4.72 0-18.7-2.4-30.15-15.86-5.37-6.32-7.32-14.18-5.09-20.5 1.87-5.28 6.34-8.84 12.6-10.03 8.53-1.62 15.05 3.12 18.93 7.9 1.19-3.07 3.21-6.73 6.59-9.3 3.47-2.64 7.68-3.63 12.5-2.96 4.71 0.65 8.78 3.54 11.18 7.93 3.18 5.81 3.06 13.36-0.31 20.7-7.73 16.79-22.14 21.75-25.29 22.08q-0.39 0.04-0.96 0.04zm-19.21-41.72q-1.2 0-2.5 0.24c-4.5 0.86-7.55 3.2-8.81 6.78-1.64 4.65-0.04 10.63 4.19 15.6 10.88 12.8 24.53 14.33 26.77 14.08 2.15-0.22 14.48-4.46 21.27-19.19 2.71-5.89 2.87-11.8 0.46-16.22-1.65-3.02-4.31-4.93-7.48-5.37-5.33-0.74-9.3 1.16-12.13 5.81-2.27 3.74-2.87 7.85-2.87 7.89-0.15 1.1-1.01 1.97-2.11 2.13-1.09 0.17-2.16-0.4-2.63-1.41-0.22-0.45-5.02-10.34-14.16-10.34z"/>
	<path class="s8" d="m323.35 323.5c-1.2 0-2.26-0.86-2.47-2.08-0.68-3.99-1.66-7.96-2.92-11.82-0.43-1.31 0.29-2.72 1.6-3.15 1.31-0.43 2.73 0.29 3.15 1.6 1.34 4.08 2.38 8.3 3.1 12.53 0.23 1.36-0.68 2.65-2.04 2.88q-0.22 0.04-0.42 0.04z"/>
	<path class="s8" d="m317.1 298.81c-1.14 0-2.17-0.79-2.44-1.95-0.89-3.94-2.09-7.86-3.56-11.63-0.5-1.29 0.14-2.74 1.42-3.24 1.29-0.5 2.74 0.14 3.24 1.43 1.56 4 2.83 8.15 3.78 12.33 0.31 1.35-0.54 2.69-1.88 3q-0.28 0.06-0.56 0.06z"/>
	<path class="s8" d="m331.35 308.86c-1.11 0-2.12-0.75-2.42-1.88-1-3.85-2.22-7.63-3.61-11.24-0.5-1.29 0.14-2.74 1.43-3.23 1.29-0.5 2.74 0.14 3.23 1.43 1.46 3.79 2.74 7.75 3.79 11.79 0.35 1.33-0.45 2.7-1.79 3.04q-0.32 0.09-0.63 0.09z"/>
</svg>