<svg version="1.2" xmlns="http://www.w3.org/2000/svg" viewBox="0 0 500 500" width="500" height="500">
	<style>
		.s0 { opacity: .36;fill: #f3d077 } 
		.s1 { fill: #f3d077 } 
		.s2 { fill: none;stroke: #933642;stroke-linecap: round;stroke-linejoin: round;stroke-width: 2 } 
		.s3 { fill: #e5952a } 
		.s4 { opacity: .7;fill: #f3d077 } 
		.s5 { fill: none;stroke: #f3d077;stroke-linecap: round;stroke-linejoin: round;stroke-width: 2 } 
		.s6 { fill: none;stroke: #e5952a;stroke-linecap: round;stroke-linejoin: round;stroke-width: 2 } 
		.s7 { opacity: .57;fill: #e5952a } 
		.s8 { fill: none;stroke: #4e1d23;stroke-linecap: round;stroke-linejoin: round;stroke-width: 2 } 
		.s9 { fill: #933642 } 
		.s10 { fill: none;stroke: #e17f1d;stroke-linecap: round;stroke-linejoin: round;stroke-width: 2 } 
		.s11 { opacity: .4;fill: #f3d077 } 
	</style>
	<g id="BACKGROUND">
	</g>
	<g id="OBJECTS">
		<path fill-rule="evenodd" class="s0" d="m463.6 434.45c-3.37 29.15-101.94 41.62-220.51 27.91-118.56-13.71-211.68-48.36-208.31-77.51 3.38-29.15 101.94-41.62 220.51-27.91 118.56 13.71 211.68 48.36 208.31 77.51z"/>
		<g>
			<g>
				<g>
					<path class="s1" d="m376.85 333.8c10.16 25.22 34.18 46.93 56.09 65.94 30.31 26.29 12.99 31.94 7.53 27.98-4.46 5.8-9.98 4.87-15.62 3.2 0 0-4.15 5.28-12.99 1.13-8.85-4.14-16.94-13.93-16.94-13.93l-68.33-34.4c0 0-21.27-15.67-20.52-16.8 0.75-1.12 39.72-34.82 39.72-34.82z"/>
					<g>
						<path fill-rule="evenodd" class="s2" d="m418.75 433.63v4.64"/>
						<path fill-rule="evenodd" class="s2" d="m434.83 431.78v5.07"/>
						<path fill-rule="evenodd" class="s2" d="m447.55 428.14v3.64"/>
					</g>
					<path class="s3" d="m440.47 427.72c4.09 2.97 17.54-1.62 9.88-14.11-2.55-4.17-9.83-7.3-17.41-13.87-6.13-5.32-12.43-10.86-18.55-16.62-10.08 0.02-6.67 15.77-6.67 15.77 0 0-10.54-9.14-11.77-7.89-1.22 1.24 4.05 9.43 4.05 9.43 0 0-10.07-7.62-16.56-6.78-5.41 0.71-6.5 8.07-4.27 16.54l15.75 7.93c0 0 8.09 9.79 16.94 13.93 8.85 4.14 12.99-1.13 12.99-1.13 5.64 1.66 11.16 2.6 15.62-3.2z"/>
					<path class="s4" d="m390.99 357.81c-4.62-6.04-8.66-12.29-11.81-18.79l-42.56 1.02c-11.56 10.04-30.03 26.11-30.55 26.88-0.75 1.13 20.52 16.8 20.52 16.8l68.33 34.4c0 0 8.09 9.79 16.94 13.93 7.52 3.52 11.63 0.25 12.69-0.81-10.19-17.16-34.95-50.45-33.56-73.43z"/>
					<g>
						<path fill-rule="evenodd" class="s5" d="m424.85 430.92c3.38-4.89 2.07-11.29 2.07-11.29"/>
						<path fill-rule="evenodd" class="s5" d="m440.47 427.72c2.45-6.02-1.5-9.6-3.58-10.91"/>
					</g>
				</g>
				<g>
					<g>
						<path class="s1" d="m311.53 201.09c-3.95-8.85-10.54-11.48-10.73-3.95-0.19 7.52-0.94 11.67-0.94 11.67 0 0-5.46-16.94-17.88-32.57-12.43-15.62-39.53-35.76-56.1-43.48-16.56-7.72-30.87-8.66-31.05-7.15-0.19 1.5 4.89 5.64 4.89 5.64 0 0-24.28-3.95-25.41-1.5-1.13 2.44 7.53 6.02 7.53 6.02 0 0-25.23 2.45-35.2 3.77-4.58 0.6-8.84-1.07-12.38-3.67-6.13-6.21-1.41-16.52-3.39-18.36-1.68-1.56-5.83 0.81-7.28 6.87-8.77 1.48-44.53 34.92-44.53 34.92 6.17 7.65 14.21 13.85 25.13 17.81-20.51 6.27-34.15 18.06-34.73 40.35-17.51 8.66-20.16 82.64 0 119.44 0 0-10.02 2.54-7.2 18.92 2.82 16.37 7.48 29.5 13.84 41.93 6.35 12.42 17.64 10.02 17.64 10.02 0 0 4.66 4.24 11.44 2.68 6.77-1.55 8.33-5.08 8.33-5.08 0 0 8.61 1.55 8.61-4.66 0-6.21-2.83-8.61-10.73-18.49-7.91-9.88-9.46-13.27-9.46-13.27 3.01 0.26 5.41-0.6 6.92-3.11 0 0-2.4 3.81 5.93 1.98 8.33-1.84 18.07-13.27 18.07-13.27 5.68 8 13.18 14.79 24.28 19.2 0 0-13.32-1.18-8.05 4.66 5.27 5.83 31.44 13.55 48.19 14.49 0 0-9.51 6.03 3.01 7.72 26.54 3.57 47.06-5.65 47.06-5.65l26.54-40.28c46.62 14.17 40.73-62.46 46.03-119.72v-5.08c-4.24-7.91-4.43-19.95-8.38-28.8z"/>
						<path fill-rule="evenodd" class="s5" d="m75.11 160.93c10.16 10.51 22.87 15.99 31.34 13.82"/>
					</g>
					<g>
						<path class="s4" d="m254.68 383.84c-8.25-5.55-20.25-12.98-26.54-13.76-10.16-1.27-14.84-9.74-14.84-9.74 0 0-14.24 0.56-27.8-1.37-13.55-1.94-1.41-9.2-1.41-9.2 0 0-16.37-2.7-20.89-5.53-4.52-2.82 7.62-5.22 7.62-5.22 0 0-22.3-8.05-29.08-24.46l-14.86 40.13 1.35 4.62c2.77-2.6 4.62-4.76 4.62-4.76 5.67 8 13.17 14.79 24.28 19.2 0 0-13.32-1.18-8.05 4.66 5.27 5.83 31.44 13.55 48.19 14.49 0 0-9.51 6.03 3.01 7.72 26.54 3.58 47.06-5.65 47.06-5.65z"/>
						<path fill-rule="evenodd" class="s5" d="m164.33 349.77c10.45 3.79 23.28 0 23.28 0"/>
					</g>
					<g>
						<path class="s1" d="m286.51 349.31c10.34 7.83 19.25-1.57 27.53 6.9 8.28 8.47 16.88 16.93 44.17 34.62 27.3 17.7 46.31 23.91 47.44 31.25 1.13 7.34-5.65 8.28-5.65 8.28 0 0 1.88 7.53-5.08 9.98-6.97 2.44-11.3 0-11.3 0 0 0-1.69 9.97-12.42 9.41-10.73-0.57-9.41-12.05-9.41-12.05 0 0-26.73 1.69-48-1.51-21.27-3.19-5.65-8.47-5.65-8.47 0 0-18.63-3.95-34.82-10.16-16.19-6.21-19.2-12.05-17.51-12.99 1.7-0.94 6.22-0.19 6.22-0.19 0 0-16.19-7.72-26.55-17.88-10.35-10.16-15.43-16.42-15.43-16.42 0 0-8.66 7.76-16.94-5.42-8.28-13.17-12.05-33.88-10.73-47.24 1.32-13.37 67.2 24.47 67.2 24.47z"/>
						<g>
							<path fill-rule="evenodd" class="s2" d="m372.42 446.17v6.5"/>
							<path fill-rule="evenodd" class="s2" d="m398.2 438.27v4.23"/>
							<path fill-rule="evenodd" class="s2" d="m404.17 428.14v5.49"/>
						</g>
						<path class="s3" d="m405.65 422.08c-0.93-6.03-13.92-11.3-33.64-22.79-20.72-2.84-12.48 10.17-12.48 10.17 0 0-8.66-7.76-10.17-5.29-1.5 2.47 8.48 9.44 8.48 9.44 0 0-15.06-8.1-24.85-6.59-9.79 1.5-9.41 12.61-9.41 12.61 0 0-7.57-8.66-17.53-7.34-7.08 0.94-8.36 8.55-8.51 12.87 6.28 1.65 10.6 2.56 10.6 2.56 0 0-15.62 5.27 5.65 8.47 21.27 3.2 48 1.51 48 1.51 0 0-1.32 11.48 9.41 12.05 10.73 0.56 12.42-9.41 12.42-9.41 0 0 4.33 2.44 11.3 0 6.96-2.45 5.08-9.98 5.08-9.98 0 0 6.78-0.94 5.65-8.28z"/>
						<g>
							<path fill-rule="evenodd" class="s6" d="m324.77 406.28c16.75-4.9 33.07 7.33 33.07 7.33"/>
							<path fill-rule="evenodd" class="s6" d="m294.28 415.5c11.29-10.35 22.46-4.54 29.3 4.13"/>
						</g>
						<g>
							<path fill-rule="evenodd" class="s5" d="m383.62 440.34c2.64-12.05-7.9-15.06-7.9-15.06"/>
							<path fill-rule="evenodd" class="s5" d="m400 430.36c-0.56-10.73-12.61-10.73-12.61-10.73"/>
						</g>
					</g>
					<path class="s4" d="m319.81 229.69c-3.24-6.18-4.08-14.81-6.17-22.49-5.98 5.86-11.95 16.63-11.95 16.63 0 0-19.9-16.9-22.72-13.89-2.83 3.01 2.25 13.89 2.25 13.89 0 0-36.81-4.29-41.56-3.07-4.74 1.22 9.51 8.56 9.51 8.56 0 0-55.47-5.5-51.9 13.15 2.16 11.24 20.98 25.09 20.98 25.09 0 0-28.27 5.25-26.13 15.41 2.14 10.16 31.1 19.66 31.1 19.66 0 0-6.44 17.09 6.04 23.33 12.48 6.24 18.36 6.14 18.36 6.14 0 0 2.34 22.69 20.62 19.95 18.27-2.74 37.81-16.99 37.81-16.99z"/>
				</g>
				<g>
					<g>
						<path class="s3" d="m288.24 185.05c-1.85-2.9-3.93-5.88-6.26-8.81-12.43-15.62-39.53-35.76-56.1-43.48-16.56-7.72-30.87-8.66-31.06-7.15-0.18 1.5 4.9 5.64 4.9 5.64 0 0-24.28-3.95-25.41-1.5-1.13 2.44 7.53 6.02 7.53 6.02 0 0-36.71 6.31-37.27 19.01-0.57 12.71 24.56 15.53 24.56 15.53 0 0-12.42 0.85-9.6 7.06 2.82 6.21 28.08 12.71 28.08 12.71 0 0-13.96 6.21 11.17 12.42 25.13 6.21 47.63 7.62 44.57 0 0 0 7.66 1.69 8.23-3.95 0.56-5.65-2.83-13.84-2.83-13.84 0 0 42.75 26.66 39.49 0.34z"/>
						<g>
							<path fill-rule="evenodd" class="s6" d="m187.61 196.95c24.91 18.82 52.77 14.68 51.83 8.66"/>
							<path fill-rule="evenodd" class="s6" d="m161.51 176.24c4.14 16.94 30.49 13.74 30.49 13.74"/>
							<path fill-rule="evenodd" class="s6" d="m253.93 199.96c1.13-4.71-1.13-12.8-9.03-18.07"/>
						</g>
					</g>
					<path class="s4" d="m277.55 171.13c-13.64-14.65-36.86-31.47-51.67-38.37-16.56-7.72-30.87-8.66-31.06-7.15-0.18 1.5 4.9 5.64 4.9 5.64 0 0-24.28-3.95-25.41-1.5-1.13 2.44 7.53 6.02 7.53 6.02 0 0-25.23 2.45-35.2 3.77-9.98 1.31-24.29 16.18-5.09 19.95 19.2 3.76 21.84-3.39 21.84-3.39 0 0-1.51-5.27 6.02-3.01 7.53 2.26 14.2 7.49 14.2 7.49 0 0-1.75-10.88 3.51-9.37 5.26 1.5 20.98 9.37 20.98 9.37 0 0-3.68-12.01 2.72-6.74 6.4 5.27 34.69 22.97 41.25 20.71 6.57-2.26 3.84-16.57 3.84-16.57 0 0 10.91 14.81 21.64 13.15z"/>
				</g>
				<g>
					<g>
						<path class="s3" d="m375.15 233.65c20.33-15.43 22.4-27.48 13.37-28.42-9.04-0.94-65.51 11.11-65.51 29.36 0 18.26 52.14-0.94 52.14-0.94z"/>
						<path class="s7" d="m375.52 225.62c-8.24-2.46-14.45-7.72-17.39-14.74-17.24 5.14-35.12 13.44-35.12 23.72 0 18.26 52.14-0.95 52.14-0.95q4.56-3.47 7.92-6.67c-2.5-0.18-5.02-0.61-7.55-1.36z"/>
						<path fill-rule="evenodd" class="s2" d="m389.83 210.13c-10.35-1.89-36.76 10.76-43.29 21.45"/>
					</g>
					<g>
						<g>
							<path class="s1" d="m314.04 356.21c24.41 21.65 44.8 3.2 50.48-4.91 14.43-2.53 27.47-9.23 33.31-37.55 6.86 0.27 10.72-5.93 9.6-22.87 11.2-27.11-3.1-44.8-29.23-54.5 0 0 11.87-3.95-6.2-7.76-18.07-3.81-30.49 0.85-30.49 0.85 0 0-9.75-4.52-31.91-0.85-22.17 3.67-18.78 8.19-33.74 6.21-14.97-1.98-43.63-5.65-58.45 0.14-14.82 5.79-8.05 17.37 4.38 25.98 12.42 8.61 23.57 11.86 23.57 11.86 0 0-8.94 9.22-9.88 24.47-0.94 15.24 9.79 16 9.79 16 0 0-0.56 15.24 12.61 24.09 13.18 8.85 21.84 7.53 21.84 7.53 4.38 6.22 14.56 13.1 34.32 11.31z"/>
							<g>
								<path fill-rule="evenodd" class="s5" d="m382.19 339.02c18.75-2.12 15.93-28.94 15.36-30.92"/>
								<path fill-rule="evenodd" class="s5" d="m412.52 257.59c-11.01-16.69-34.44-17.25-34.44-17.25"/>
								<path fill-rule="evenodd" class="s5" d="m232.66 308.64c-6.21-14.66 7.8-31.6 16.89-34.14"/>
							</g>
						</g>
						<g>
							<path class="s3" d="m378.2 236.38c1.49-0.6 2.7-1.47 3.7-2.51 0.64-1.46-0.99-3.37-9.9-5.25-18.07-3.81-30.49 0.85-30.49 0.85 0 0-9.75-4.52-31.91-0.85-14.41 2.38-18.02 5.13-22.89 6.21-21.21 10.94-7.46 24.42 6.65 24.71 14.12 0.28 31.06-5.37 31.06-5.37 0 0-4.23 8.13 6.5 7.03 10.73-1.1 19.2-9.57 19.2-9.57 0 0 2.54 6.21 13.27-0.56 10.73-6.78-2.54-11.3-2.54-11.3 0 0 7.6 0.57 17.35-3.39z"/>
							<path fill-rule="evenodd" class="s6" d="m280.1 252.19c2.82 14.69 34.92 12.43 48.8 0"/>
							<path fill-rule="evenodd" class="s6" d="m341.93 260.35c9.6-4.77 9.12-16.14 9.12-16.14"/>
						</g>
						<g>
							<path class="s1" d="m214.83 243.36c-3.17 1.64-0.26 11.56 6.96 17.59 11.6 9.69 23.57 11.86 23.57 11.86 0 0 7.82-8.85 14.78-13.18 6.97-4.33-35.15-21.54-45.31-16.27z"/>
						</g>
					</g>
					<g>
						<g>
							<path fill-rule="evenodd" class="s8" d="m390.78 262.64c-19.58-7.9-30.87 7.16-30.87 7.16"/>
							<path fill-rule="evenodd" class="s8" d="m338.45 273.6c-19.58-7.91-30.87 7.15-30.87 7.15"/>
						</g>
						<path class="s9" d="m363.52 275.46c0.25 1.49-4.46 3.5-10.51 4.5-6.05 1-11.16 0.6-11.4-0.89-0.25-1.48 4.46-3.5 10.51-4.49 6.05-1 11.16-0.6 11.4 0.88z"/>
						<g>
							<path fill-rule="evenodd" class="s10" d="m319.91 289.37c20.61 24.1 35.29 3.01 34.54-6.77 0 0 3.72 13.97 17.13 9.97 13.71-4.09 10.44-19.76 10.44-19.76"/>
							<path fill-rule="evenodd" class="s10" d="m343.62 306.38c13.84 11.86 24.15 0.42 24.57-7.62"/>
						</g>
						<g>
							<g>
								<path fill-rule="evenodd" class="s6" d="m396 280.75c43.76 12.1 62.26 28.49 62.26 28.49"/>
								<path fill-rule="evenodd" class="s6" d="m397.55 275.07c35.86-2.26 67.77 10.16 67.77 10.16"/>
							</g>
							<g>
								<path fill-rule="evenodd" class="s6" d="m296.05 288.48c-36.28 7.76-75.64 32.88-87.96 46.02"/>
								<path fill-rule="evenodd" class="s6" d="m225.18 352.57c18.17-22.44 25.41-36.96 76.51-58.73"/>
							</g>
						</g>
					</g>
				</g>
				<g>
					<path class="s3" d="m104.19 177.11c-20.51 6.27-34.15 18.06-34.73 40.36-12.8 6.33-17.66 47.59-11.46 83.71 5.39-3.69 9.77-16.23 9.77-16.23 0 0 3.67 20.05 12.7 18.07 9.04-1.98 11.01-45.74 11.01-45.74 56.47-21.18 55.63-81.32 12.71-80.17z"/>
					<g>
						<path fill-rule="evenodd" class="s6" d="m58.92 286.36c-15.81-32.94-0.75-75.29 13.93-68.71"/>
						<path fill-rule="evenodd" class="s6" d="m82.26 298.6c7.15 6.02 16-30.69 8.09-44.81"/>
					</g>
				</g>
				<g>
					<path class="s1" d="m145.69 274.5c0 0-55.95 46.99-82.26 48.48 1.72 5.02 3.73 9.72 6.03 13.92 0 0-10.02 2.54-7.2 18.92 2.82 16.37 7.48 29.5 13.83 41.93 6.36 12.42 17.65 10.02 17.65 10.02 0 0 4.66 4.24 11.44 2.68 6.77-1.55 8.33-5.08 8.33-5.08 0 0 8.61 1.55 8.61-4.66 0-6.21-2.83-8.61-10.73-18.49-7.91-9.88-9.46-13.27-9.46-13.27 3.08 0.06 5.59-0.69 6.92-3.11 0 0-2.4 3.81 5.93 1.98 8.33-1.84 18.07-13.27 18.07-13.27 9.08-11.34 12.66-28.85 13.79-43.34 1.12-14.5-0.94-36.71-0.94-36.71z"/>
					<path class="s11" d="m112.82 383.99q-0.69-0.84-1.43-1.77c-7.91-9.88-9.46-13.27-9.46-13.27 1.83 0.04 3.45-0.22 4.75-0.94l-2.31-2.31-17.78-4.99c-16.19-8.47-12.05 16.37 4.52 21.46 8.61 2.64 16.3 2.53 21.71 1.82z"/>
					<g>
						<path fill-rule="evenodd" class="s6" d="m113.51 405.37c4.7-9.08-4.52-14.35-4.52-14.35"/>
						<path fill-rule="evenodd" class="s6" d="m93.74 407.77c7.53-8.09 0.38-15.25 1.13-15.06"/>
					</g>
					<g>
						<path class="s3" d="m132.85 354.55c9.08-11.34 12.66-28.85 13.79-43.34q0.07-1.01 0.13-2.05c-2.9-11.79-12.22-11.43-19.52 7.32 0 0-0.38-11.67-6.59-5.65-6.21 6.02-7.91 32.94-7.91 32.94 0 0-4.14-6.59-4.89-2.63-0.75 3.95 2.07 9.22 2.07 9.22 0 0-5.29 0.94-5.56 4.89-0.27 3.96 1.23 5.46 1.23 5.46 0 0-17.32-2.44-19.01 0-1.54 2.23 9.09 6.5 15.91 8.23 2.82-0.04 5.11-0.83 6.35-3.1 0 0-2.4 3.81 5.93 1.98 8.33-1.84 18.07-13.27 18.07-13.27z"/>
						<g>
							<path fill-rule="evenodd" class="s6" d="m122.73 311.49c-12.05 0.47-11.36 29.08-9.91 36.05"/>
							<path fill-rule="evenodd" class="s6" d="m108.14 361.94c-11.01-3.68-5.61-12.71 4.68-12.15"/>
							<path fill-rule="evenodd" class="s6" d="m143.72 298.36c-9.04-2.82-17.51 13.41-16.8 20.89"/>
						</g>
					</g>
				</g>
				<g>
					<g>
						<path class="s1" d="m82.97 163.68c-8.05-6.83-7.86-12.28-7.86-12.28 0 0-14.17-12.71-19.79-40.1-5.62-27.39 7.36-44.89 11.03-44.89 3.68 0 5.37 4.8 5.37 4.8 0 0 6.49-18.36 21.74-27.96 15.25-9.6 33.88-11.29 33.6-8.18-0.28 3.1-3.67 5.92-3.67 5.92 0 0 20.05-6.77 50.82-0.56 30.78 6.21 42.35 19.48 42.07 21.46-0.28 1.98-7.62 1.69-7.62 1.69 0 0 5.08 7.63 20.33 15.25 15.24 7.62 6.49 11.58 6.49 11.58 0 0 16.38 2.82 35.86-0.29 19.48-3.1 45.18-0.56 48.56 22.87 3.39 23.44-15.52 34.17-15.52 34.17 0 0 0.28 7.62-12.71 11.01-12.99 3.39-36.41-6.8-36.41-6.8 0 0-10.46 6.8-25.99-0.26-15.53-7.06-22.02-19.76-35.86-35.57-13.83-15.82-33.88-26.54-53.08-21.18-19.2 5.36-14.96 30.64-14.96 30.64l-23.16 28.94z"/>
						<g>
							<path class="s3" d="m213.43 110.41c-12.77-17.93-25.82-18.31-25.82-18.31 0 0 19.26-18.07 4.29-26.73-14.96-8.66-19.48 8.28-19.48 8.28 0 0-12.8-7.15-19.2 0.38-4.47 5.26-1.41 14.18 0.84 19.09 13.55 1.18 26.68 9.05 36.93 19.77 17.85 7.53 31.42 10.14 22.44-2.48z"/>
							<g>
								<g>
									<path fill-rule="evenodd" class="s6" d="m115.91 32.1c-20.76 3.53-28.8 19.48-28.8 19.48"/>
									<path fill-rule="evenodd" class="s6" d="m144.56 67.07c-6.58-7.34-28.65 6.21-28.65 6.21"/>
								</g>
								<g>
									<path fill-rule="evenodd" class="s6" d="m192 69.08c23.72 10.03 4.71 26.03-6.78 23.59"/>
									<path fill-rule="evenodd" class="s6" d="m220.24 115.82c-0.57-19.39-39.16-24.76-39.16-24.76"/>
									<path fill-rule="evenodd" class="s6" d="m158.68 92.92c18.07 3.84 25.56 17.96 25.56 17.96"/>
								</g>
							</g>
							<path class="s3" d="m124.99 120.39c-0.19-7.11 1.15-20.39 12.98-25.21 1.32-5.81-3.4-6.99-13.36-4.12 0 0 22.97-8.75 18.07-18.53-4.89-9.79-25.22-0.76-25.22-0.76 0 0 36.14-35.01 5.93-30.77 0 0 3.39-2.83 3.67-5.93 0.28-3.11-18.35-1.41-33.6 8.19-2.3 1.44-4.4 3.1-6.31 4.85-0.12 0.18-11.07 16.38-5.83 26.86 5.27 10.54 27.48 3.39 27.48 3.39 0 0-23.72 20.52-15.25 36.33 4.98 9.28 19.93 8.18 31.44 5.7z"/>
						</g>
					</g>
					<g>
						<path fill-rule="evenodd" class="s5" d="m307.76 98.66c-17.78-18.98-37.64-12.21-62.87-4.02"/>
						<path fill-rule="evenodd" class="s5" d="m200.66 60.2c17.03 14.68 38.8 19.48 38.8 19.48"/>
						<path fill-rule="evenodd" class="s5" d="m208.97 55.96c4.21-15.81-41.25-21.74-59.6-16.66"/>
						<path fill-rule="evenodd" class="s5" d="m60.99 81c-19.48 26.07-7.63 56.95 20.89 74.4"/>
						<path fill-rule="evenodd" class="s5" d="m81.88 48.62c-9.03 10.73-12.42 20.33-10.44 27.1"/>
					</g>
				</g>
			</g>
			<g>
				<path fill-rule="evenodd" class="s2" d="m304.38 147.16c-4.36 13.43-24.97 14.93-49.11 4.21-22.24 7.76-38.12-4.1-53.77-26.06 0 0-10.03-13.18-20.42-21.87"/>
				<path fill-rule="evenodd" class="s2" d="m380.34 231.29c-18.49-8.3-38.83-1.82-38.83-1.82-28.82-6.09-46.67 3.82-54.8 5.36-8.14 1.55-29.49-4.68-54.55-2.71-19.77 1.55-29.95 8.9-19.4 20.75 10.55 11.86 21.53 17.86 32.6 19.94"/>
				<path fill-rule="evenodd" class="s2" d="m270.12 243.63c-13.37 7.34-55.49-3.66-56.56 1.12-1.08 4.78 2.06 11.19 8.23 16.2"/>
				<path fill-rule="evenodd" class="s2" d="m264.54 257.29c-13.56 7.06-20.48 17.67-23.99 22.45"/>
				<path fill-rule="evenodd" class="s2" d="m257.88 337.37c9.29 8.48 21.84 7.53 21.84 7.53 0 0 4.39 7.67 16.33 10.61 7.89 1.94 17.99 0.7 17.99 0.7 0 0 8.85 10.11 21.27 10.16 8.31 0.04 19.45-0.59 29.21-15.07"/>
				<path fill-rule="evenodd" class="s2" d="m319.81 361.13c16.97 19.88 52.2 38.16 75.49 51.26 0 0 9.29 4.61 10.35 9.69 1.38 6.62-5.65 8.28-5.65 8.28"/>
				<path fill-rule="evenodd" class="s2" d="m220.05 370.08c17 20.57 31.08 28.83 41.97 34.3 0 0-11.9-1.62-5.43 3.39 6.47 5.01 11.96 11 51.55 19.95"/>
				<path fill-rule="evenodd" class="s2" d="m120.72 173.24c-26.82 3.95-50.01 13.63-51.26 44.23"/>
				<path fill-rule="evenodd" class="s2" d="m152.72 253.79c0 0 8.66 35.59 4.15 42.95-4.52 7.36-8.76-5.17-8.76-5.17 0 0-1.97 38.72-10.69 55.97-8.95 17.7-29.44 26.67-28.57 18.3 0 0-4.78 10.47-28.22-7.84"/>
				<path fill-rule="evenodd" class="s2" d="m133 354.36c2.42 5.65 17.34 16.94 25.23 18.53 0 0-11.22 0.78-10.37 3.08 0.77 2.06 9.7 9.38 24.96 12"/>
			</g>
		</g>
	</g>
</svg>