<svg version="1.2" xmlns="http://www.w3.org/2000/svg" viewBox="0 0 185 254" width="185" height="254">
	<style>
		.s0 { fill: #e6710b } 
		.s1 { fill: #cf560a } 
		.s2 { fill: #803f21 } 
		.s3 { fill: #e6d3a3 } 
		.s4 { fill: #ccbb91 } 
		.s5 { fill: #f18628 } 
		.s6 { fill: #982626 } 
		.s7 { fill: #ab2b2b } 
		.s8 { fill: #f1b480 } 
	</style>
	<path class="s0" d="m126.69 179.38c8.77-10.47 8.4-27.07 5.49-41.18-2.88-13.94-6.97-27.99-13.33-40.39-6.17-12.04-13.23-19.35-25.37-21.71-15.21-2.97-23.86 8.34-30.31 23.35-6.32 14.7-8.6 29.92-12.9 45.12-3.64 12.9-1.72 25.17 8.16 35.45 15.44 16.07 53.44 17.05 68.26-0.64z"/>
	<path class="s1" d="m131.02 132.87q0.61 2.66 1.16 5.33c2.91 14.11 3.28 30.71-5.49 41.18-14.82 17.69-52.82 16.71-68.26 0.64-9.88-10.28-11.8-22.55-8.16-35.45q1.15-4.11 2.16-8.21c10.44 5.05 21.78 8.48 33.65 10.17 16.36 2.62 33.21-2.69 44.94-13.66z"/>
	<path class="s0" d="m62.91 144.58c0.74 4.97-0.04 11.53-5.34 11.34q-0.24 0-0.46-0.03c-2.24-9.62-5.71-28.23 5.98-26.11 5.48 0.99 6.09 9.44 7.07 13.88q0.5 2.26 1 4.53c-3.18 4.66-5.46-1.55-8.25-3.61z"/>
	<path class="s2" d="m64.85 184.55c-2.69-8.01-4.79-16.23-6.72-24.46-0.23-0.98-0.6-2.44-1.02-4.2q0.22 0.03 0.46 0.03c5.3 0.19 6.08-6.37 5.34-11.34 2.79 2.06 5.07 8.27 8.25 3.61q1.57 7.16 3.13 14.33 2.95 13.58 5.87 27.16c0 0 1.44 17.62-7.23 10.97-4.47-3.44-6.39-11.06-8.08-16.1z"/>
	<path class="s0" d="m114.1 143.03c-2.15 4.55-6.44 9.57-10.75 6.46q-0.19-0.12-0.35-0.27c3.47-9.25 10.92-26.65 19.47-18.4 4.01 3.87-0.18 11.23-1.83 15.48q-0.84 2.16-1.69 4.31c-5.23 2.12-3.68-4.32-4.85-7.58z"/>
	<path class="s2" d="m93.51 177.35c2.22-8.16 5.03-16.16 7.99-24.07 0.35-0.94 0.86-2.37 1.5-4.06q0.16 0.15 0.35 0.27c4.31 3.11 8.6-1.91 10.75-6.46 1.17 3.26-0.38 9.7 4.85 7.58q-2.67 6.84-5.35 13.67-5.09 12.92-10.21 25.83c0 0-8.59 15.46-12.1 5.11-1.81-5.34 0.82-12.74 2.22-17.87z"/>
	<path class="s0" d="m93.48 76.1c12.14 2.36 19.2 9.67 25.37 21.71 5.55 10.82 9.37 22.89 12.17 35.06-11.73 10.97-28.58 16.28-44.94 13.67-11.87-1.7-23.21-5.13-33.65-10.18 3.09-12.45 5.56-24.86 10.74-36.91 6.45-15.01 15.1-26.32 30.31-23.35z"/>
	<path class="s3" d="m68.74 115.25c0.48 5.56 1.36 12.79 1.27 12.87q3.91-3.72 7.82-7.44 3.76 15.07 7.53 30.15c10.6-8.05 18.05-20.12 20.51-33.2q3.16 5.29 6.32 10.58c5.38-14.31 6.67-28.43-6.06-38.3-12.45-9.67-22.25-4.56-30.89 6.53-3.42 4.4-5.61 6.94-6.73 12.75-0.16 0.8-0.02 3.21 0.23 6.06z"/>
	<path class="s3" d="m71.65 101.26c14.2 2.95 28.58 2.92 41.77-2.8 4.48 8.73 2.74 19.18-1.23 29.75q-3.16-5.29-6.32-10.58c-2.46 13.08-9.91 25.15-20.51 33.2q-3.76-15.08-7.53-30.15-3.91 3.72-7.82 7.44c0.09-0.08-0.79-7.31-1.27-12.87-0.25-2.85-0.39-5.26-0.24-6.06 0.67-3.43 1.71-5.72 3.15-7.93z"/>
	<path class="s4" d="m71.65 101.26c1-1.53 2.19-3.02 3.59-4.81 8.64-11.1 18.44-16.21 30.89-6.54 3.33 2.58 5.7 5.46 7.29 8.55-13.18 5.72-27.57 5.75-41.77 2.8z"/>
	<path class="s0" d="m113.48 39.53q1.46 1.37 3.05 2.56c3.47 2.61 7.37 4.61 11.53 5.85q2.46 0.75 5.03 1.14c9.99-9.97 12.95-26.3 7.1-39.14-14.36 3.08-25.45 14.96-26.71 29.59z"/>
	<path class="s2" d="m116.53 42.09c3.47 2.61 7.38 4.61 11.53 5.85q0.39-0.29 0.74-0.69c5.63-6.45 7.76-16.13 5.39-24.54-8.38 3.35-14.77 10.46-17.66 19.38z"/>
	<path class="s0" d="m69.91 39.53q-1.46 1.37-3.06 2.56c-3.46 2.61-7.37 4.61-11.52 5.85q-2.47 0.75-5.03 1.14c-9.99-9.97-12.96-26.3-7.1-39.14 14.36 3.08 25.45 14.96 26.71 29.59z"/>
	<path class="s2" d="m66.85 42.09c-3.46 2.61-7.37 4.61-11.52 5.85q-0.39-0.29-0.74-0.69c-5.64-6.45-7.76-16.13-5.39-24.54 8.38 3.35 14.77 10.46 17.65 19.38z"/>
	<path class="s5" d="m31.19 77.94c37.74 19.31 84.59 19.68 122.63 0.96-7.85-27.21-31.98-52.33-60.28-52.21-28.31 0.12-54.73 23.99-62.35 51.25z"/>
	<path class="s3" d="m31.19 77.94c37.74 19.31 84.59 19.68 122.63 0.96 0 0-42.44-54.03-58.67 8.45l-6.44-0.9c0 0-8.44-68.55-57.52-8.51z"/>
	<path class="s6" d="m83.42 87.15c1.38-2.14 7.2-1.7 9.07-1.61 1.75 0.09 6.55 0.26 7.67 1.83 2.67 3.72-5.02 7.83-7.74 7.78-2.1-0.04-4.13-0.96-5.74-2.28-1.05-0.86-3.82-3.53-3.52-5.07q0.07-0.36 0.26-0.65z"/>
	<path class="s7" d="m88.16 88.02c0.71-1.02 1.79-0.98 2.95-1.06 1.22-0.09 2.79-0.19 3.82 0.6 0.47 0.36 0.71 1.27 0 1.58-0.98 0.41-1.94 0.31-2.98 0.32-1.13 0.02-2.44 0.58-3.43-0.08-0.42-0.28-0.68-0.9-0.36-1.36z"/>
	<path class="s2" d="m113.36 68.2c1.12-1.48 2.88-1.48 4 0 0.8 1.05 0.64 2.98 0.61 4.27-0.02 0.86-0.46 1.87-1.29 2.25-0.98 0.46-1.66 0.46-2.64 0-0.82-0.38-1.27-1.39-1.29-2.25-0.03-1.29-0.19-3.22 0.61-4.27z"/>
	<path class="s2" d="m67.91 68.2c1.12-1.48 2.88-1.48 4 0 0.8 1.05 0.64 2.98 0.61 4.27-0.02 0.86-0.47 1.87-1.29 2.25-0.98 0.46-1.67 0.46-2.64 0-0.83-0.38-1.27-1.39-1.3-2.25-0.03-1.29-0.18-3.22 0.62-4.27z"/>
	<path class="s8" d="m95.55 56.5c0.09-0.71 0.18-1.43 0.33-2.14 0.11-0.55 1.01-0.43 0.98 0.14-0.04 0.76-0.15 1.53-0.24 2.28-0.08 0.59-0.04 1.25-0.52 1.66-0.16 0.13-0.37 0.11-0.49-0.07-0.38-0.54-0.14-1.26-0.06-1.87z"/>
	<path class="s8" d="m87.21 56.64c0-0.84 0-1.69 0.1-2.52 0.06-0.55 0.78-0.55 0.85 0 0.08 0.73 0.09 1.47 0.1 2.21 0.01 0.7 0.14 1.46-0.2 2.09-0.13 0.24-0.52 0.24-0.65 0-0.3-0.56-0.21-1.16-0.2-1.78z"/>
	<path class="s8" d="m92.8 65.52c0.01-0.69 0.01-1.38 0.1-2.07 0.06-0.56 0.8-0.56 0.87 0 0.08 0.69 0.09 1.38 0.09 2.07 0 0.53 0.15 1.16-0.3 1.52q-0.23 0.18-0.45 0c-0.46-0.36-0.31-0.99-0.31-1.52z"/>
	<path class="s8" d="m104.03 54.19q0.2-1.03 0.47-2.05c0.14-0.49 0.98-0.41 0.91 0.12q-0.12 0.98-0.3 1.96c-0.12 0.6-0.13 1.22-0.53 1.71-0.2 0.25-0.61 0.09-0.69-0.19-0.16-0.52 0.03-1.02 0.14-1.55z"/>
	<path class="s8" d="m100.02 47.89c0.11-0.78 0.29-1.54 0.68-2.23 0.23-0.41 0.76-0.11 0.7 0.29-0.1 0.66-0.26 1.31-0.37 1.96-0.09 0.55 0.01 1.17-0.4 1.57-0.12 0.12-0.33 0.13-0.45 0-0.4-0.45-0.25-1.03-0.16-1.59z"/>
	<path class="s8" d="m98.91 65.48q0.36-0.8 0.87-1.52c0.29-0.4 1-0.17 0.84 0.36q-0.23 0.75-0.59 1.45c-0.17 0.34-0.44 0.9-0.93 0.73-0.45-0.16-0.34-0.69-0.19-1.02z"/>
	<path class="s8" d="m85.24 63.53c0.36 0.65 0.73 1.55 0.77 2.3 0.03 0.48-0.64 0.61-0.88 0.23-0.4-0.63-0.59-1.58-0.67-2.32-0.05-0.43 0.59-0.56 0.78-0.21z"/>
	<path class="s8" d="m91.78 45.33c0.16-0.24 0.56-0.22 0.63 0.08 0.1 0.38 0.07 0.77 0.06 1.15-0.01 0.5 0.02 1 0.03 1.49 0.01 0.72-0.99 0.67-1.08 0-0.11-0.82-0.11-2 0.36-2.72z"/>
	<path class="s8" d="m82.1 45.92c0.06-0.39 0.71-0.39 0.78 0 0.09 0.63 0.18 1.26 0.33 1.88 0.12 0.53 0.36 1.01 0.19 1.56-0.05 0.15-0.2 0.2-0.33 0.13-1.1-0.52-1.12-2.55-0.97-3.57z"/>
	<path class="s8" d="m98.38 41.5c0.08-0.52 0.15-1.07 0.31-1.58 0.15-0.5 0.92-0.41 0.92 0.13-0.01 0.57-0.12 1.16-0.2 1.73-0.05 0.29-0.4 0.44-0.66 0.37-0.3-0.08-0.41-0.36-0.37-0.65z"/>
	<path class="s8" d="m107.11 43c0.36-0.37 0.89 0.1 0.68 0.52-0.36 0.73-0.65 1.44-0.81 2.24-0.13 0.68-1.12 0.38-1.03-0.29 0.13-0.91 0.52-1.8 1.16-2.47z"/>
	<path class="s8" d="m85.01 42.58c0.11-0.69 0.29-1.35 0.45-2.02 0.13-0.52 0.98-0.41 0.94 0.13-0.06 0.58-0.09 1.16-0.17 1.75-0.08 0.58-0.04 1.24-0.58 1.58-0.15 0.09-0.4 0.07-0.51-0.07-0.36-0.44-0.22-0.83-0.13-1.37z"/>
	<path class="s5" d="m81.69 157.75c9.5-4.6 21.84-2.61 31.98-4.92 4.71-1.08 10.64-2.41 13.69-6.58 1.62-2.22 5.15-14.97 3.26-15.7 10.95 4.22 19.4 20.08 20.36 31.14 2.04 23.33-14.94 34.87-35.45 37.89-12.32 1.8-31.81 0.76-41.58 9.57-8.42 7.59-14.65 23.34-17.66 33.85-11.75-4.21-18.45-17.77-18.94-30.24-0.43-10.92 3.94-21.58 10.69-30.23q1.45-1.86 3.04-3.59c8.44-9.2 19.37-15.76 30.61-21.19z"/>
	<path class="s0" d="m105.97 188.05c17.3-5.27 35.24-15.11 44.18-31.24q0.62 2.55 0.83 4.87c2.04 23.34-14.94 34.88-35.45 37.9-12.32 1.8-31.81 0.76-41.58 9.57-8.42 7.59-14.65 23.34-17.66 33.85-11.75-4.21-18.45-17.77-18.94-30.24-0.33-8.18 2.05-16.21 6.09-23.36 20.04 5.59 42.18 4.84 62.53-1.35z"/>
	<path class="s5" d="m51.08 178.94c8.44-9.2 19.37-15.75 30.61-21.19 9.5-4.59 21.84-2.61 31.98-4.92 4.71-1.08 10.64-2.41 13.69-6.58 1.62-2.21 5.14-14.97 3.26-15.7 9.42 3.63 16.98 15.87 19.53 26.26-8.94 16.13-26.89 25.97-44.18 31.24-20.35 6.19-42.5 6.94-62.53 1.35q2.05-3.6 4.6-6.87 1.45-1.86 3.04-3.59z"/>
	<path class="s3" d="m37.35 212.76c-0.43-10.92 3.94-21.58 10.69-30.23q2.7-1.07 5.52-1.76c-4.53 6.74-5.75 15.59-3.2 23.3 3.67-4.37 8.79-7.47 14.36-8.7-4.05 4.55-5.35 11.37-3.27 17.09 4.72-4.59 11.36-7.12 17.93-6.88-10.89 10.08-19.01 23.15-23.09 37.42-11.75-4.21-18.45-17.77-18.94-30.24z"/>
	<path class="s8" d="m99.34 158.99c0.53 0.42 1.24 0.33 1.88 0.35q1.06 0.05 2.11-0.05c0.42-0.04 0.33-0.59-0.02-0.67-0.73-0.17-1.49-0.24-2.24-0.29-0.62-0.05-1.19-0.16-1.74 0.19-0.18 0.1-0.12 0.36 0.01 0.47z"/>
	<path class="s8" d="m88.66 161.44c0.6 0.13 1.06-0.13 1.64-0.29q1.05-0.29 2.13-0.39c0.52-0.05 0.51-0.93-0.02-0.93q-1.16-0.01-2.28 0.24c-0.65 0.15-1.32 0.31-1.68 0.91-0.12 0.2-0.02 0.41 0.21 0.46z"/>
	<path class="s8" d="m78.6 165.29c0.91-0.09 1.77-0.57 2.61-0.91q1.43-0.57 2.83-1.23c0.46-0.22 0.15-0.86-0.32-0.71q-1.47 0.48-2.91 1.05c-0.85 0.34-1.78 0.58-2.5 1.14-0.31 0.24-0.06 0.69 0.29 0.66z"/>
	<path class="s8" d="m70.5 168.91c0.43 0.19 0.75-0.13 1.1-0.36q0.79-0.52 1.55-1.07c0.41-0.28-0.04-1-0.46-0.74q-0.68 0.42-1.34 0.85c-0.39 0.26-1.03 0.49-1.03 1.03q-0.01 0.2 0.18 0.29z"/>
	<path class="s8" d="m94.75 162.82c0.45 0.38 1.13 0.09 1.66 0.02 0.7-0.11 1.41-0.09 2.1-0.19 0.32-0.04 0.37-0.51 0.07-0.62-0.67-0.24-1.39-0.25-2.1-0.23-0.61 0.02-1.57 0.02-1.83 0.67-0.06 0.14 0 0.27 0.1 0.35z"/>
	<path class="s8" d="m86.2 165.97c0.39 0.09 0.84-0.12 1.24-0.18 0.43-0.08 0.87-0.09 1.3-0.12 0.48-0.03 0.4-0.71-0.02-0.79q-0.71-0.11-1.43-0.04c-0.42 0.04-1 0.09-1.31 0.41-0.26 0.26-0.14 0.65 0.22 0.72z"/>
	<path class="s8" d="m75.05 169.89c0.46 0.03 0.79-0.24 1.2-0.44q0.85-0.4 1.76-0.63c0.48-0.12 0.38-0.84-0.12-0.77q-0.94 0.14-1.82 0.48c-0.5 0.2-1.07 0.4-1.3 0.91-0.08 0.19 0.07 0.43 0.28 0.45z"/>
	<path class="s8" d="m92.76 165.83c0.23-0.1 0.41-0.22 0.66-0.28 0.29-0.07 0.55 0.01 0.82-0.14 0.16-0.08 0.27-0.29 0.18-0.46-0.25-0.46-0.69-0.5-1.17-0.47-0.42 0.02-0.87 0.24-1.13 0.57-0.34 0.42 0.18 0.98 0.64 0.78z"/>
	<path class="s8" d="m81.9 169.63c0.35-0.03 0.67-0.23 0.98-0.38q0.49-0.23 0.97-0.49c0.48-0.27 0.17-0.96-0.35-0.78q-0.51 0.19-1.01 0.41c-0.32 0.13-0.68 0.24-0.93 0.48-0.32 0.3-0.09 0.8 0.34 0.76z"/>
</svg>