<svg version="1.2" xmlns="http://www.w3.org/2000/svg" viewBox="0 0 274 254" width="274" height="254">
	<style>
		.s0 { fill: #f18628 } 
		.s1 { fill: #cf560a } 
		.s2 { fill: #e6710b } 
		.s3 { fill: #e6d3a3 } 
		.s4 { fill: #f1b480 } 
		.s5 { fill: #803f21 } 
		.s6 { fill: #ccbb91 } 
		.s7 { fill: #982626 } 
		.s8 { fill: #ab2b2b } 
	</style>
	<path class="s0" d="m104.3 101.41c2.36 11.62-3.24 24.49-3.54 36.18-0.14 5.43-0.34 12.25 3.35 16.73 1.96 2.37 14.87 9.76 16.18 7.9-7.63 10.76-27.24 15.54-39.54 13.51-25.96-4.26-33.81-25.95-31.38-49.12 1.45-13.9 8.01-34.83 1.14-47.91-5.92-11.28-21.34-22.44-31.94-28.63 7.86-11.62 24.48-15.13 38.18-12.21 12 2.57 22.39 10.29 29.93 20.04q1.62 2.1 3.07 4.31c7.66 11.74 11.75 25.46 14.55 39.2z"/>
	<path class="s1" d="m64.57 119.41c0.92 20.29 6.65 42.56 21.72 56.77q-2.95-0.02-5.54-0.45c-25.96-4.26-33.81-25.95-31.38-49.12 1.45-13.9 8.01-34.83 1.14-47.91-5.92-11.28-21.33-22.44-31.93-28.63 7.85-11.62 24.47-15.14 38.18-12.21 8.98 1.92 17.07 6.74 23.73 13.13-11.66 20.25-17 44.56-15.92 68.42z"/>
	<path class="s2" d="m89.75 62.21c7.66 11.74 11.75 25.46 14.55 39.2 2.36 11.62-3.24 24.49-3.54 36.18-0.14 5.43-0.34 12.25 3.35 16.73 1.96 2.37 14.87 9.76 16.18 7.91-6.57 9.25-21.99 14.07-34.01 13.95-15.06-14.21-20.79-36.48-21.71-56.76-1.08-23.87 4.26-48.18 15.91-68.43q3.36 3.23 6.2 6.92 1.63 2.09 3.07 4.3z"/>
	<path class="s3" d="m56.75 37.86c12 2.57 22.39 10.29 29.93 20.04q0.42 3.23 0.38 6.49c-6.07-6.8-15.37-10.58-24.47-9.95 3.73 5.2 5.69 11.65 5.48 18.05-3.82-5.68-10.89-8.99-17.69-8.31 3.68 6.41 4.59 14.34 2.5 21.42-7.94-14.65-19.91-27.12-34.31-35.53 7.86-11.62 24.48-15.14 38.18-12.21z"/>
	<path class="s4" d="m98.04 120.28c-0.6 0.45-0.7 1.26-0.91 1.95-0.22 0.75-0.42 1.53-0.53 2.31-0.07 0.46 0.55 0.52 0.74 0.17 0.38-0.76 0.67-1.56 0.94-2.36 0.22-0.67 0.5-1.26 0.28-1.96-0.07-0.21-0.37-0.22-0.52-0.11z"/>
	<path class="s4" d="m98.34 107.97c-0.31 0.62-0.16 1.2-0.14 1.87q0.03 1.22-0.17 2.42c-0.09 0.59 0.88 0.82 1.02 0.24q0.33-1.25 0.37-2.54c0.02-0.75 0.04-1.53-0.52-2.09-0.19-0.19-0.44-0.13-0.56 0.1z"/>
	<path class="s4" d="m96.95 95.96c-0.16 1.01 0.13 2.08 0.26 3.08q0.23 1.73 0.56 3.43c0.11 0.57 0.89 0.4 0.86-0.15q-0.12-1.74-0.34-3.46c-0.13-1.02-0.13-2.1-0.55-3.04-0.17-0.4-0.73-0.25-0.79 0.14z"/>
	<path class="s4" d="m95.25 86.14c-0.32 0.41-0.06 0.85 0.1 1.3q0.35 0.99 0.72 1.98c0.2 0.52 1.11 0.23 0.94-0.3q-0.26-0.85-0.55-1.7c-0.17-0.49-0.25-1.25-0.83-1.4q-0.23-0.07-0.38 0.12z"/>
	<path class="s4" d="m95.14 114.22c-0.53 0.38-0.41 1.2-0.47 1.79-0.09 0.79-0.3 1.56-0.39 2.35-0.04 0.36 0.46 0.54 0.66 0.24 0.45-0.67 0.66-1.44 0.83-2.21 0.15-0.67 0.42-1.72-0.22-2.19-0.13-0.09-0.29-0.07-0.41 0.02z"/>
	<path class="s4" d="m94.09 104.03c-0.2 0.41-0.1 0.96-0.14 1.41-0.04 0.49-0.14 0.97-0.24 1.45-0.1 0.53 0.67 0.63 0.87 0.2 0.22-0.5 0.35-1.02 0.44-1.55 0.07-0.48 0.18-1.12-0.08-1.54-0.21-0.36-0.67-0.34-0.85 0.03z"/>
	<path class="s4" d="m92.93 90.81c-0.16 0.49 0.04 0.93 0.14 1.42q0.2 1.04 0.2 2.1c0 0.55 0.81 0.65 0.87 0.08q0.11-1.05-0.02-2.11c-0.07-0.59-0.13-1.28-0.63-1.66-0.18-0.15-0.49-0.05-0.56 0.17z"/>
	<path class="s4" d="m92.42 111.22c0.05 0.27 0.13 0.51 0.13 0.79-0.01 0.34-0.17 0.59-0.08 0.94 0.04 0.19 0.23 0.37 0.45 0.32 0.58-0.15 0.73-0.61 0.84-1.14 0.1-0.47-0.03-1.02-0.31-1.4-0.36-0.48-1.12-0.07-1.03 0.49z"/>
	<path class="s4" d="m91.31 98.34c-0.06 0.38 0.06 0.79 0.14 1.17 0.09 0.4 0.15 0.8 0.26 1.2 0.16 0.6 1 0.45 0.95-0.17q-0.07-0.61-0.17-1.21c-0.05-0.39-0.07-0.81-0.26-1.15-0.23-0.43-0.85-0.32-0.92 0.16z"/>
	<path class="s2" d="m137.92 201.37c13.08-0.09 26.16-3.02 37.97-8.61 17.84-8.42 32.1-33.03 23.37-52.83-5.83-13.21-19.07-13.8-33.97-10.75-14.6 2.98-27.45 9.33-41.35 14.13-11.81 4.07-20.16 12.06-22.77 25.08-3.94 19.69 5.2 29.35 23.16 32.02q6.76 1 13.59 0.96z"/>
	<path class="s5" d="m129.86 211.2c-0.32-7.87-1.22-15.71-2.27-23.51-0.13-0.93-0.29-2.32-0.52-4q-0.18 0.11-0.38 0.18c-4.55 1.93-7.41-3.52-8.42-8.09-1.73 2.72-1.66 8.89-5.97 5.88q1.01 6.76 2.03 13.51 1.95 12.79 3.92 25.57c0 0 4.6 15.81 9.93 7.15 2.75-4.47 1.88-11.74 1.68-16.69z"/>
	<path class="s1" d="m201.7 149.19c1.88 17.63-10.68 36.42-25.81 43.57-11.82 5.59-24.89 8.52-37.97 8.61q-6.83 0.04-13.59-0.96c-17.96-2.67-27.1-12.33-23.16-32.01 0.99-4.95 2.81-9.16 5.34-12.72 6.77 3.41 14.07 5.93 21.98 7.33 25.8 4.88 51.59 0.09 73.21-13.82z"/>
	<path class="s2" d="m160.71 176.95c0.92 4.59 3.67 10.09 8.26 8.26q0.2-0.08 0.38-0.17c-1.05-9.14-3.87-26.54-13.45-21.01-4.49 2.6-2.37 10.19-1.83 14.39q0.27 2.15 0.55 4.29c4.25 3.09 4.3-3.08 6.09-5.76z"/>
	<path class="s5" d="m171.59 212.59c-0.16-7.87-0.91-15.73-1.8-23.55-0.11-0.93-0.24-2.33-0.44-4q-0.18 0.09-0.38 0.17c-4.59 1.83-7.34-3.67-8.26-8.26-1.79 2.68-1.84 8.85-6.09 5.76q0.88 6.78 1.77 13.55 1.68 12.82 3.4 25.64c0 0 4.29 15.9 9.79 7.34 2.84-4.41 2.12-11.7 2.01-16.65z"/>
	<path class="s2" d="m187.3 175.68c0.3 4.67 2.29 10.49 7.08 9.28q0.21-0.04 0.41-0.11c0.17-9.2-0.3-26.81-10.53-22.61-4.8 1.97-3.71 9.78-3.74 14.02q-0.01 2.16-0.02 4.32c3.8 3.63 4.67-2.48 6.8-4.9z"/>
	<path class="s5" d="m193.33 212.46c0.89-7.83 1.2-15.72 1.35-23.59 0.02-0.93 0.08-2.34 0.11-4.02q-0.2 0.07-0.41 0.11c-4.79 1.21-6.78-4.61-7.08-9.28-2.13 2.42-3 8.53-6.8 4.89q-0.04 6.84-0.06 13.67-0.04 12.93-0.04 25.87c0 0 2.12 16.33 8.71 8.58 3.4-4 3.66-11.31 4.22-16.23z"/>
	<path class="s2" d="m123.94 143.31c13.89-4.8 26.75-11.15 41.35-14.13 14.9-3.05 28.14-2.46 33.97 10.75 1.32 3 2.11 6.11 2.44 9.26-21.62 13.91-47.41 18.7-73.21 13.82-7.92-1.41-15.21-3.92-21.99-7.33 4.12-5.81 10.12-9.84 17.43-12.37z"/>
	<path class="s3" d="m172.7 138.05c-4.37 4.25-8.41 9.32-11.6 13.69 14.32 0.73 28.47-2.63 41.74-8.19q-0.61-2.64-1.76-5.09c-9.29 1.84-19.11 1.53-28.38-0.41z"/>
	<path class="s6" d="m201.08 138.46q-0.7-1.48-1.61-2.86c-7.52-11.4-17.85-6.2-26.77 2.45 9.27 1.94 19.09 2.25 28.38 0.41z"/>
	<path class="s6" d="m161.1 151.74c-1.91 2.61-3.53 4.96-4.73 6.73q7.02-3.01 14.04-6.02c-4.82 8.16-7.4 17.62-7.4 27.1 13.02-2.4 25.19-9.24 33.99-19.13q0.2 3.08 0.4 6.16c5.39-6.19 7.28-15.07 5.44-23.03-13.27 5.56-27.42 8.92-41.74 8.19z"/>
	<path class="s2" d="m203.49 90.74q1.36 1.28 2.84 2.39c3.23 2.43 6.86 4.29 10.73 5.45q2.3 0.7 4.69 1.06c9.3-9.28 12.06-24.5 6.61-36.45-13.37 2.87-23.7 13.93-24.87 27.55z"/>
	<path class="s5" d="m206.33 93.13c3.23 2.43 6.86 4.29 10.73 5.45q0.37-0.27 0.69-0.65c5.25-6 7.23-15.01 5.02-22.85-7.8 3.12-13.76 9.74-16.44 18.05z"/>
	<path class="s2" d="m162.91 90.74q-1.36 1.28-2.84 2.39c-3.23 2.43-6.87 4.29-10.73 5.45q-2.3 0.7-4.69 1.06c-9.3-9.28-12.07-24.5-6.61-36.45 13.37 2.87 23.7 13.93 24.87 27.55z"/>
	<path class="s5" d="m160.07 93.13c-3.23 2.43-6.87 4.29-10.73 5.45q-0.37-0.27-0.69-0.65c-5.25-6-7.23-15.01-5.02-22.85 7.8 3.12 13.75 9.74 16.44 18.05z"/>
	<path class="s0" d="m126.85 126.51c35.15 17.99 78.78 18.33 114.2 0.89-7.31-25.33-29.78-48.72-56.13-48.61-26.37 0.11-50.97 22.34-58.07 47.72z"/>
	<path class="s3" d="m126.85 126.51c35.15 17.99 78.78 18.33 114.2 0.89 0 0-39.52-50.31-54.63 7.87l-6-0.83c0 0-7.86-63.84-53.57-7.93z"/>
	<path class="s7" d="m175.5 135.09c1.28-1.99 6.7-1.58 8.44-1.49 1.63 0.08 6.1 0.24 7.15 1.69 2.48 3.47-4.69 7.3-7.22 7.25-1.95-0.04-3.84-0.9-5.34-2.12-0.98-0.81-3.55-3.29-3.28-4.72q0.07-0.34 0.25-0.61z"/>
	<path class="s8" d="m179.91 135.9c0.66-0.95 1.66-0.91 2.74-0.99 1.14-0.08 2.6-0.17 3.56 0.56 0.43 0.33 0.66 1.19 0 1.47-0.91 0.39-1.8 0.29-2.78 0.31-1.05 0.01-2.26 0.53-3.19-0.08-0.39-0.27-0.63-0.84-0.33-1.27z"/>
	<path class="s5" d="m203.38 117.44c1.04-1.37 2.68-1.37 3.72 0 0.74 0.98 0.6 2.78 0.57 3.98-0.02 0.8-0.43 1.74-1.2 2.1-0.91 0.42-1.55 0.42-2.46 0-0.77-0.36-1.18-1.3-1.2-2.1-0.03-1.2-0.18-3 0.57-3.98z"/>
	<path class="s5" d="m161.05 117.44c1.04-1.37 2.68-1.37 3.72 0 0.74 0.98 0.6 2.78 0.57 3.98-0.02 0.8-0.43 1.74-1.2 2.1-0.91 0.42-1.55 0.42-2.46 0-0.77-0.36-1.18-1.3-1.2-2.1-0.03-1.2-0.18-3 0.57-3.98z"/>
	<path class="s4" d="m186.79 106.55c0.09-0.67 0.17-1.34 0.31-1.99 0.1-0.52 0.94-0.4 0.91 0.12-0.03 0.71-0.13 1.43-0.22 2.13-0.07 0.54-0.04 1.17-0.49 1.54-0.15 0.13-0.34 0.1-0.45-0.06-0.36-0.5-0.14-1.17-0.06-1.74z"/>
	<path class="s4" d="m179.02 106.68c0-0.78 0-1.57 0.1-2.35 0.06-0.51 0.72-0.51 0.78 0 0.08 0.68 0.09 1.37 0.1 2.06 0.01 0.65 0.13 1.36-0.19 1.94-0.12 0.23-0.48 0.23-0.6 0-0.28-0.52-0.19-1.07-0.19-1.65z"/>
	<path class="s4" d="m184.23 114.95q-0.01-0.97 0.09-1.93c0.06-0.52 0.75-0.52 0.81 0q0.1 0.96 0.09 1.93c0 0.49 0.14 1.07-0.28 1.41q-0.21 0.17-0.43 0c-0.42-0.34-0.28-0.92-0.28-1.41z"/>
	<path class="s4" d="m194.68 104.4q0.19-0.97 0.45-1.92c0.12-0.45 0.9-0.38 0.85 0.12q-0.12 0.92-0.29 1.82c-0.11 0.57-0.12 1.14-0.49 1.59-0.19 0.24-0.57 0.09-0.65-0.17-0.14-0.48 0.03-0.95 0.13-1.44z"/>
	<path class="s4" d="m190.95 98.53c0.11-0.72 0.28-1.44 0.64-2.08 0.21-0.37 0.7-0.1 0.65 0.28-0.09 0.61-0.24 1.21-0.35 1.82-0.08 0.51 0.02 1.09-0.37 1.47-0.11 0.1-0.31 0.12-0.42 0-0.37-0.43-0.23-0.97-0.15-1.49z"/>
	<path class="s4" d="m189.92 114.91q0.33-0.75 0.81-1.41c0.27-0.37 0.93-0.17 0.78 0.33q-0.21 0.7-0.55 1.35c-0.16 0.32-0.41 0.84-0.86 0.68-0.42-0.14-0.32-0.64-0.18-0.95z"/>
	<path class="s4" d="m177.19 113.09c0.34 0.61 0.68 1.44 0.71 2.14 0.03 0.46-0.59 0.58-0.81 0.23-0.37-0.6-0.55-1.48-0.63-2.17-0.04-0.4 0.55-0.52 0.73-0.2z"/>
	<path class="s4" d="m183.28 96.15c0.15-0.23 0.52-0.21 0.59 0.07 0.09 0.36 0.06 0.71 0.05 1.07-0.01 0.47 0.02 0.93 0.03 1.39 0.01 0.67-0.92 0.62-1 0-0.1-0.76-0.11-1.87 0.33-2.53z"/>
	<path class="s4" d="m174.26 96.7c0.06-0.37 0.67-0.36 0.73 0 0.09 0.58 0.17 1.17 0.3 1.74 0.12 0.5 0.35 0.94 0.19 1.46-0.05 0.13-0.19 0.18-0.32 0.12-1.02-0.48-1.04-2.38-0.9-3.32z"/>
	<path class="s4" d="m189.43 92.58c0.07-0.49 0.14-1 0.28-1.47 0.15-0.46 0.86-0.38 0.86 0.12-0.01 0.53-0.11 1.08-0.19 1.61-0.04 0.27-0.37 0.41-0.61 0.35-0.28-0.08-0.38-0.34-0.34-0.61z"/>
	<path class="s4" d="m197.56 93.97c0.33-0.34 0.82 0.1 0.63 0.49-0.34 0.68-0.61 1.34-0.76 2.08-0.12 0.64-1.04 0.36-0.95-0.26 0.12-0.85 0.47-1.68 1.08-2.31z"/>
	<path class="s4" d="m176.98 93.59c0.1-0.64 0.27-1.26 0.42-1.89 0.11-0.48 0.91-0.38 0.87 0.12q-0.06 0.82-0.16 1.63c-0.08 0.54-0.04 1.16-0.54 1.47-0.14 0.09-0.37 0.07-0.47-0.06-0.34-0.41-0.21-0.77-0.12-1.27z"/>
	<path class="s5" d="m107.45 214.34c2.51-7.46 4.48-15.11 6.28-22.77 0.22-0.91 0.57-2.27 0.95-3.92q-0.2 0.04-0.42 0.03c-4.94 0.18-5.66-5.93-4.97-10.56-2.59 1.92-4.73 7.7-7.68 3.35q-1.47 6.68-2.93 13.35-2.76 12.64-5.48 25.28c0 0-1.36 16.41 6.72 10.22 4.16-3.19 5.96-10.28 7.53-14.98z"/>
</svg>