<svg version="1.2" xmlns="http://www.w3.org/2000/svg" viewBox="0 0 185 254" width="185" height="254">
	<style>
		.s0 { fill: #f18628 } 
		.s1 { fill: #cf560a } 
		.s2 { fill: #e6710b } 
		.s3 { fill: #e6d3a3 } 
		.s4 { fill: #f1b480 } 
		.s5 { fill: #803f21 } 
		.s6 { fill: #ccbb91 } 
		.s7 { fill: #982626 } 
		.s8 { fill: #ab2b2b } 
	</style>
	<path class="s0" d="m80.09 139.7c2.91 9.39-0.65 20.47 0.06 30.13 0.34 4.49 0.73 10.14 4.15 13.53 1.81 1.8 13.06 6.82 13.99 5.19-5.41 9.5-21.19 15.05-31.5 14.4-21.77-1.39-30.03-18.63-29.93-37.94 0.05-11.59 3.74-29.4-3-39.62-5.82-8.82-19.45-16.75-28.71-20.99 5.53-10.23 18.95-14.5 30.5-13.21 10.11 1.13 19.31 6.64 26.33 14.07q1.51 1.59 2.89 3.3c7.28 9.05 11.79 20.03 15.22 31.14z"/>
	<path class="s1" d="m48.81 157.82c2.42 16.66 8.98 34.56 22.58 45.04q-2.43 0.22-4.6 0.09c-21.77-1.39-30.03-18.63-29.93-37.94 0.05-11.59 3.74-29.4-3-39.62-5.82-8.82-19.45-16.75-28.7-20.99 5.52-10.23 18.94-14.5 30.49-13.21 7.57 0.84 14.63 4.15 20.65 8.87-7.94 17.67-10.35 38.16-7.49 57.76z"/>
	<path class="s2" d="m64.86 108.56c7.29 9.05 11.8 20.03 15.23 31.14 2.91 9.39-0.65 20.47 0.07 30.13 0.33 4.49 0.72 10.14 4.14 13.52 1.81 1.81 13.06 6.83 13.99 5.2-4.65 8.17-16.98 13.42-26.9 14.31-13.6-10.48-20.16-28.38-22.59-45.04-2.85-19.6-0.45-40.09 7.5-57.75q3.03 2.38 5.68 5.19 1.51 1.59 2.88 3.3z"/>
	<path class="s3" d="m35.64 91.19c10.11 1.13 19.32 6.64 26.34 14.07q0.61 2.63 0.85 5.32c-5.57-5.11-13.55-7.46-21.01-6.2 3.51 3.99 5.65 9.14 6.01 14.44-3.62-4.37-9.72-6.52-15.28-5.4 3.57 4.99 4.97 11.46 3.82 17.47-7.75-11.43-18.65-20.74-31.22-26.49 5.53-10.23 18.95-14.5 30.49-13.21z"/>
	<path class="s4" d="m76.49 155.78c-0.46 0.42-0.48 1.09-0.59 1.68q-0.2 0.97-0.25 1.95c-0.02 0.39 0.5 0.39 0.62 0.08 0.25-0.66 0.42-1.34 0.58-2.03 0.13-0.57 0.31-1.08 0.07-1.63-0.07-0.18-0.32-0.16-0.43-0.05z"/>
	<path class="s4" d="m75.72 145.6c-0.21 0.53-0.03 1 0.04 1.55q0.12 1.01 0.06 2.01c-0.03 0.5 0.79 0.6 0.86 0.11q0.17-1.05 0.1-2.12c-0.05-0.62-0.1-1.27-0.61-1.68-0.17-0.14-0.37-0.07-0.45 0.13z"/>
	<path class="s4" d="m73.58 135.8c-0.05 0.85 0.28 1.71 0.47 2.53q0.33 1.4 0.75 2.78c0.13 0.45 0.77 0.25 0.69-0.19q-0.24-1.43-0.56-2.84c-0.19-0.82-0.28-1.72-0.7-2.46-0.18-0.31-0.63-0.14-0.65 0.18z"/>
	<path class="s4" d="m71.38 127.84c-0.23 0.37 0.02 0.71 0.18 1.06q0.37 0.8 0.76 1.58c0.21 0.41 0.94 0.1 0.75-0.32q-0.28-0.68-0.59-1.36c-0.18-0.39-0.31-1.01-0.8-1.09q-0.19-0.03-0.3 0.13z"/>
	<path class="s4" d="m73.6 151.02c-0.41 0.35-0.25 1.02-0.25 1.52 0 0.65-0.12 1.31-0.12 1.96-0.01 0.3 0.42 0.41 0.56 0.15 0.32-0.59 0.43-1.25 0.51-1.9 0.06-0.56 0.2-1.45-0.37-1.78-0.11-0.07-0.24-0.03-0.33 0.05z"/>
	<path class="s4" d="m71.89 142.7c-0.13 0.35-0.01 0.8 0 1.17 0.01 0.41-0.04 0.81-0.08 1.22-0.04 0.44 0.61 0.46 0.73 0.09q0.21-0.64 0.24-1.31c0.02-0.4 0.06-0.94-0.19-1.27-0.21-0.27-0.58-0.22-0.7 0.1z"/>
	<path class="s4" d="m69.84 131.89c-0.09 0.42 0.11 0.76 0.24 1.16q0.25 0.84 0.34 1.71c0.04 0.46 0.72 0.47 0.72 0q0-0.88-0.19-1.74c-0.11-0.48-0.22-1.04-0.66-1.32-0.16-0.11-0.4 0-0.45 0.19z"/>
	<path class="s4" d="m71.11 148.76c0.06 0.22 0.15 0.42 0.16 0.65 0.03 0.27-0.08 0.5 0.01 0.77 0.06 0.16 0.23 0.29 0.41 0.23 0.46-0.17 0.55-0.56 0.59-1.01 0.04-0.39-0.1-0.83-0.36-1.12-0.34-0.37-0.93 0.03-0.81 0.48z"/>
	<path class="s4" d="m69.13 138.23c-0.02 0.33 0.11 0.65 0.21 0.96q0.15 0.48 0.31 0.96c0.19 0.48 0.86 0.29 0.77-0.21q-0.11-0.5-0.24-0.99c-0.07-0.31-0.12-0.66-0.31-0.93-0.23-0.33-0.72-0.19-0.74 0.21z"/>
	<path class="s2" d="m153.13 193.71c8.17-9.76 7.83-25.22 5.11-38.36-2.67-12.98-6.48-26.06-12.4-37.61-5.75-11.21-12.32-18.01-23.63-20.22-14.17-2.76-22.22 7.77-28.23 21.75-5.88 13.69-8.01 27.86-12.01 42.02-3.39 12.01-1.6 23.44 7.6 33.01 14.37 14.96 49.76 15.87 63.56-0.59z"/>
	<path class="s5" d="m154.71 209.79c-7.77-1.28-15.45-3.15-23.06-5.14-0.9-0.24-2.27-0.57-3.9-1q0.13-0.17 0.23-0.36c2.47-4.28-2.59-7.79-7-9.35 2.91-1.39 9.02-0.56 6.57-5.21q6.58 1.83 13.16 3.68 12.45 3.5 24.89 7.03c0 0 15.13 6.51 5.87 10.73-4.77 2.18-11.88 0.43-16.76-0.38z"/>
	<path class="s5" d="m83.87 210.71c7.77-1.29 15.44-3.15 23.05-5.15 0.91-0.23 2.27-0.57 3.9-1q-0.12-0.17-0.22-0.36c-2.47-4.27 2.59-7.78 6.99-9.35-2.91-1.38-9.02-0.55-6.56-5.2q-6.59 1.83-13.16 3.68-12.46 3.5-24.9 7.03c0 0-15.13 6.51-5.87 10.73 4.78 2.18 11.88 0.43 16.77-0.38z"/>
	<path class="s1" d="m157.16 150.39q0.57 2.48 1.08 4.96c1.79 8.65 6.07 16.19 5.78 25.4-0.22 7.26-3.13 14.74-8.98 19.07-4.92 3.64-11.11 4.55-17.08 4.75-15.84 0.51-38.13 5.93-51.98-4.83-5.1-3.97-7.4-10.71-7.5-17.17-0.13-9.57 3.21-19.7 5.5-28.93 9.73 4.7 20.28 7.9 31.33 9.48 15.24 2.44 30.93-2.51 41.85-12.73z"/>
	<path class="s2" d="m122.21 97.52c11.31 2.2 17.88 9.01 23.63 20.22 5.16 10.08 8.72 21.32 11.32 32.65-10.92 10.22-26.61 15.16-41.85 12.73-11.05-1.58-21.61-4.78-31.33-9.48 2.87-11.6 5.18-23.15 10-34.37 6.01-13.97 14.06-24.51 28.23-21.75z"/>
	<path class="s3" d="m106.47 120.95c13.22 2.75 26.62 2.73 38.89-2.6 4.17 8.13 2.56 17.86-1.14 27.7q-2.95-4.93-5.89-9.85c-2.29 12.18-9.23 23.42-19.09 30.91q-3.51-14.03-7.02-28.07-3.64 3.46-7.28 6.93c0.09-0.08-0.74-6.81-1.19-11.98-0.23-2.66-0.36-4.91-0.21-5.65 0.62-3.2 1.59-5.33 2.93-7.39z"/>
	<path class="s6" d="m106.47 120.95c0.93-1.42 2.04-2.8 3.34-4.48 8.05-10.33 17.17-15.09 28.77-6.09 3.1 2.41 5.3 5.09 6.78 7.97-12.27 5.33-25.67 5.35-38.89 2.6z"/>
	<path class="s2" d="m140.83 63.47q1.36 1.27 2.85 2.38c3.22 2.44 6.86 4.3 10.73 5.45q2.29 0.7 4.68 1.06c9.31-9.28 12.07-24.49 6.62-36.44-13.38 2.86-23.7 13.92-24.88 27.55z"/>
	<path class="s5" d="m143.68 65.85c3.22 2.44 6.86 4.3 10.73 5.45q0.36-0.27 0.68-0.64c5.25-6 7.24-15.02 5.02-22.85-7.8 3.12-13.75 9.74-16.43 18.04z"/>
	<path class="s2" d="m100.25 63.47q-1.35 1.27-2.84 2.38c-3.23 2.44-6.86 4.3-10.73 5.45q-2.3 0.7-4.69 1.06c-9.3-9.28-12.06-24.49-6.61-36.44 13.37 2.86 23.7 13.92 24.87 27.55z"/>
	<path class="s5" d="m97.41 65.85c-3.23 2.44-6.86 4.3-10.73 5.45q-0.36-0.27-0.69-0.64c-5.25-6-7.23-15.02-5.02-22.85 7.81 3.12 13.76 9.74 16.44 18.04z"/>
	<path class="s0" d="m64.2 99.24c35.14 17.98 78.78 18.32 114.2 0.89-7.31-25.33-29.78-48.73-56.14-48.61-26.36 0.11-50.97 22.33-58.06 47.72z"/>
	<path class="s3" d="m64.2 99.24c35.14 17.98 78.78 18.32 114.2 0.89 0 0-30.35-50.31-45.46 7.87l-6-0.83c-0.01 0-17.04-63.84-62.74-7.93z"/>
	<path class="s7" d="m122.01 107.82c1.29-1.99 6.71-1.59 8.45-1.5 1.63 0.09 6.1 0.24 7.15 1.7 2.48 3.47-4.69 7.3-7.22 7.25-1.95-0.04-3.84-0.9-5.34-2.13-0.98-0.8-3.55-3.28-3.28-4.72q0.07-0.33 0.24-0.6z"/>
	<path class="s8" d="m126.43 108.62c0.66-0.95 1.66-0.9 2.74-0.98 1.14-0.09 2.6-0.18 3.56 0.55 0.43 0.34 0.66 1.19 0 1.48-0.91 0.38-1.8 0.28-2.78 0.3-1.05 0.02-2.26 0.54-3.19-0.08-0.39-0.26-0.63-0.83-0.33-1.27z"/>
	<path class="s5" d="m145.31 90.17c1.04-1.38 2.68-1.38 3.73 0 0.74 0.97 0.59 2.78 0.56 3.97-0.01 0.8-0.43 1.75-1.2 2.11-0.91 0.42-1.55 0.42-2.46 0-0.77-0.36-1.18-1.31-1.2-2.11-0.03-1.19-0.17-3 0.57-3.97z"/>
	<path class="s5" d="m102.98 90.17c1.04-1.38 2.68-1.38 3.73 0 0.74 0.97 0.59 2.78 0.56 3.97-0.01 0.8-0.43 1.75-1.2 2.11-0.91 0.42-1.55 0.42-2.46 0-0.77-0.36-1.18-1.31-1.2-2.11-0.03-1.19-0.17-3 0.57-3.97z"/>
	<path class="s4" d="m124.13 79.27q0.12-1 0.31-1.99c0.11-0.51 0.95-0.4 0.92 0.13-0.04 0.71-0.14 1.42-0.23 2.13-0.07 0.54-0.04 1.16-0.48 1.54-0.15 0.13-0.34 0.1-0.46-0.06-0.35-0.51-0.13-1.17-0.06-1.75z"/>
	<path class="s4" d="m116.36 79.41c0.01-0.79 0.01-1.58 0.1-2.35 0.06-0.51 0.73-0.51 0.79 0 0.08 0.68 0.09 1.37 0.1 2.05 0 0.65 0.12 1.36-0.19 1.95-0.13 0.22-0.48 0.22-0.61 0-0.28-0.52-0.19-1.07-0.19-1.65z"/>
	<path class="s4" d="m121.58 87.67q-0.01-0.96 0.08-1.92c0.07-0.53 0.76-0.53 0.82 0q0.1 0.96 0.08 1.92c0 0.49 0.15 1.08-0.28 1.42q-0.21 0.16-0.42 0c-0.42-0.34-0.28-0.93-0.28-1.42z"/>
	<path class="s4" d="m132.03 77.13q0.19-0.97 0.44-1.92c0.13-0.46 0.91-0.38 0.85 0.11q-0.11 0.92-0.28 1.83c-0.11 0.56-0.13 1.14-0.49 1.59-0.2 0.24-0.57 0.08-0.65-0.17-0.15-0.48 0.03-0.96 0.13-1.44z"/>
	<path class="s4" d="m128.29 71.25c0.11-0.72 0.28-1.43 0.64-2.07 0.22-0.38 0.71-0.1 0.65 0.27-0.09 0.61-0.24 1.22-0.34 1.83-0.09 0.5 0.01 1.08-0.38 1.46-0.11 0.11-0.31 0.12-0.41 0-0.37-0.42-0.23-0.96-0.16-1.49z"/>
	<path class="s4" d="m127.26 87.63q0.34-0.74 0.81-1.4c0.27-0.38 0.93-0.17 0.79 0.33q-0.22 0.69-0.55 1.34c-0.16 0.32-0.41 0.85-0.87 0.69-0.42-0.15-0.32-0.65-0.18-0.96z"/>
	<path class="s4" d="m114.53 85.82c0.34 0.61 0.68 1.44 0.72 2.14 0.02 0.45-0.6 0.57-0.82 0.22-0.37-0.59-0.55-1.48-0.62-2.17-0.05-0.39 0.55-0.52 0.72-0.19z"/>
	<path class="s4" d="m120.63 68.87c0.15-0.22 0.51-0.2 0.59 0.08 0.09 0.35 0.06 0.71 0.05 1.07-0.02 0.46 0.02 0.93 0.02 1.39 0.01 0.66-0.92 0.62-1 0-0.1-0.76-0.11-1.87 0.34-2.54z"/>
	<path class="s4" d="m111.61 69.42c0.05-0.36 0.67-0.36 0.72 0 0.1 0.59 0.17 1.17 0.31 1.75 0.12 0.5 0.34 0.94 0.18 1.45-0.04 0.14-0.19 0.19-0.31 0.13-1.02-0.49-1.04-2.38-0.9-3.33z"/>
	<path class="s4" d="m126.77 65.31c0.08-0.49 0.14-1 0.29-1.47 0.14-0.47 0.85-0.39 0.85 0.11 0 0.54-0.1 1.09-0.18 1.62-0.04 0.27-0.37 0.41-0.61 0.34-0.28-0.07-0.39-0.34-0.35-0.6z"/>
	<path class="s4" d="m134.9 66.7c0.33-0.34 0.83 0.09 0.63 0.49-0.33 0.68-0.6 1.34-0.75 2.08-0.12 0.64-1.04 0.35-0.96-0.26 0.12-0.86 0.48-1.69 1.08-2.31z"/>
	<path class="s4" d="m114.32 66.31c0.11-0.64 0.27-1.25 0.42-1.88 0.12-0.48 0.92-0.39 0.87 0.12q-0.06 0.81-0.16 1.63c-0.07 0.54-0.03 1.16-0.54 1.47-0.13 0.09-0.36 0.07-0.47-0.06-0.34-0.42-0.2-0.78-0.12-1.28z"/>
	<path class="s2" d="m147.48 161.42c-0.91 4.59-3.67 10.09-8.25 8.26q-0.21-0.08-0.39-0.17c1.06-9.14 3.87-26.54 13.46-21.01 4.49 2.6 2.36 10.19 1.83 14.4q-0.28 2.14-0.56 4.28c-4.25 3.09-4.3-3.08-6.09-5.76z"/>
	<path class="s5" d="m136.6 197.06c0.17-7.87 0.91-15.73 1.81-23.55 0.1-0.93 0.24-2.33 0.43-4q0.18 0.09 0.39 0.17c4.58 1.83 7.34-3.67 8.25-8.26 1.79 2.68 1.84 8.85 6.09 5.76q-0.87 6.77-1.76 13.55-1.69 12.82-3.41 25.64c0 0-4.28 15.9-9.78 7.34-2.84-4.41-2.12-11.7-2.02-16.65z"/>
	<path class="s2" d="m104.31 162.87c0.03 4.68-1.54 10.63-6.41 9.77q-0.21-0.03-0.41-0.09c-0.83-9.16-1.61-26.77 8.9-23.3 4.92 1.62 4.39 9.49 4.72 13.72q0.16 2.15 0.32 4.3c-3.53 3.9-4.83-2.13-7.12-4.4z"/>
	<path class="s5" d="m100.9 199.99c-1.44-7.75-2.31-15.6-3.02-23.43-0.09-0.93-0.24-2.33-0.39-4.01q0.2 0.06 0.41 0.09c4.87 0.86 6.44-5.09 6.41-9.77 2.29 2.27 3.59 8.3 7.13 4.4q0.52 6.82 1.03 13.63 0.95 12.9 1.88 25.8c0 0-0.96 16.44-8.09 9.17-3.68-3.74-4.46-11.02-5.36-15.88z"/>
</svg>