<svg version="1.2" xmlns="http://www.w3.org/2000/svg" viewBox="0 0 185 254" width="185" height="254">
	<style>
		.s0 { fill: #e6710b } 
		.s1 { fill: #cf560a } 
		.s2 { fill: #803f21 } 
		.s3 { fill: #f18628 } 
		.s4 { fill: #e6d3a3 } 
		.s5 { fill: #982626 } 
		.s6 { fill: #ab2b2b } 
		.s7 { fill: #f1b480 } 
	</style>
	<path class="s0" d="m132.57 179.07c-13.45-0.08-26.89-3.1-39.04-8.84-18.34-8.67-33.01-33.97-24.02-54.33 5.98-13.57 19.6-14.18 34.93-11.05 15 3.07 28.22 9.59 42.51 14.53 12.14 4.19 20.73 12.41 23.41 25.79 4.05 20.24-5.34 30.18-23.82 32.92q-6.94 1.03-13.97 0.98z"/>
	<path class="s1" d="m66.99 125.42c-1.93 18.13 10.98 37.46 26.54 44.81 12.15 5.74 25.59 8.76 39.04 8.84q7.03 0.05 13.97-0.98c18.47-2.74 27.87-12.68 23.82-32.92-1.02-5.08-2.89-9.42-5.49-13.07-6.96 3.5-14.46 6.09-22.6 7.54-26.52 5.02-53.05 0.1-75.28-14.22z"/>
	<path class="s0" d="m146.95 119.38c-14.29-4.94-27.51-11.46-42.51-14.53-15.33-3.13-28.94-2.52-34.93 11.05-1.37 3.09-2.18 6.29-2.52 9.52 22.23 14.31 48.75 19.24 75.28 14.22 8.14-1.45 15.64-4.04 22.61-7.54-4.24-5.97-10.4-10.12-17.93-12.72z"/>
	<path class="s0" d="m65.16 65.33q-1.4 1.31-2.93 2.45c-3.32 2.5-7.05 4.42-11.03 5.61q-2.36 0.72-4.82 1.08c-9.57-9.53-12.41-25.18-6.8-37.47 13.75 2.95 24.37 14.32 25.58 28.33z"/>
	<path class="s2" d="m62.23 67.78c-3.32 2.5-7.06 4.42-11.03 5.61q-0.38-0.28-0.71-0.67c-5.4-6.17-7.44-15.44-5.16-23.49 8.02 3.21 14.14 10.01 16.9 18.55z"/>
	<path class="s0" d="m106.88 65.33q1.4 1.31 2.92 2.45c3.32 2.5 7.06 4.42 11.03 5.61q2.37 0.72 4.82 1.08c9.57-9.53 12.41-25.18 6.8-37.47-13.75 2.95-24.36 14.32-25.57 28.33z"/>
	<path class="s2" d="m109.8 67.78c3.32 2.5 7.06 4.42 11.04 5.61q0.37-0.28 0.7-0.67c5.4-6.17 7.44-15.44 5.17-23.49-8.03 3.21-14.15 10.01-16.91 18.55z"/>
	<path class="s3" d="m143.95 102.11c-36.13 18.49-81 18.84-117.42 0.92 7.52-26.05 30.62-50.1 57.72-49.99 27.11 0.12 52.41 22.97 59.7 49.07z"/>
	<path class="s4" d="m143.95 102.11c-36.13 18.49-81 18.84-117.42 0.92 0 0 40.64-51.73 56.18 8.09l6.17-0.86c0 0 8.08-65.64 55.07-8.15z"/>
	<path class="s5" d="m93.94 110.93c-1.32-2.05-6.9-1.63-8.69-1.54-1.67 0.09-6.27 0.25-7.34 1.75-2.56 3.56 4.81 7.5 7.41 7.45 2.02-0.04 3.96-0.92 5.5-2.18 1.01-0.83 3.65-3.38 3.37-4.86q-0.07-0.34-0.25-0.62z"/>
	<path class="s6" d="m89.4 111.76c-0.68-0.98-1.71-0.93-2.82-1.01-1.17-0.09-2.68-0.18-3.66 0.57-0.45 0.34-0.68 1.22 0 1.51 0.94 0.4 1.86 0.3 2.86 0.32 1.08 0.01 2.32 0.55 3.28-0.08 0.4-0.27 0.65-0.87 0.34-1.31z"/>
	<path class="s2" d="m65.27 92.78c-1.07-1.41-2.76-1.41-3.83 0-0.76 1.01-0.62 2.86-0.59 4.09 0.02 0.82 0.45 1.8 1.24 2.16 0.94 0.44 1.59 0.44 2.53 0 0.79-0.36 1.21-1.34 1.23-2.16 0.03-1.23 0.18-3.08-0.58-4.09z"/>
	<path class="s2" d="m108.79 92.78c-1.07-1.41-2.76-1.41-3.83 0-0.76 1.01-0.61 2.86-0.58 4.09 0.02 0.82 0.44 1.8 1.23 2.16 0.94 0.44 1.59 0.44 2.53 0 0.79-0.36 1.22-1.34 1.24-2.16 0.03-1.23 0.18-3.08-0.59-4.09z"/>
	<path class="s7" d="m82.32 81.58c-0.09-0.68-0.17-1.37-0.31-2.04-0.11-0.54-0.97-0.42-0.94 0.12 0.03 0.74 0.14 1.47 0.23 2.2 0.07 0.55 0.04 1.19 0.49 1.58 0.16 0.13 0.36 0.1 0.47-0.06 0.37-0.52 0.14-1.21 0.06-1.8z"/>
	<path class="s7" d="m90.31 81.72c0-0.81 0-1.62-0.1-2.42-0.06-0.52-0.75-0.52-0.81 0-0.08 0.7-0.09 1.41-0.09 2.12-0.01 0.66-0.14 1.4 0.19 1.99 0.13 0.24 0.49 0.24 0.62 0 0.29-0.53 0.2-1.1 0.19-1.69z"/>
	<path class="s7" d="m84.95 90.22c0-0.66-0.01-1.33-0.09-1.98-0.06-0.54-0.77-0.54-0.83 0-0.08 0.65-0.09 1.32-0.09 1.98 0 0.5-0.15 1.11 0.29 1.45q0.22 0.17 0.43 0c0.44-0.35 0.29-0.95 0.29-1.45z"/>
	<path class="s7" d="m74.21 79.38q-0.2-1-0.46-1.98c-0.13-0.46-0.93-0.39-0.87 0.12q0.11 0.94 0.29 1.88c0.11 0.58 0.13 1.17 0.51 1.64 0.19 0.24 0.58 0.08 0.66-0.18 0.15-0.5-0.03-0.99-0.13-1.48z"/>
	<path class="s7" d="m78.05 73.34c-0.11-0.75-0.29-1.48-0.66-2.14-0.22-0.39-0.72-0.1-0.67 0.28 0.09 0.63 0.25 1.25 0.36 1.88 0.09 0.52-0.02 1.11 0.38 1.5 0.12 0.11 0.32 0.13 0.43 0 0.38-0.43 0.24-0.99 0.16-1.52z"/>
	<path class="s7" d="m79.11 90.18q-0.35-0.77-0.83-1.45c-0.28-0.38-0.96-0.17-0.81 0.34q0.22 0.72 0.56 1.38c0.17 0.33 0.42 0.87 0.89 0.71 0.44-0.15 0.33-0.67 0.19-0.98z"/>
	<path class="s7" d="m92.2 88.31c-0.35 0.63-0.7 1.48-0.74 2.2-0.02 0.47 0.62 0.59 0.84 0.23 0.38-0.61 0.57-1.52 0.65-2.23 0.04-0.41-0.57-0.53-0.75-0.2z"/>
	<path class="s7" d="m85.93 70.89c-0.15-0.24-0.53-0.21-0.6 0.08-0.1 0.36-0.07 0.72-0.06 1.1 0.02 0.47-0.02 0.95-0.02 1.42-0.01 0.69 0.94 0.64 1.03 0 0.1-0.78 0.11-1.92-0.35-2.6z"/>
	<path class="s7" d="m95.2 71.45c-0.05-0.37-0.68-0.37-0.74 0-0.09 0.6-0.17 1.2-0.31 1.8-0.13 0.51-0.35 0.97-0.19 1.49 0.04 0.14 0.19 0.19 0.32 0.13 1.05-0.5 1.07-2.44 0.92-3.42z"/>
	<path class="s7" d="m79.61 67.22c-0.07-0.5-0.14-1.02-0.29-1.51-0.15-0.48-0.88-0.4-0.88 0.12 0 0.55 0.11 1.12 0.19 1.66 0.04 0.28 0.38 0.42 0.63 0.36 0.29-0.09 0.39-0.36 0.35-0.63z"/>
	<path class="s7" d="m71.25 68.65c-0.33-0.35-0.85 0.1-0.64 0.5 0.34 0.7 0.62 1.38 0.77 2.15 0.13 0.65 1.07 0.36 0.98-0.27-0.12-0.88-0.49-1.73-1.11-2.38z"/>
	<path class="s7" d="m92.41 68.25c-0.1-0.65-0.27-1.29-0.43-1.93-0.12-0.5-0.94-0.4-0.89 0.12q0.06 0.84 0.16 1.68c0.08 0.55 0.04 1.19 0.55 1.51 0.15 0.09 0.38 0.07 0.49-0.06 0.35-0.43 0.21-0.8 0.12-1.32z"/>
	<path class="s3" d="m104.09 142.83c12.19 0.3 23.8 8.86 35.45 11.85 5.41 1.38 12.2 3.15 17.53 0.48 2.84-1.42 13.2-12.66 11.64-14.41 9.03 10.12 9.32 30.87 4.47 42.74-10.23 25.04-33.77 27.93-56.44 20.18-13.6-4.65-33.07-16.02-47.75-12.14-12.67 3.35-27.39 16.24-36.03 25.44-9.84-10.54-9.55-28-3.47-41.07 5.32-11.44 15.44-20.08 26.95-25.4q2.47-1.14 5.02-2.08c13.53-4.98 28.21-5.94 42.63-5.59z"/>
	<path class="s0" d="m113.02 186.78c20.55 3.73 44.18 3.1 61.88-8.74q-0.7 2.95-1.72 5.45c-10.23 25.04-33.77 27.93-56.43 20.18-13.61-4.65-33.08-16.02-47.76-12.14-12.67 3.35-27.39 16.24-36.03 25.44-9.84-10.54-9.55-28-3.47-41.07 3.98-8.57 10.66-15.56 18.6-20.77 17.62 16.32 40.76 27.26 64.93 31.65z"/>
	<path class="s3" d="m61.46 148.42c13.53-4.98 28.21-5.94 42.63-5.59 12.19 0.3 23.81 8.86 35.45 11.85 5.41 1.38 12.2 3.15 17.53 0.48 2.84-1.42 13.2-12.66 11.64-14.41 7.77 8.71 9.06 25.28 6.19 37.29-17.7 11.84-41.33 12.47-61.88 8.74-24.17-4.39-47.31-15.33-64.93-31.65q4.01-2.62 8.35-4.62 2.47-1.15 5.02-2.09z"/>
	<path class="s4" d="m29.49 175.9c5.32-11.44 15.44-20.08 26.95-25.4q3.34 0.33 6.59 1.12c-8.21 4.52-14.13 12.97-15.59 22.23 6.08-2.54 12.98-3.02 19.35-1.35-6.57 2.53-11.51 8.85-12.39 15.83 7.27-2.22 15.43-1.31 22.05 2.41-16.51 4.6-31.75 13.73-43.49 26.23-9.84-10.54-9.55-28-3.47-41.07z"/>
	<path class="s7" d="m121.57 153.43c0.31 0.71 1.1 1 1.74 1.36 0.7 0.39 1.44 0.77 2.19 1.07 0.45 0.17 0.66-0.44 0.34-0.71-0.67-0.56-1.4-1.03-2.15-1.48-0.62-0.38-1.14-0.79-1.89-0.73-0.23 0.02-0.31 0.31-0.23 0.49z"/>
	<path class="s7" d="m109.3 150.31c0.55 0.45 1.16 0.43 1.84 0.57q1.23 0.25 2.39 0.72c0.57 0.22 1.02-0.69 0.47-0.97q-1.18-0.61-2.46-0.95c-0.75-0.19-1.53-0.39-2.21 0.04-0.23 0.15-0.24 0.42-0.03 0.59z"/>
	<path class="s7" d="m96.94 148.94c0.98 0.4 2.11 0.36 3.15 0.45q1.78 0.17 3.57 0.23c0.58 0.02 0.6-0.81 0.04-0.9q-1.77-0.28-3.55-0.45c-1.04-0.11-2.13-0.36-3.17-0.15-0.44 0.08-0.42 0.67-0.04 0.82z"/>
	<path class="s7" d="m86.7 148.39c0.35 0.42 0.85 0.26 1.33 0.2q1.08-0.12 2.15-0.27c0.57-0.08 0.49-1.05-0.08-1.01q-0.92 0.07-1.83 0.17c-0.53 0.05-1.32-0.05-1.6 0.5q-0.11 0.22 0.03 0.41z"/>
	<path class="s7" d="m114.83 154.94c0.26 0.63 1.11 0.7 1.69 0.9 0.77 0.26 1.49 0.66 2.26 0.92 0.35 0.12 0.65-0.33 0.39-0.61-0.56-0.6-1.29-0.99-2.03-1.34-0.63-0.3-1.62-0.81-2.24-0.27-0.12 0.1-0.13 0.26-0.07 0.4z"/>
	<path class="s7" d="m104.38 153.67c0.36 0.29 0.93 0.32 1.37 0.46 0.48 0.15 0.94 0.36 1.4 0.57 0.51 0.22 0.78-0.53 0.4-0.82-0.44-0.34-0.94-0.59-1.45-0.8-0.46-0.19-1.08-0.44-1.56-0.28-0.41 0.14-0.5 0.6-0.16 0.87z"/>
	<path class="s7" d="m90.86 151.79c0.45 0.28 0.94 0.18 1.46 0.19q1.08 0.03 2.14 0.28c0.56 0.12 0.84-0.67 0.29-0.85q-1.04-0.35-2.12-0.47c-0.62-0.06-1.32-0.16-1.82 0.25-0.19 0.15-0.16 0.48 0.05 0.6z"/>
	<path class="s7" d="m111.19 156.98c0.29 0.02 0.55-0.01 0.83 0.06 0.33 0.09 0.55 0.3 0.91 0.3 0.21-0.01 0.43-0.16 0.43-0.39-0.01-0.61-0.44-0.87-0.95-1.1-0.44-0.2-1.02-0.21-1.47-0.01-0.56 0.25-0.32 1.11 0.25 1.14z"/>
	<path class="s7" d="m98.03 155.15c0.37 0.15 0.81 0.12 1.21 0.12 0.42 0 0.84 0.03 1.26 0.02 0.63-0.03 0.68-0.9 0.05-0.99q-0.63-0.07-1.26-0.11c-0.4-0.04-0.83-0.11-1.21 0-0.48 0.13-0.52 0.77-0.05 0.96z"/>
</svg>